<?xml version="1.0" encoding="utf-8"?>
<!-- Generator: Adobe Illustrator 16.0.0, SVG Export Plug-In . SVG Version: 6.00 Build 0)  -->
<!DOCTYPE svg PUBLIC "-//W3C//DTD SVG 1.1//EN" "http://www.w3.org/Graphics/SVG/1.1/DTD/svg11.dtd">
<svg version="1.1" id="Layer_1" xmlns="http://www.w3.org/2000/svg" xmlns:xlink="http://www.w3.org/1999/xlink" x="0px" y="0px"
	 width="178px" height="190.666px" viewBox="0 0 178 190.666" enable-background="new 0 0 178 190.666" xml:space="preserve">
<g>
	<path fill-rule="evenodd" clip-rule="evenodd" fill="#FF7800" d="M57.277,106c-4.043-9.229-9.988-16.643-18.989-21.402
		c-7.358-3.891-15.178-6.863-22.218-11.39c-6.084-3.912-10.806-8.703-9.809-16.572c1.039-8.189,6.125-13.427,13.545-16.528
		c1.675-0.7,3.464-1.22,5.251-1.533c2.275-0.399,3.46-1.371,3.669-3.854c1.252-14.827,17.919-23.333,31.967-19.393
		c2.866,0.804,4.667,0.449,6.987-1.641c11.479-10.333,24.05-10.279,35.965-0.181c1.269,1.075,2.242,2.504,4.264,1.492
		c13.84-6.932,23.535-0.416,33.355,11.65c7.689,9.449,12.235,20.532,16.631,31.702c4.982,12.66,11.075,24.942,12.906,38.659
		c1.798,13.475,1.032,26.601-5.183,38.995c-0.85,1.694-1.449,3.188-0.479,5.147c4.41,8.91,2.32,17.116-2.977,24.908
		c-9.342,13.741-26.86,21.027-41.754,17.418c-3.801-0.921-7.634-2.24-10.131-5.098c-3.56-4.071-7.994-5.46-12.931-6.584
		c-11.383-2.593-21.571-7.98-30.853-14.857c-10.585-7.842-22.694-12.527-34.492-17.923c-2.563-1.172-5.105-2.499-7.408-4.11
		c-7.146-4.997-9.826-11.844-7.862-19.444c1.958-7.581,8.763-13.382,16.74-14.466C41.974,99.841,49.545,102.582,57.277,106z"/>
	<path fill-rule="evenodd" clip-rule="evenodd" fill="#FEFEFE" d="M125.406,46.276c-3.65-8.251-8.262-15.959-13.627-23.181
		c-2.132-2.869-1.213-3.749,1.689-4.686c6.854-2.212,12.407-0.042,17.327,4.656c8.839,8.439,14.933,18.6,19.234,29.993
		c4.868,12.894,11.318,25.194,14.464,38.733c8.853,38.107-12.703,64.402-42.729,74.741c-13.915,4.791-26.919,0.188-39.42-5.972
		c-5.54-2.729-10.628-6.207-15.622-9.829c-10.078-7.311-21.785-11.409-32.916-16.646c-1.951-0.918-3.878-1.939-5.676-3.124
		c-4.61-3.037-7.601-6.986-6.528-12.914c1.069-5.9,5.535-10.588,11.586-11.572c11.369-1.848,20.367,3.04,28.398,10.469
		c1.444,1.335,2.379,4.214,5.166,2.584c2.885-1.688,1.328-4.359,0.535-6.253c-6.382-15.229-14.921-28.605-30.938-35.565
		c-5.788-2.515-11.577-5.114-16.896-8.6c-4.417-2.894-8.776-5.862-7.884-12.123c0.96-6.744,5.511-10.542,11.502-12.499
		c11.394-3.72,21.244,0.732,30.62,6.641c5.945,3.746,10.946,8.652,15.829,13.664c1.278,1.312,2.591,2.587,3.884,3.883
		c1.182,1.185,2.479,1.812,3.906,0.474c1.497-1.402,0.646-2.871-0.339-3.968c-10.917-12.164-22.826-23-39.438-26.584
		c-3.378-0.729-4.05-1.762-3.363-4.902c2.373-10.852,15.232-16.913,27.252-12.778c7.562,2.602,12.94,8.078,18.079,13.765
		c4.124,4.564,7.85,9.488,11.749,14.255c0.737,0.902,1.442,1.832,2.194,2.722c1.131,1.339,2.489,2.591,4.237,1.315
		c1.803-1.316,0.951-2.929-0.125-4.352c-7.335-9.697-14.572-19.513-24.35-26.964c-2.871-2.188-3.279-3.214-0.089-5.659
		c9.226-7.073,18.498-5.944,26.981,1.722c8.036,7.264,13.187,16.654,18.269,26.048c0.859,1.588,1.901,3.077,2.858,4.611
		C123.625,49.677,125.394,49.722,125.406,46.276z"/>
	<path fill-rule="evenodd" clip-rule="evenodd" fill="#F8F9F8" d="M113.55,174.283c29.234-10.689,32.829-12.919,46.874-29.085
		c2.978,4.264,1.985,8.613,0.35,12.682c-5.294,13.171-21.885,22.839-35.92,21.143C120.743,178.525,116.875,177.373,113.55,174.283z"
		/>
	<path fill-rule="evenodd" clip-rule="evenodd" fill="#FF7800" d="M125.406,46.276c1.542,1.77,0.606,3.131-0.959,3.974
		c-1.786,0.961-2.696-0.286-3.221-1.87C122.981,48.395,124.591,48.126,125.406,46.276z"/>
</g>
</svg>
