<?xml version="1.0" encoding="utf-8"?>
<!-- Generator: Adobe Illustrator 16.0.0, SVG Export Plug-In . SVG Version: 6.00 Build 0)  -->
<!DOCTYPE svg PUBLIC "-//W3C//DTD SVG 1.1//EN" "http://www.w3.org/Graphics/SVG/1.1/DTD/svg11.dtd">
<svg version="1.1" id="Layer_2" xmlns="http://www.w3.org/2000/svg" xmlns:xlink="http://www.w3.org/1999/xlink" x="0px" y="0px"
	 width="412px" height="200.5px" viewBox="0 0 412 200.5" enable-background="new 0 0 412 200.5" xml:space="preserve">
<g>
	<polygon fill="#FF7800" points="83.667,21.5 65.667,21.5 141.333,150.5 197.333,55.167 122,55.083 131.5,68.833 173.666,68.833 
		142.333,121.833 	"/>
	<polygon fill="#FF7800" points="65.667,56.167 142.666,182.834 125.333,182.834 65.667,86 35.667,136.833 78.667,136.833 
		87.667,150.5 11,150.5 	"/>
</g>
<g>
	<path fill="#FFFFFF" d="M167.756,141.42c0-3.158,0.822-5.583,2.467-7.271c1.644-1.688,4.025-2.53,7.142-2.53
		c3.159,0,5.562,0.876,7.207,2.629c1.644,1.753,2.467,4.146,2.467,7.174c0,3.074-0.833,5.511-2.5,7.306
		c-1.667,1.797-4.058,2.693-7.174,2.693c-3.116,0-5.498-0.888-7.142-2.662C168.578,146.982,167.756,144.537,167.756,141.42z"/>
	<path fill="#FFFFFF" d="M200.219,149.536l20.192-94.922h15.257l-20.191,94.922H200.219z"/>
	<path fill="#FFFFFF" d="M269.43,149.536h-15.388l17.142-81.612h-24.606l2.922-13.31h64.796l-2.792,13.31h-24.735L269.43,149.536z"
		/>
	<path fill="#FFFFFF" d="M375.583,149.536h-15.452l9.09-42.786h-36.748l-9.022,42.786h-15.39l20.063-94.922h15.388l-8.246,38.826
		h36.748l8.245-38.826h15.388L375.583,149.536z"/>
</g>
<g>
	<path fill="#FFFFFF" d="M153.248,170.837l3.119-5.846h1.471l-3.902,7.155v4.535h-1.375v-4.472l-3.894-7.221h1.487L153.248,170.837z
		"/>
	<path fill="#FFFFFF" d="M169.592,170.82c0,1.871-0.473,3.343-1.419,4.414c-0.946,1.07-2.262,1.605-3.946,1.605
		c-1.722,0-3.05-0.525-3.986-1.578c-0.936-1.054-1.403-2.539-1.403-4.457c0-1.904,0.469-3.381,1.407-4.428
		c0.938-1.048,2.271-1.57,3.998-1.57c1.679,0,2.991,0.532,3.934,1.6C169.12,167.473,169.592,168.943,169.592,170.82z
		 M160.276,170.82c0,1.582,0.337,2.783,1.011,3.603c0.674,0.819,1.654,1.228,2.938,1.228c1.295,0,2.273-0.406,2.935-1.224
		c0.662-0.815,0.992-2.018,0.992-3.606c0-1.57-0.329-2.764-0.988-3.576c-0.658-0.813-1.632-1.221-2.922-1.221
		c-1.295,0-2.28,0.408-2.955,1.229C160.612,168.07,160.276,169.259,160.276,170.82z"/>
	<path fill="#FFFFFF" d="M181.026,164.991v7.563c0,1.334-0.403,2.381-1.208,3.144c-0.805,0.763-1.911,1.144-3.318,1.144
		s-2.496-0.384-3.267-1.15c-0.77-0.769-1.155-1.822-1.155-3.168v-7.53h1.359v7.629c0,0.976,0.267,1.724,0.799,2.246
		c0.533,0.521,1.317,0.782,2.351,0.782c0.986,0,1.746-0.262,2.279-0.786c0.533-0.524,0.8-1.277,0.8-2.261v-7.61L181.026,164.991
		L181.026,164.991z"/>
	<path fill="#FFFFFF" d="M185.479,171.82v4.861h-1.359v-11.69h3.206c1.434,0,2.494,0.274,3.179,0.823
		c0.685,0.55,1.027,1.375,1.027,2.479c0,1.546-0.784,2.591-2.351,3.137l3.175,5.252h-1.607l-2.831-4.861H185.479L185.479,171.82z
		 M185.479,170.652h1.863c0.959,0,1.663-0.19,2.111-0.571c0.448-0.381,0.672-0.953,0.672-1.715c0-0.773-0.228-1.33-0.684-1.673
		c-0.456-0.34-1.188-0.512-2.195-0.512h-1.768L185.479,170.652L185.479,170.652z"/>
	<path fill="#FFFFFF" d="M205.91,168.396c0,1.185-0.404,2.095-1.211,2.729c-0.808,0.64-1.963,0.956-3.466,0.956h-1.375v4.6h-1.359
		v-11.69h3.03C204.449,164.991,205.91,166.127,205.91,168.396z M199.856,170.916h1.224c1.205,0,2.076-0.193,2.615-0.583
		c0.538-0.39,0.808-1.013,0.808-1.871c0-0.772-0.253-1.349-0.76-1.728c-0.506-0.379-1.295-0.567-2.367-0.567h-1.52V170.916z"/>
	<path fill="#FFFFFF" d="M214.873,176.682h-6.518v-11.688h6.518v1.208h-5.158v3.766h4.846v1.199h-4.846v4.302h5.158V176.682z"/>
	<path fill="#FFFFFF" d="M218.823,171.82v4.861h-1.359v-11.69h3.206c1.434,0,2.494,0.274,3.18,0.823
		c0.686,0.55,1.026,1.375,1.026,2.479c0,1.546-0.784,2.591-2.351,3.137l3.175,5.252h-1.607l-2.831-4.861H218.823L218.823,171.82z
		 M218.823,170.652h1.862c0.959,0,1.664-0.19,2.11-0.571c0.448-0.381,0.672-0.953,0.672-1.715c0-0.773-0.228-1.33-0.684-1.673
		c-0.456-0.34-1.188-0.512-2.195-0.512h-1.769L218.823,170.652L218.823,170.652z"/>
	<path fill="#FFFFFF" d="M234.184,173.57c0,1.029-0.373,1.832-1.119,2.406c-0.746,0.575-1.76,0.863-3.039,0.863
		c-1.385,0-2.45-0.179-3.196-0.535v-1.313c0.479,0.201,1.002,0.361,1.565,0.479c0.564,0.117,1.125,0.176,1.681,0.176
		c0.905,0,1.589-0.172,2.047-0.516c0.459-0.344,0.688-0.822,0.688-1.436c0-0.405-0.082-0.737-0.244-0.996
		c-0.162-0.258-0.436-0.496-0.814-0.715c-0.382-0.219-0.961-0.467-1.738-0.744c-1.089-0.389-1.865-0.85-2.332-1.383
		s-0.699-1.229-0.699-2.088c0-0.9,0.338-1.617,1.017-2.15c0.678-0.533,1.571-0.801,2.688-0.801c1.16,0,2.229,0.215,3.205,0.641
		l-0.425,1.184c-0.965-0.403-1.901-0.605-2.813-0.605c-0.719,0-1.281,0.152-1.688,0.464c-0.403,0.31-0.606,0.738-0.606,1.287
		c0,0.403,0.074,0.735,0.225,0.995c0.148,0.259,0.4,0.494,0.756,0.712c0.355,0.216,0.896,0.455,1.627,0.716
		c1.227,0.438,2.069,0.906,2.531,1.407C233.953,172.121,234.184,172.771,234.184,173.57z"/>
	<path fill="#FFFFFF" d="M246.721,170.82c0,1.871-0.473,3.343-1.419,4.414c-0.946,1.07-2.262,1.605-3.946,1.605
		c-1.722,0-3.051-0.525-3.984-1.578c-0.934-1.054-1.403-2.539-1.403-4.457c0-1.904,0.472-3.381,1.408-4.428
		c0.938-1.048,2.271-1.57,3.998-1.57c1.679,0,2.989,0.532,3.935,1.6C246.249,167.473,246.721,168.943,246.721,170.82z
		 M237.404,170.82c0,1.582,0.338,2.783,1.013,3.603c0.675,0.82,1.653,1.228,2.938,1.228c1.295,0,2.271-0.406,2.935-1.224
		c0.662-0.815,0.991-2.018,0.991-3.606c0-1.57-0.329-2.764-0.987-3.576c-0.657-0.813-1.633-1.221-2.922-1.221
		c-1.296,0-2.28,0.408-2.955,1.229S237.404,169.259,237.404,170.82z"/>
	<path fill="#FFFFFF" d="M258.459,176.682h-1.551l-6.389-9.812h-0.064c0.086,1.151,0.128,2.207,0.128,3.167v6.645h-1.255v-11.688
		h1.535l6.373,9.771h0.063c-0.011-0.145-0.033-0.605-0.072-1.389c-0.037-0.779-0.049-1.339-0.039-1.675v-6.709h1.271V176.682z"/>
	<path fill="#FFFFFF" d="M270.805,176.682h-1.551l-6.389-9.812h-0.064c0.086,1.151,0.129,2.207,0.129,3.167v6.645h-1.256v-11.688
		h1.535l6.373,9.771h0.063c-0.011-0.145-0.033-0.605-0.072-1.389c-0.035-0.779-0.049-1.339-0.037-1.675v-6.709h1.271v11.69H270.805z
		"/>
	<path fill="#FFFFFF" d="M281.369,176.682l-1.456-3.718h-4.687l-1.438,3.718h-1.375l4.622-11.738h1.145l4.598,11.738H281.369z
		 M279.489,171.74l-1.359-3.622c-0.176-0.459-0.356-1.021-0.543-1.688c-0.118,0.512-0.285,1.074-0.504,1.688l-1.376,3.622H279.489z"
		/>
	<path fill="#FFFFFF" d="M284.383,176.682v-11.688h1.359v10.459h5.156v1.229H284.383z"/>
	<path fill="#FFFFFF" d="M304.484,176.682l-1.455-3.718h-4.688l-1.438,3.718h-1.375l4.621-11.738h1.145l4.598,11.738H304.484z
		 M302.605,171.74l-1.359-3.622c-0.176-0.459-0.355-1.021-0.543-1.688c-0.118,0.512-0.285,1.074-0.504,1.688l-1.376,3.622H302.605z"
		/>
	<path fill="#FFFFFF" d="M316.631,176.682h-1.551l-6.389-9.812h-0.064c0.086,1.151,0.128,2.207,0.128,3.167v6.645H307.5v-11.688
		h1.535l6.373,9.771h0.063c-0.011-0.145-0.033-0.605-0.072-1.389c-0.037-0.779-0.049-1.339-0.039-1.675v-6.709h1.271V176.682
		L316.631,176.682z"/>
	<path fill="#FFFFFF" d="M323.443,176.682h-1.359V166.2h-3.702v-1.208h8.765v1.208h-3.703V176.682L323.443,176.682z"/>
	<path fill="#FFFFFF" d="M328.904,176.682v-11.688h1.359v11.688H328.904z"/>
	<path fill="#FFFFFF" d="M340.146,164.991h1.463l-4.213,11.69h-1.345l-4.188-11.69h1.438l2.688,7.563
		c0.309,0.868,0.555,1.715,0.735,2.534c0.19-0.862,0.44-1.725,0.752-2.583L340.146,164.991z"/>
	<path fill="#FFFFFF" d="M343.218,176.682v-11.688h1.359v11.688H343.218z"/>
	<path fill="#FFFFFF" d="M349.143,171.82v4.861h-1.357v-11.69h3.206c1.434,0,2.491,0.274,3.179,0.823
		c0.686,0.55,1.025,1.375,1.025,2.479c0,1.546-0.781,2.591-2.351,3.137l3.175,5.252h-1.605l-2.831-4.861H349.143L349.143,171.82z
		 M349.143,170.652h1.863c0.959,0,1.663-0.19,2.11-0.571c0.448-0.381,0.672-0.953,0.672-1.715c0-0.773-0.228-1.33-0.685-1.673
		c-0.455-0.34-1.188-0.512-2.194-0.512h-1.767V170.652L349.143,170.652z"/>
	<path fill="#FFFFFF" d="M366.732,164.991v7.563c0,1.334-0.401,2.381-1.207,3.144c-0.805,0.763-1.91,1.144-3.317,1.144
		s-2.496-0.384-3.267-1.15c-0.771-0.768-1.155-1.822-1.155-3.168v-7.53h1.358v7.629c0,0.976,0.268,1.724,0.801,2.246
		c0.531,0.521,1.316,0.782,2.351,0.782c0.986,0,1.746-0.262,2.279-0.786c0.532-0.524,0.799-1.277,0.799-2.261v-7.61L366.732,164.991
		L366.732,164.991z"/>
	<path fill="#FFFFFF" d="M376.426,173.57c0,1.029-0.373,1.832-1.119,2.406c-0.746,0.575-1.76,0.863-3.039,0.863
		c-1.386,0-2.451-0.179-3.197-0.535v-1.313c0.479,0.201,1.003,0.361,1.566,0.479c0.564,0.117,1.125,0.176,1.68,0.176
		c0.906,0,1.589-0.172,2.048-0.516s0.688-0.822,0.688-1.436c0-0.405-0.081-0.737-0.243-0.996c-0.162-0.258-0.436-0.496-0.814-0.715
		c-0.383-0.219-0.961-0.467-1.739-0.744c-1.088-0.389-1.864-0.85-2.331-1.383s-0.699-1.229-0.699-2.088
		c0-0.9,0.338-1.617,1.017-2.15c0.678-0.533,1.571-0.801,2.688-0.801c1.16,0,2.229,0.215,3.205,0.641l-0.424,1.184
		c-0.965-0.403-1.902-0.605-2.813-0.605c-0.722,0-1.283,0.152-1.688,0.464c-0.405,0.31-0.606,0.738-0.606,1.287
		c0,0.403,0.073,0.735,0.224,0.995c0.149,0.259,0.401,0.494,0.757,0.712c0.354,0.216,0.896,0.455,1.627,0.716
		c1.229,0.438,2.068,0.906,2.53,1.407C376.195,172.121,376.426,172.771,376.426,173.57z"/>
</g>
</svg>
