<?xml version="1.0" encoding="utf-8"?>
<!-- Generator: Adobe Illustrator 16.0.0, SVG Export Plug-In . SVG Version: 6.00 Build 0)  -->
<!DOCTYPE svg PUBLIC "-//W3C//DTD SVG 1.1//EN" "http://www.w3.org/Graphics/SVG/1.1/DTD/svg11.dtd">
<svg version="1.1" id="Layer_2" xmlns="http://www.w3.org/2000/svg" xmlns:xlink="http://www.w3.org/1999/xlink" x="0px" y="0px"
	 width="412px" height="200.5px" viewBox="0 0 412 200.5" enable-background="new 0 0 412 200.5" xml:space="preserve">
<g>
	<polygon fill="#FF7800" points="83.667,21.5 65.667,21.5 141.333,150.5 197.333,55.167 122,55.083 131.5,68.833 173.666,68.833 
		142.333,121.833 	"/>
	<polygon fill="#FF7800" points="65.667,56.167 142.666,182.834 125.333,182.834 65.667,86 35.667,136.833 78.667,136.833 
		87.667,150.5 11,150.5 	"/>
</g>
<g>
	<path fill="#FFFFFF" d="M167.756,141.42c0-3.158,0.822-5.583,2.467-7.271c1.644-1.688,4.025-2.529,7.142-2.529
		c3.159,0,5.562,0.876,7.207,2.629c1.644,1.753,2.467,4.146,2.467,7.174c0,3.074-0.833,5.512-2.5,7.307
		c-1.667,1.797-4.058,2.692-7.174,2.692c-3.116,0-5.498-0.888-7.142-2.662C168.578,146.982,167.756,144.537,167.756,141.42z"/>
	<path fill="#FFFFFF" d="M200.219,149.536l20.192-94.922h15.257l-20.191,94.922H200.219z"/>
	<path fill="#FFFFFF" d="M269.43,149.536h-15.388l17.142-81.612h-24.605l2.922-13.31h64.796l-2.792,13.31H286.77L269.43,149.536z"/>
	<path fill="#FFFFFF" d="M375.583,149.536h-15.452l9.09-42.786h-36.748l-9.021,42.786h-15.391l20.063-94.922h15.388l-8.246,38.826
		h36.748l8.245-38.826h15.388L375.583,149.536z"/>
</g>
<g display="none">
	<path display="inline" fill="#FFFFFF" d="M153.248,170.837l3.119-5.846h1.471l-3.902,7.155v4.535h-1.375v-4.473l-3.894-7.221h1.487
		L153.248,170.837z"/>
	<path display="inline" fill="#FFFFFF" d="M169.592,170.82c0,1.871-0.473,3.343-1.419,4.414c-0.946,1.07-2.262,1.604-3.946,1.604
		c-1.722,0-3.05-0.524-3.986-1.578c-0.936-1.054-1.403-2.538-1.403-4.456c0-1.904,0.469-3.382,1.407-4.429
		c0.938-1.048,2.271-1.569,3.998-1.569c1.679,0,2.991,0.531,3.934,1.6C169.12,167.473,169.592,168.943,169.592,170.82z
		 M160.276,170.82c0,1.582,0.337,2.783,1.011,3.603c0.674,0.819,1.654,1.228,2.938,1.228c1.295,0,2.273-0.405,2.935-1.224
		c0.662-0.815,0.992-2.018,0.992-3.606c0-1.569-0.329-2.764-0.988-3.575c-0.658-0.813-1.632-1.222-2.922-1.222
		c-1.295,0-2.28,0.408-2.955,1.229C160.612,168.07,160.276,169.259,160.276,170.82z"/>
	<path display="inline" fill="#FFFFFF" d="M181.026,164.991v7.563c0,1.334-0.403,2.381-1.208,3.144
		c-0.805,0.763-1.911,1.144-3.318,1.144s-2.496-0.384-3.267-1.15c-0.77-0.769-1.155-1.821-1.155-3.168v-7.529h1.359v7.629
		c0,0.977,0.267,1.725,0.799,2.246c0.533,0.521,1.317,0.781,2.351,0.781c0.986,0,1.746-0.262,2.279-0.785
		c0.533-0.524,0.8-1.277,0.8-2.262v-7.609L181.026,164.991L181.026,164.991z"/>
	<path display="inline" fill="#FFFFFF" d="M185.479,171.82v4.861h-1.359v-11.69h3.206c1.434,0,2.494,0.274,3.179,0.823
		c0.685,0.55,1.027,1.375,1.027,2.479c0,1.546-0.784,2.591-2.351,3.137l3.175,5.252h-1.607l-2.831-4.861H185.479L185.479,171.82z
		 M185.479,170.652h1.863c0.959,0,1.663-0.19,2.111-0.571c0.448-0.381,0.672-0.953,0.672-1.715c0-0.773-0.228-1.33-0.684-1.673
		c-0.456-0.34-1.188-0.512-2.195-0.512h-1.768L185.479,170.652L185.479,170.652z"/>
	<path display="inline" fill="#FFFFFF" d="M205.91,168.396c0,1.185-0.404,2.095-1.211,2.729c-0.808,0.641-1.963,0.956-3.466,0.956
		h-1.375v4.601h-1.359v-11.69h3.03C204.449,164.991,205.91,166.127,205.91,168.396z M199.856,170.916h1.224
		c1.205,0,2.076-0.193,2.615-0.583c0.538-0.39,0.808-1.013,0.808-1.871c0-0.772-0.253-1.349-0.76-1.728
		c-0.506-0.379-1.295-0.567-2.367-0.567h-1.52V170.916z"/>
	<path display="inline" fill="#FFFFFF" d="M214.873,176.682h-6.518v-11.688h6.518v1.208h-5.158v3.766h4.846v1.199h-4.846v4.302
		h5.158V176.682z"/>
	<path display="inline" fill="#FFFFFF" d="M218.823,171.82v4.861h-1.359v-11.69h3.206c1.434,0,2.494,0.274,3.18,0.823
		c0.687,0.55,1.026,1.375,1.026,2.479c0,1.546-0.784,2.591-2.351,3.137l3.175,5.252h-1.607l-2.831-4.861H218.823L218.823,171.82z
		 M218.823,170.652h1.862c0.959,0,1.664-0.19,2.109-0.571c0.448-0.381,0.672-0.953,0.672-1.715c0-0.773-0.229-1.33-0.684-1.673
		c-0.456-0.34-1.188-0.512-2.195-0.512h-1.77L218.823,170.652L218.823,170.652z"/>
	<path display="inline" fill="#FFFFFF" d="M234.184,173.57c0,1.029-0.373,1.832-1.119,2.406s-1.76,0.862-3.039,0.862
		c-1.385,0-2.449-0.179-3.195-0.534v-1.313c0.479,0.2,1.002,0.36,1.564,0.479c0.564,0.116,1.125,0.176,1.682,0.176
		c0.904,0,1.589-0.172,2.047-0.517c0.459-0.344,0.688-0.821,0.688-1.437c0-0.404-0.082-0.736-0.244-0.995s-0.436-0.496-0.813-0.716
		c-0.382-0.219-0.961-0.467-1.737-0.743c-1.09-0.39-1.865-0.851-2.332-1.384c-0.468-0.532-0.699-1.229-0.699-2.088
		c0-0.899,0.338-1.617,1.017-2.149c0.679-0.533,1.571-0.802,2.688-0.802c1.16,0,2.229,0.216,3.205,0.642l-0.426,1.185
		c-0.965-0.403-1.9-0.605-2.813-0.605c-0.719,0-1.281,0.152-1.688,0.464c-0.403,0.31-0.606,0.738-0.606,1.287
		c0,0.403,0.074,0.735,0.226,0.995c0.147,0.259,0.399,0.494,0.756,0.712c0.354,0.216,0.896,0.455,1.628,0.716
		c1.227,0.438,2.068,0.906,2.53,1.407C233.953,172.121,234.184,172.771,234.184,173.57z"/>
	<path display="inline" fill="#FFFFFF" d="M246.721,170.82c0,1.871-0.473,3.343-1.419,4.414c-0.946,1.07-2.262,1.604-3.946,1.604
		c-1.722,0-3.051-0.524-3.983-1.578c-0.935-1.054-1.403-2.538-1.403-4.456c0-1.904,0.473-3.382,1.408-4.429
		c0.938-1.048,2.271-1.569,3.998-1.569c1.68,0,2.988,0.531,3.936,1.6C246.249,167.473,246.721,168.943,246.721,170.82z
		 M237.404,170.82c0,1.582,0.338,2.783,1.013,3.603c0.675,0.82,1.653,1.228,2.938,1.228c1.295,0,2.271-0.405,2.935-1.224
		c0.662-0.815,0.991-2.018,0.991-3.606c0-1.569-0.329-2.764-0.987-3.575c-0.657-0.813-1.633-1.222-2.922-1.222
		c-1.296,0-2.28,0.408-2.955,1.229S237.404,169.259,237.404,170.82z"/>
	<path display="inline" fill="#FFFFFF" d="M258.459,176.682h-1.551l-6.389-9.812h-0.064c0.086,1.151,0.128,2.207,0.128,3.167v6.645
		h-1.255v-11.688h1.535l6.373,9.771h0.063c-0.011-0.146-0.033-0.605-0.072-1.39c-0.037-0.778-0.049-1.339-0.039-1.675v-6.709h1.271
		V176.682z"/>
	<path display="inline" fill="#FFFFFF" d="M270.805,176.682h-1.551l-6.389-9.812h-0.064c0.086,1.151,0.129,2.207,0.129,3.167v6.645
		h-1.256v-11.688h1.535l6.373,9.771h0.063c-0.011-0.146-0.033-0.605-0.072-1.39c-0.034-0.778-0.049-1.339-0.036-1.675v-6.709h1.271
		v11.689H270.805z"/>
	<path display="inline" fill="#FFFFFF" d="M281.369,176.682l-1.456-3.718h-4.687l-1.438,3.718h-1.375l4.622-11.738h1.145
		l4.598,11.738H281.369z M279.489,171.74l-1.359-3.622c-0.176-0.459-0.356-1.021-0.543-1.688c-0.118,0.512-0.285,1.074-0.504,1.688
		l-1.376,3.622H279.489z"/>
	<path display="inline" fill="#FFFFFF" d="M284.383,176.682v-11.688h1.359v10.459h5.156v1.229H284.383z"/>
	<path display="inline" fill="#FFFFFF" d="M304.484,176.682l-1.455-3.718h-4.688l-1.438,3.718h-1.375l4.621-11.738h1.146
		l4.599,11.738H304.484z M302.605,171.74l-1.359-3.622c-0.176-0.459-0.355-1.021-0.543-1.688c-0.118,0.512-0.285,1.074-0.504,1.688
		l-1.376,3.622H302.605z"/>
	<path display="inline" fill="#FFFFFF" d="M316.631,176.682h-1.551l-6.389-9.812h-0.064c0.086,1.151,0.128,2.207,0.128,3.167v6.645
		H307.5v-11.688h1.535l6.373,9.771h0.063c-0.011-0.146-0.033-0.605-0.072-1.39c-0.037-0.778-0.049-1.339-0.039-1.675v-6.709h1.271
		V176.682L316.631,176.682z"/>
	<path display="inline" fill="#FFFFFF" d="M323.443,176.682h-1.359V166.2h-3.702v-1.208h8.765v1.208h-3.703V176.682L323.443,176.682
		z"/>
	<path display="inline" fill="#FFFFFF" d="M328.904,176.682v-11.688h1.359v11.688H328.904z"/>
	<path display="inline" fill="#FFFFFF" d="M340.146,164.991h1.463l-4.213,11.69h-1.346l-4.188-11.69h1.438l2.688,7.563
		c0.31,0.867,0.556,1.715,0.736,2.533c0.189-0.861,0.439-1.725,0.752-2.583L340.146,164.991z"/>
	<path display="inline" fill="#FFFFFF" d="M343.218,176.682v-11.688h1.359v11.688H343.218z"/>
	<path display="inline" fill="#FFFFFF" d="M349.143,171.82v4.861h-1.356v-11.69h3.206c1.434,0,2.49,0.274,3.179,0.823
		c0.687,0.55,1.024,1.375,1.024,2.479c0,1.546-0.78,2.591-2.351,3.137l3.175,5.252h-1.604l-2.831-4.861H349.143L349.143,171.82z
		 M349.143,170.652h1.863c0.959,0,1.663-0.19,2.11-0.571c0.448-0.381,0.672-0.953,0.672-1.715c0-0.773-0.228-1.33-0.685-1.673
		c-0.455-0.34-1.188-0.512-2.194-0.512h-1.767V170.652L349.143,170.652z"/>
	<path display="inline" fill="#FFFFFF" d="M366.732,164.991v7.563c0,1.334-0.401,2.381-1.207,3.144
		c-0.805,0.763-1.91,1.144-3.317,1.144s-2.496-0.384-3.267-1.15c-0.771-0.768-1.155-1.821-1.155-3.168v-7.529h1.358v7.629
		c0,0.977,0.268,1.725,0.801,2.246c0.531,0.521,1.316,0.781,2.351,0.781c0.986,0,1.746-0.262,2.279-0.785
		c0.532-0.524,0.799-1.277,0.799-2.262v-7.609L366.732,164.991L366.732,164.991z"/>
	<path display="inline" fill="#FFFFFF" d="M376.426,173.57c0,1.029-0.373,1.832-1.119,2.406s-1.76,0.862-3.039,0.862
		c-1.386,0-2.451-0.179-3.197-0.534v-1.313c0.479,0.2,1.004,0.36,1.566,0.479c0.564,0.116,1.125,0.176,1.68,0.176
		c0.906,0,1.59-0.172,2.049-0.517c0.459-0.344,0.688-0.821,0.688-1.437c0-0.404-0.08-0.736-0.242-0.995s-0.437-0.496-0.814-0.716
		c-0.383-0.219-0.961-0.467-1.739-0.743c-1.088-0.39-1.864-0.851-2.331-1.384c-0.467-0.532-0.699-1.229-0.699-2.088
		c0-0.899,0.338-1.617,1.018-2.149c0.678-0.533,1.57-0.802,2.688-0.802c1.16,0,2.229,0.216,3.205,0.642l-0.424,1.185
		c-0.965-0.403-1.902-0.605-2.813-0.605c-0.723,0-1.283,0.152-1.688,0.464c-0.405,0.31-0.606,0.738-0.606,1.287
		c0,0.403,0.074,0.735,0.225,0.995c0.148,0.259,0.4,0.494,0.757,0.712c0.354,0.216,0.896,0.455,1.627,0.716
		c1.229,0.438,2.068,0.906,2.53,1.407C376.195,172.121,376.426,172.771,376.426,173.57z"/>
</g>
<g>
	<path fill="#FFFFFF" d="M153.538,168.827l1.849-3.977h3.141l-3.529,6.538v4.188h-2.92v-4.102l-3.529-6.625h3.155L153.538,168.827z"
		/>
	<path fill="#FFFFFF" d="M169.724,170.199c0,1.806-0.443,3.177-1.328,4.117c-0.886,0.938-2.182,1.408-3.889,1.408
		c-1.683,0-2.973-0.473-3.871-1.416c-0.897-0.944-1.346-2.319-1.346-4.124c0-1.785,0.446-3.148,1.339-4.09
		c0.893-0.942,2.19-1.413,3.893-1.413c1.707,0,3,0.468,3.881,1.401C169.283,167.018,169.724,168.39,169.724,170.199z
		 M162.342,170.199c0,2.074,0.722,3.111,2.165,3.111c0.734,0,1.278-0.252,1.632-0.756s0.532-1.289,0.532-2.355
		c0-1.071-0.18-1.861-0.539-2.373c-0.36-0.511-0.896-0.768-1.61-0.768C163.069,167.059,162.342,168.105,162.342,170.199z"/>
	<path fill="#FFFFFF" d="M180.78,164.851v6.457c0,1.403-0.397,2.491-1.193,3.261c-0.794,0.771-1.94,1.156-3.437,1.156
		c-1.462,0-2.586-0.375-3.371-1.123c-0.785-0.748-1.178-1.824-1.178-3.229v-6.522h2.913v6.296c0,0.758,0.142,1.308,0.425,1.65
		c0.284,0.342,0.702,0.514,1.255,0.514c0.592,0,1.021-0.17,1.288-0.511c0.266-0.34,0.399-0.896,0.399-1.669v-6.28H180.78z"/>
	<path fill="#FFFFFF" d="M185.931,171.674v3.903h-2.899v-10.727h3.515c2.916,0,4.373,1.057,4.373,3.17
		c0,1.242-0.606,2.203-1.819,2.883l3.125,4.674h-3.287l-2.275-3.903H185.931z M185.931,169.495h0.543
		c1.012,0,1.518-0.447,1.518-1.343c0-0.738-0.496-1.107-1.489-1.107h-0.572V169.495z"/>
	<path fill="#FFFFFF" d="M204.89,168.263c0,1.198-0.354,2.124-1.061,2.776c-0.707,0.653-1.71,0.979-3.011,0.979h-0.814v3.559h-2.898
		v-10.727h3.713c1.354,0,2.372,0.297,3.052,0.888C204.55,166.331,204.89,167.172,204.89,168.263z M200.004,169.656h0.528
		c0.435,0,0.781-0.122,1.038-0.366c0.256-0.245,0.385-0.582,0.385-1.014c0-0.723-0.402-1.086-1.204-1.086h-0.748V169.656z"/>
	<path fill="#FFFFFF" d="M212.968,175.577h-6.369v-10.727h6.369v2.326h-3.471v1.688h3.214v2.326h-3.214v2.024h3.471V175.577z"/>
	<path fill="#FFFFFF" d="M217.744,171.674v3.903h-2.898v-10.727h3.516c2.915,0,4.372,1.057,4.372,3.17
		c0,1.242-0.606,2.203-1.82,2.883l3.126,4.674h-3.287l-2.274-3.903H217.744z M217.744,169.495h0.543
		c1.013,0,1.519-0.447,1.519-1.343c0-0.738-0.496-1.107-1.489-1.107h-0.572V169.495z"/>
	<path fill="#FFFFFF" d="M232.029,172.319c0,0.666-0.168,1.256-0.506,1.772c-0.337,0.517-0.824,0.917-1.46,1.203
		s-1.382,0.43-2.237,0.43c-0.715,0-1.313-0.051-1.798-0.151c-0.484-0.1-0.988-0.274-1.512-0.524v-2.582
		c0.553,0.284,1.127,0.505,1.725,0.663c0.597,0.16,1.145,0.238,1.643,0.238c0.431,0,0.746-0.073,0.946-0.223
		c0.201-0.149,0.301-0.342,0.301-0.576c0-0.147-0.039-0.275-0.12-0.386c-0.081-0.109-0.211-0.221-0.39-0.333
		c-0.178-0.113-0.653-0.343-1.427-0.69c-0.699-0.317-1.224-0.626-1.573-0.924c-0.351-0.299-0.609-0.641-0.777-1.027
		c-0.169-0.387-0.254-0.844-0.254-1.372c0-0.988,0.36-1.759,1.078-2.312c0.72-0.552,1.707-0.829,2.965-0.829
		c1.109,0,2.242,0.257,3.396,0.771l-0.888,2.237c-1.002-0.459-1.868-0.688-2.597-0.688c-0.377,0-0.65,0.065-0.822,0.198
		c-0.171,0.132-0.257,0.295-0.257,0.49c0,0.211,0.108,0.399,0.327,0.566c0.217,0.166,0.808,0.469,1.771,0.909
		c0.924,0.416,1.567,0.861,1.926,1.339C231.85,170.995,232.029,171.597,232.029,172.319z"/>
	<path fill="#FFFFFF" d="M243.726,170.199c0,1.806-0.442,3.177-1.328,4.117c-0.886,0.938-2.182,1.408-3.89,1.408
		c-1.682,0-2.972-0.473-3.87-1.416c-0.896-0.944-1.346-2.319-1.346-4.124c0-1.785,0.446-3.148,1.338-4.09
		c0.894-0.942,2.191-1.413,3.894-1.413c1.707,0,3,0.468,3.881,1.401C243.285,167.018,243.726,168.39,243.726,170.199z
		 M236.344,170.199c0,2.074,0.722,3.111,2.164,3.111c0.734,0,1.278-0.252,1.633-0.756c0.355-0.504,0.532-1.289,0.532-2.355
		c0-1.071-0.18-1.861-0.54-2.373c-0.358-0.511-0.896-0.768-1.609-0.768C237.07,167.059,236.344,168.105,236.344,170.199z"/>
	<path fill="#FFFFFF" d="M255.875,175.577h-3.8l-3.919-7.557h-0.065c0.092,1.188,0.139,2.096,0.139,2.722v4.835h-2.567v-10.727
		h3.786l3.903,7.455h0.044c-0.068-1.081-0.103-1.95-0.103-2.605v-4.85h2.582V175.577z"/>
	<path fill="#FFFFFF" d="M268.407,175.577h-3.8l-3.919-7.557h-0.065c0.092,1.188,0.139,2.096,0.139,2.722v4.835h-2.568v-10.727
		h3.787l3.903,7.455h0.044c-0.068-1.081-0.103-1.95-0.103-2.605v-4.85h2.582V175.577z"/>
	<path fill="#FFFFFF" d="M277.307,175.577l-0.527-2.01h-3.485l-0.542,2.01h-3.186l3.5-10.771h3.866l3.544,10.771H277.307z
		 M276.178,171.19l-0.463-1.762c-0.107-0.391-0.238-0.897-0.392-1.519c-0.155-0.621-0.257-1.065-0.305-1.335
		c-0.045,0.249-0.131,0.66-0.261,1.232s-0.417,1.699-0.862,3.383H276.178z"/>
	<path fill="#FFFFFF" d="M281.636,175.577v-10.727h2.898v8.386h4.131v2.341H281.636z"/>
	<path fill="#FFFFFF" d="M300.865,175.577l-0.527-2.01h-3.485l-0.542,2.01h-3.186l3.5-10.771h3.867l3.543,10.771H300.865z
		 M299.736,171.19l-0.463-1.762c-0.106-0.391-0.238-0.897-0.392-1.519c-0.155-0.621-0.257-1.065-0.305-1.335
		c-0.045,0.249-0.131,0.66-0.261,1.232s-0.417,1.699-0.862,3.383H299.736z"/>
	<path fill="#FFFFFF" d="M315.408,175.577h-3.8l-3.919-7.557h-0.065c0.093,1.188,0.139,2.096,0.139,2.722v4.835h-2.567v-10.727
		h3.786l3.903,7.455h0.044c-0.068-1.081-0.103-1.95-0.103-2.605v-4.85h2.582V175.577z"/>
	<path fill="#FFFFFF" d="M322.459,175.577h-2.897v-8.356h-2.62v-2.37h8.129v2.37h-2.611V175.577z"/>
	<path fill="#FFFFFF" d="M326.604,175.577v-10.727h2.914v10.727H326.604z"/>
	<path fill="#FFFFFF" d="M337.86,164.851h3.242l-3.514,10.727h-3.412l-3.5-10.727h3.258l1.46,5.437
		c0.304,1.209,0.471,2.05,0.5,2.524c0.034-0.343,0.103-0.771,0.205-1.284s0.192-0.917,0.271-1.211L337.86,164.851z"/>
	<path fill="#FFFFFF" d="M342.262,175.577v-10.727h2.913v10.727H342.262z"/>
	<path fill="#FFFFFF" d="M350.392,171.674v3.903h-2.898v-10.727h3.516c2.915,0,4.372,1.057,4.372,3.17
		c0,1.242-0.606,2.203-1.82,2.883l3.126,4.674h-3.287l-2.274-3.903H350.392z M350.392,169.495h0.543
		c1.013,0,1.519-0.447,1.519-1.343c0-0.738-0.496-1.107-1.489-1.107h-0.572V169.495z"/>
	<path fill="#FFFFFF" d="M366.783,164.851v6.457c0,1.403-0.397,2.491-1.192,3.261c-0.796,0.771-1.941,1.156-3.438,1.156
		c-1.463,0-2.587-0.375-3.371-1.123c-0.785-0.748-1.179-1.824-1.179-3.229v-6.522h2.914v6.296c0,0.758,0.141,1.308,0.425,1.65
		c0.284,0.342,0.702,0.514,1.255,0.514c0.592,0,1.021-0.17,1.287-0.511c0.267-0.34,0.4-0.896,0.4-1.669v-6.28H366.783z"/>
	<path fill="#FFFFFF" d="M376.049,172.319c0,0.666-0.168,1.256-0.506,1.772c-0.337,0.517-0.824,0.917-1.46,1.203
		s-1.382,0.43-2.237,0.43c-0.715,0-1.314-0.051-1.798-0.151c-0.484-0.1-0.988-0.274-1.512-0.524v-2.582
		c0.553,0.284,1.127,0.505,1.724,0.663c0.598,0.16,1.146,0.238,1.644,0.238c0.431,0,0.746-0.073,0.946-0.223
		c0.201-0.149,0.301-0.342,0.301-0.576c0-0.147-0.039-0.275-0.12-0.386c-0.081-0.109-0.211-0.221-0.39-0.333
		c-0.178-0.113-0.653-0.343-1.427-0.69c-0.699-0.317-1.225-0.626-1.573-0.924c-0.351-0.299-0.609-0.641-0.777-1.027
		c-0.169-0.387-0.254-0.844-0.254-1.372c0-0.988,0.359-1.759,1.078-2.312c0.72-0.552,1.707-0.829,2.965-0.829
		c1.109,0,2.242,0.257,3.396,0.771l-0.888,2.237c-1.002-0.459-1.868-0.688-2.597-0.688c-0.377,0-0.65,0.065-0.822,0.198
		c-0.171,0.132-0.257,0.295-0.257,0.49c0,0.211,0.108,0.399,0.327,0.566c0.217,0.166,0.808,0.469,1.771,0.909
		c0.924,0.416,1.566,0.861,1.926,1.339C375.869,170.995,376.049,171.597,376.049,172.319z"/>
</g>
</svg>
