<?xml version="1.0" encoding="utf-8"?>
<!-- Generator: Adobe Illustrator 16.0.0, SVG Export Plug-In . SVG Version: 6.00 Build 0)  -->
<!DOCTYPE svg PUBLIC "-//W3C//DTD SVG 1.1//EN" "http://www.w3.org/Graphics/SVG/1.1/DTD/svg11.dtd">
<svg version="1.1" id="Layer_1" xmlns="http://www.w3.org/2000/svg" xmlns:xlink="http://www.w3.org/1999/xlink" x="0px" y="0px"
	 width="3675.445px" height="360px" viewBox="0 0 3675.445 360" enable-background="new 0 0 3675.445 360" xml:space="preserve">
<g opacity="0.2">
	<g>
		<g>
			<g>
				<path fill="#010F43" d="M54.108,210.718h24.531c0.639,0,1.186-0.366,1.46-0.896c0.118-0.227,0.19-0.48,0.19-0.754V195.9
					c0-0.48-0.209-0.938-0.572-1.25l-12.611-10.883c-0.632-0.547-1.573-0.535-2.191,0.029l-11.92,10.885
					c-0.343,0.313-0.538,0.754-0.538,1.219v13.168c0,0.272,0.072,0.527,0.189,0.754C52.921,210.352,53.469,210.718,54.108,210.718z
					 M55.759,196.628l10.3-9.405l10.929,9.434v10.762H55.759V196.628z"/>
				<path fill="#010F43" d="M169.651,210.718h24.531c0.639,0,1.187-0.366,1.461-0.896c0.117-0.227,0.19-0.48,0.19-0.754V195.9
					c0-0.48-0.209-0.938-0.572-1.25l-12.611-10.883c-0.633-0.547-1.574-0.535-2.191,0.029l-11.92,10.885
					c-0.343,0.313-0.538,0.754-0.538,1.219v13.168c0,0.272,0.072,0.527,0.19,0.754C168.465,210.352,169.013,210.718,169.651,210.718
					z M171.302,196.628l10.3-9.405l10.93,9.434v10.762h-21.229v-10.79H171.302z"/>
				<ellipse fill="#010F43" cx="112.643" cy="280.167" rx="3.064" ry="2.522"/>
				<path fill="#010F43" d="M121.834,256.234h-11.499c-0.912,0-1.651,0.738-1.651,1.65v15.332c0,0.911,0.739,1.65,1.651,1.65h11.499
					c0.911,0,1.65-0.739,1.65-1.65v-15.332C123.485,256.975,122.746,256.234,121.834,256.234z M120.184,271.566h-8.197v-12.03h8.197
					V271.566z"/>
				<path fill="#010F43" d="M138.628,256.234H127.13c-0.912,0-1.651,0.738-1.651,1.65v15.332c0,0.911,0.739,1.65,1.651,1.65h11.499
					c0.911,0,1.65-0.739,1.65-1.65v-15.332C140.279,256.975,139.54,256.234,138.628,256.234z M136.978,271.566h-8.197v-12.03h8.197
					V271.566z"/>
				<path fill="#010F43" d="M121.834,284.593h-11.499c-0.912,0-1.651,0.74-1.651,1.651v15.332c0,0.91,0.739,1.65,1.651,1.65h11.499
					c0.911,0,1.65-0.74,1.65-1.65v-15.332C123.485,285.333,122.746,284.593,121.834,284.593z M120.184,299.926h-8.197v-12.031h8.197
					V299.926z"/>
				<path fill="#010F43" d="M138.628,284.593H127.13c-0.912,0-1.651,0.74-1.651,1.651v15.332c0,0.91,0.739,1.65,1.651,1.65h11.499
					c0.911,0,1.65-0.74,1.65-1.65v-15.332C140.279,285.333,139.54,284.593,138.628,284.593z M136.978,299.926h-8.197v-12.031h8.197
					V299.926z"/>
				<path fill="#010F43" d="M49.967,273.284H80.15c0.912,0,1.65-0.738,1.65-1.65v-27.981c0-0.911-0.739-1.65-1.65-1.65H49.967
					c-0.912,0-1.651,0.739-1.651,1.65v27.981C48.316,272.546,49.055,273.284,49.967,273.284z M78.499,269.982H51.618v-5.737h26.881
					V269.982z M51.618,245.303h26.881v15.643H51.618V245.303z"/>
				<path fill="#010F43" d="M169.125,273.284h30.183c0.912,0,1.65-0.738,1.65-1.65v-27.981c0-0.911-0.738-1.65-1.65-1.65h-30.183
					c-0.912,0-1.65,0.739-1.65,1.65v27.981C167.475,272.546,168.214,273.284,169.125,273.284z M197.658,269.982h-26.882v-5.737
					h26.882V269.982z M170.776,245.303h26.882v15.643h-26.882V245.303z"/>
				<path fill="#010F43" d="M215.821,284.759c2.024,0,3.964,0.418,5.765,1.242c0.646,0.295,1.407,0.146,1.893-0.373
					c1.263-1.353,3.109-2.126,5.065-2.126c2.609,0,4.979,1.385,6.038,3.523c0.299,0.604,0.932,0.963,1.608,0.914
					c0.232-0.019,0.507-0.037,0.779-0.037c3.533,0,6.72,1.89,8.119,4.813c0.284,0.593,0.875,0.938,1.49,0.938
					c0.239,0,0.482-0.053,0.712-0.162c0.822-0.395,1.17-1.379,0.776-2.201c-1.942-4.059-6.288-6.684-11.077-6.689
					c-1.784-2.705-4.984-4.401-8.445-4.401c-2.458,0-4.813,0.852-6.623,2.364c-1.935-0.735-3.981-1.106-6.1-1.106
					c-2.181,0-4.316,0.411-6.296,1.188v-54.969h14.379c0.536,0,1.039-0.262,1.348-0.699c0.31-0.438,0.387-0.998,0.208-1.502
					l-21.621-61.173c-0.233-0.659-0.856-1.101-1.557-1.101H46.239c-0.699,0-1.323,0.441-1.556,1.101l-21.622,61.173
					c-0.179,0.504-0.101,1.064,0.208,1.502c0.309,0.438,0.812,0.699,1.348,0.699h14.38v55.079c-2.061-0.854-4.303-1.3-6.59-1.3
					c-2.118,0-4.165,0.371-6.1,1.105c-1.81-1.513-4.165-2.363-6.624-2.363c-3.46,0-6.661,1.697-8.445,4.402
					c-4.788,0.006-9.135,2.631-11.076,6.688c-0.394,0.821-0.046,1.808,0.776,2.201c0.229,0.108,0.473,0.161,0.711,0.161
					c0.616,0,1.207-0.346,1.49-0.938c1.399-2.925,4.587-4.813,8.12-4.813c0.271,0,0.545,0.019,0.777,0.037
					c0.672,0.047,1.31-0.311,1.609-0.914c1.059-2.142,3.429-3.524,6.037-3.524c1.957,0,3.804,0.774,5.066,2.126
					c0.485,0.518,1.247,0.668,1.893,0.373c1.801-0.824,3.74-1.242,5.765-1.242c2.336,0,4.603,0.577,6.59,1.66v45.93H2.037
					c-0.912,0-1.651,0.739-1.651,1.65c0,0.912,0.739,1.65,1.651,1.65h38.611h167.226h38.612c0.912,0,1.65-0.738,1.65-1.65
					c0-0.911-0.738-1.65-1.65-1.65h-36.961V286.26C211.44,285.277,213.599,284.759,215.821,284.759z M81.25,305.511v-15.563h7.053
					v15.563H81.25z M42.299,289.948h6.017v15.563h-6.017V289.948z M51.618,289.948h6.576v15.563h-6.576V289.948z M61.495,289.948
					h6.576v15.563h-6.576V289.948z M71.373,289.948h6.576v15.563h-6.576V289.948z M201.116,166.505l20.455,57.871h-12.045h-3.302
					H160.22v-4.299c0-0.442-0.177-0.866-0.492-1.177l-5.865-5.778l-3.351-3.302l-25.017-24.646c-0.641-0.633-1.67-0.633-2.314-0.003
					l-25.13,24.648l-3.365,3.302l-5.89,5.776c-0.316,0.311-0.494,0.734-0.494,1.179v4.299H42.299h-3.301H26.952l20.455-57.871
					H201.116z M106.261,305.195v-51.404h36v51.404H106.261z M143.911,250.49h-39.3c-0.911,0-1.65,0.738-1.65,1.65v53.369H91.603
					v-71.92h65.316v71.92h-11.357v-53.369C145.562,251.229,144.823,250.49,143.911,250.49z M155.814,219.68H92.716l6.684-6.558
					l3.366-3.302l21.569-21.155l21.473,21.155l3.351,3.302L155.814,219.68z M91.603,226.025v-1.649v-1.396h65.316v1.396v1.649v1.651
					v2.612H91.603v-2.612V226.025z M142.261,318.873h-36v-3.852h36V318.873z M106.261,322.174h36v3.853h-36V322.174z
					 M142.261,311.721h-36v-2.908h36V311.721z M160.22,289.948h6.508v15.563h-6.508V289.948z M170.03,289.948h6.576v15.563h-6.576
					V289.948z M179.907,289.948h6.576v15.563h-6.576V289.948z M189.785,289.948h6.576v15.563h-6.576V289.948z M199.662,289.948
					h6.562v15.563h-6.562V289.948z M206.223,286.646H160.22v-58.97h46.003V286.646L206.223,286.646z M88.302,227.678v58.969H42.299
					v-58.969H88.302L88.302,227.678z M42.299,308.813h47.654h13.008v23.536H42.299V308.813z M106.261,329.327h36v3.021h-36V329.327z
					 M145.562,332.349v-23.536h13.008h47.653v23.536H145.562z"/>
			</g>
			<g>
				<path fill="#010F43" d="M243.481,335.649h40.331h139.729h40.331c0.911,0,1.65-0.739,1.65-1.65s-0.739-1.65-1.65-1.65h-38.681
					v-11.641c0.083-0.196,0.129-0.412,0.129-0.639c0-0.228-0.046-0.441-0.129-0.64V284.82c1.73,0.189,3.389,1.009,4.638,2.313
					c1.433,1.496,2.174,3.417,2.088,5.409c-0.026,0.612,0.289,1.188,0.819,1.498c0.529,0.308,1.187,0.297,1.707-0.028
					c1.687-1.06,4.139-0.351,4.156-0.346c0.584,0.179,1.22,0.021,1.65-0.411c1.22-1.22,3.05-1.742,4.893-1.399
					c1.739,0.321,3.106,1.34,3.75,2.789l0.032,0.068c0.136,0.271,0.224,0.581,0.315,0.908c0.172,0.613,0.367,1.308,0.938,1.878
					c0.252,0.253,0.58,0.417,0.935,0.468c2.388,0.342,5.529,1.319,6.942,4.049c0.294,0.565,0.87,0.891,1.468,0.891
					c0.255,0,0.515-0.06,0.758-0.186c0.809-0.419,1.125-1.415,0.706-2.225c-1.5-2.896-4.513-4.883-8.535-5.652l-0.033-0.113
					c-0.115-0.41-0.257-0.918-0.523-1.459c-1.082-2.406-3.379-4.147-6.148-4.662c-2.588-0.481-5.187,0.146-7.128,1.687
					c-0.854-0.147-2.181-0.271-3.579,0.007c-0.386-2.017-1.363-3.925-2.826-5.451c-1.87-1.953-4.395-3.145-7.021-3.342v-76.102
					h6.472c0.912,0,1.651-0.738,1.651-1.65v-7.688c0-0.912-0.739-1.65-1.651-1.65h-6.472v-16.269h6.472
					c0.912,0,1.651-0.739,1.651-1.65v-13.663c0-0.911-0.739-1.651-1.651-1.651H275.69c-0.912,0-1.65,0.74-1.65,1.651v13.663
					c0,0.911,0.738,1.65,1.65,1.65h6.472v16.269h-6.472c-0.912,0-1.65,0.738-1.65,1.65v7.688c0,0.912,0.738,1.65,1.65,1.65h6.472
					v76.074c-2.82,0.063-5.566,1.279-7.566,3.367c-1.463,1.527-2.44,3.437-2.826,5.452c-1.399-0.278-2.727-0.153-3.58-0.007
					c-1.942-1.538-4.539-2.168-7.127-1.688c-2.77,0.516-5.066,2.256-6.149,4.662c-0.267,0.541-0.409,1.049-0.523,1.459l-0.033,0.114
					c-4.023,0.771-7.035,2.757-8.535,5.652c-0.42,0.81-0.104,1.806,0.706,2.225c0.243,0.126,0.502,0.187,0.758,0.187
					c0.597,0,1.173-0.325,1.467-0.893c1.414-2.729,4.556-3.707,6.944-4.048c0.353-0.051,0.681-0.215,0.934-0.468
					c0.57-0.57,0.765-1.266,0.937-1.878c0.092-0.327,0.179-0.636,0.315-0.908l0.032-0.067c0.645-1.451,2.011-2.469,3.75-2.791
					c1.844-0.342,3.674,0.182,4.893,1.4c0.432,0.432,1.067,0.59,1.65,0.411c0.629-0.192,2.742-0.542,4.157,0.346
					c0.52,0.326,1.177,0.337,1.707,0.028c0.53-0.309,0.845-0.887,0.819-1.498c-0.086-1.992,0.655-3.913,2.088-5.409
					c1.379-1.44,3.256-2.28,5.182-2.343v47.559h-38.681c-0.911,0-1.65,0.739-1.65,1.65S242.57,335.649,243.481,335.649z
					 M277.34,174.849v-10.362h152.672v10.362h-6.094c-0.122-0.029-0.247-0.048-0.377-0.048H283.812
					c-0.131,0-0.256,0.019-0.377,0.048H277.34z M421.89,178.149v16.193H285.462v-16.193H421.89L421.89,178.149z M285.462,258.846
					l136.428-0.013v59.586h-7.685v-41.854c0-0.91-0.739-1.649-1.651-1.649h-33.953c-0.912,0-1.651,0.739-1.651,1.649v41.854h-91.488
					V258.846z M380.251,321.72v-3.301v-40.202h30.652v40.202v3.301v10.257h-30.652V321.72z M414.206,332.349V321.72h7.685v10.629
					H414.206z M277.34,202.105v-4.388h152.672v4.388h-6.472H283.812H277.34z M421.89,205.408v50.124l-136.428,0.012v-50.136H421.89z
					 M285.462,321.72h91.488v10.629h-91.488V321.72z"/>
				<path fill="#010F43" d="M315.645,250.786h82.762c0.912,0,1.65-0.738,1.65-1.65v-36.469c0-0.912-0.738-1.649-1.65-1.649h-82.762
					c-0.912,0-1.65,0.737-1.65,1.649v36.469C313.995,250.048,314.733,250.786,315.645,250.786z M396.756,247.484h-79.461v-3.657
					h79.461V247.484z M325.313,240.25v-18.313h26.104v18.313H325.313z M362.311,240.25v-18.313h26.104v18.313H362.311z
					 M317.295,214.316h79.461v26.209h-5.041v-20.239c0-0.911-0.739-1.65-1.651-1.65H360.66c-0.912,0-1.651,0.739-1.651,1.65v20.239
					h-4.292v-20.239c0-0.911-0.739-1.65-1.65-1.65h-29.405c-0.911,0-1.65,0.739-1.65,1.65v20.239h-4.716L317.295,214.316
					L317.295,214.316z"/>
				<path fill="#010F43" d="M364.891,306.394h-3.459v-29.79c0-0.91-0.739-1.649-1.65-1.649H305.39c-0.912,0-1.651,0.739-1.651,1.649
					v29.79h-3.458c-0.911,0-1.65,0.738-1.65,1.65c0,0.911,0.739,1.65,1.65,1.65h5.109h54.392h5.109c0.911,0,1.65-0.739,1.65-1.65
					C366.542,307.132,365.802,306.394,364.891,306.394z M358.131,294.21h-23.894v-15.956h23.894V294.21z M307.041,278.254h23.895
					v15.956h-23.895V278.254z M307.041,306.394v-8.882h51.09v8.882H307.041z"/>
				<path fill="#010F43" d="M393.172,281.241h-8.96c-0.912,0-1.651,0.739-1.651,1.649v16.859c0,0.912,0.739,1.65,1.651,1.65h8.96
					c0.912,0,1.65-0.738,1.65-1.65v-16.859C394.823,281.98,394.084,281.241,393.172,281.241z M391.522,298.102h-5.659v-13.56h5.659
					V298.102z"/>
				<path fill="#010F43" d="M407.674,281.241h-9.432c-0.912,0-1.651,0.739-1.651,1.649v16.859c0,0.912,0.739,1.65,1.651,1.65h9.432
					c0.912,0,1.65-0.738,1.65-1.65v-16.859C409.325,281.98,408.586,281.241,407.674,281.241z M406.023,298.102h-6.132v-13.56h6.132
					V298.102z"/>
				<path fill="#010F43" d="M393.172,309.537h-8.96c-0.912,0-1.651,0.739-1.651,1.65v7.23v3.301v6.092
					c0,0.912,0.739,1.651,1.651,1.651h8.96c0.912,0,1.65-0.739,1.65-1.651v-6.092v-3.301v-7.23
					C394.823,310.276,394.084,309.537,393.172,309.537z M391.522,318.419v3.301v4.441h-5.659v-4.441v-3.301v-5.58h5.659V318.419z"/>
				<path fill="#010F43" d="M407.674,309.537h-9.432c-0.912,0-1.651,0.739-1.651,1.65v7.23v3.301v6.092
					c0,0.912,0.739,1.651,1.651,1.651h9.432c0.912,0,1.65-0.739,1.65-1.651v-6.092v-3.301v-7.23
					C409.325,310.276,408.586,309.537,407.674,309.537z M406.023,318.419v3.301v4.441h-6.132v-4.441v-3.301v-5.58h6.132V318.419z"/>
				<circle fill="#010F43" cx="385.391" cy="305.292" r="2.181"/>
			</g>
			<g>
				<path fill="#010F43" d="M537.7,299.336h-2.557v-27.589c0-0.912-0.738-1.649-1.649-1.649h-31.439c-0.911,0-1.65,0.737-1.65,1.649
					v27.589h-2.556c-0.911,0-1.649,0.739-1.649,1.65c0,0.91,0.738,1.649,1.649,1.649h4.206h31.439h4.206
					c0.91,0,1.649-0.739,1.649-1.649C539.35,300.075,538.61,299.336,537.7,299.336z M503.705,273.396h28.139v16.742h-28.139V273.396
					z M503.705,299.336v-5.896h28.139v5.896H503.705z"/>
				<path fill="#010F43" d="M683.169,299.336h-2.554v-27.589c0-0.912-0.74-1.649-1.65-1.649h-31.44c-0.911,0-1.65,0.737-1.65,1.649
					v27.589h-2.555c-0.911,0-1.65,0.739-1.65,1.65c0,0.91,0.739,1.649,1.65,1.649h4.205h31.44h4.204c0.911,0,1.65-0.739,1.65-1.649
					C684.819,300.075,684.081,299.336,683.169,299.336z M649.174,273.396h28.141v16.742h-28.141V273.396z M649.174,299.336v-5.896
					h28.141v5.896H649.174z"/>
				<path fill="#010F43" d="M595.067,234.172l-3.53-2.854c-0.109-0.088-0.229-0.153-0.353-0.211c-0.331-0.15-0.697-0.188-1.047-0.11
					c-0.261,0.06-0.511,0.178-0.724,0.362l-3.047,2.658l-4.813,4.199c-0.358,0.313-0.564,0.768-0.564,1.243v7.263v0.834v1.649v1.356
					c0,0.041,0.009,0.078,0.012,0.117c0.004,0.061,0.008,0.119,0.019,0.176c0.139,0.771,0.811,1.357,1.62,1.357h16.35
					c0.812,0,1.481-0.586,1.621-1.357c0.017-0.095,0.029-0.191,0.029-0.293v-0.057v-1.301v-1.65v-0.225v-7.871
					c0-0.499-0.227-0.971-0.613-1.284L595.067,234.172z M597.337,248.914H584.29v-1.357v-0.162v-7.183l4.821-4.206l1.43-1.247
					l1.809,1.462l4.988,4.028v7.308L597.337,248.914L597.337,248.914z"/>
				<path fill="#010F43" d="M718.961,332.349h-26.174v-35.352c0.057,0.019,0.114,0.035,0.171,0.058
					c0.44,0.159,0.93,0.127,1.344-0.094c0.415-0.22,0.716-0.605,0.827-1.063c0.885-3.594,2.797-5.198,6.194-5.198h0.048
					c3.056,0.014,6.665,1.325,7.635,4.969c0.191,0.72,0.841,1.222,1.585,1.226c2.481,0.018,4.853,0.949,6.854,2.695
					c0.313,0.272,0.699,0.406,1.085,0.406c0.46,0,0.918-0.191,1.244-0.564c0.6-0.688,0.527-1.729-0.158-2.33
					c-2.29-1.996-4.972-3.177-7.813-3.447c-1.316-3.188-4.603-6.229-10.415-6.256h-0.062c-4.029,0-6.938,1.801-8.538,5.232V254.77
					c0-0.024-0.007-0.047-0.008-0.072c0.001-0.023,0.008-0.047,0.008-0.071v-3.769h7.305c0.554,0,1.07-0.275,1.376-0.737
					c0.307-0.462,0.359-1.046,0.145-1.556L686.81,213.6c-0.259-0.609-0.856-1.008-1.521-1.008h-42.821l-6.63-13.695
					c-0.275-0.568-0.853-0.931-1.486-0.931h-87.333c-0.633,0-1.209,0.361-1.484,0.931l-6.631,13.695h-42.821
					c-0.662,0-1.261,0.397-1.52,1.008l-14.804,34.965c-0.217,0.51-0.162,1.094,0.145,1.556c0.306,0.462,0.821,0.737,1.376,0.737
					h7.305v3.769c0,0.024,0.006,0.048,0.007,0.071c-0.001,0.025-0.007,0.048-0.007,0.072v38.686
					c-0.152,0.018-0.304,0.027-0.454,0.055c-1.498-4.008-4.55-6.109-8.911-6.109h-0.063c-5.813,0.027-9.097,3.067-10.414,6.255
					c-2.842,0.271-5.523,1.45-7.813,3.448c-0.688,0.6-0.758,1.642-0.158,2.328c0.326,0.375,0.783,0.565,1.243,0.565
					c0.387,0,0.772-0.134,1.085-0.406c2.003-1.747,4.373-2.679,6.854-2.694c0.744-0.006,1.393-0.508,1.585-1.227
					c0.97-3.643,4.579-4.955,7.634-4.969h0.049c3.398,0,5.311,1.605,6.193,5.197c0.112,0.455,0.414,0.843,0.828,1.063
					c0.414,0.221,0.903,0.253,1.344,0.094c0.328-0.121,0.662-0.21,0.998-0.271v35.563H462.41c-0.912,0-1.651,0.738-1.651,1.65
					c0,0.911,0.739,1.65,1.651,1.65h27.824h55.781h21.336h9.196h27.746h9.275h21.784h55.782h27.825c0.911,0,1.65-0.739,1.65-1.65
					C720.612,333.087,719.873,332.349,718.961,332.349z M578.198,332.349v-40.087h24.444v40.087H578.198z M605.944,332.349v-41.737
					c0-0.91-0.739-1.65-1.65-1.65h-27.746c-0.911,0-1.649,0.74-1.649,1.65v41.737h-5.896v-45.76l3.438,0.446
					c0.07,0.01,0.143,0.014,0.214,0.014c0.81,0,1.517-0.596,1.633-1.419c0.021-0.157,0.075-0.485,0.18-0.938
					c0.3-1.303,1.03-3.637,2.705-5.889c2.881-3.871,7.299-5.835,13.132-5.835c6.902,0,11.69,1.942,14.231,5.772
					c1.732,2.613,1.996,5.423,2.031,5.951c0.003,0.055,0.005,0.093,0.005,0.096c0.022,0.896,0.758,1.607,1.649,1.607h0.029
					c0.135-0.004,0.265-0.021,0.389-0.054h3.279v46.007L605.944,332.349L605.944,332.349z M615.083,283.04h-0.008h-1.642h-0.008
					h-1.646h-0.009h-2.091c-0.265-1.519-0.896-3.863-2.396-6.124c-3.191-4.811-8.904-7.249-16.982-7.249
					c-13.952,0-17.914,9.813-18.958,13.897l-2.034-0.265l-0.005-0.001l-1.632-0.212l-0.015-0.002l-1.618-0.21l-0.015-0.002
					l-2.044-0.266c0.464-2.037,1.567-5.664,4.059-9.35c3.389-5.012,10.001-10.986,22.262-10.986c13.717,0,20.35,6.041,23.497,11.106
					c2.368,3.812,3.119,7.563,3.356,9.66h-2.073V283.04z M615.219,332.349v-46.007h3.697c0.911,0,1.65-0.738,1.65-1.65
					c0-0.685-0.111-6.855-3.963-13.053c-3.591-5.779-11.067-12.666-26.302-12.666c-13.71,0-21.16,6.766-24.996,12.438
					c-3.981,5.892-4.816,11.756-4.898,12.403c-0.113,0.902,0.523,1.728,1.426,1.845l3.867,0.502v46.188h-18.034V256.42v-0.266
					l4.041-3.036l3.008-2.261l2.195-1.65l2.196-1.65l28.857-21.689l2.72-2.044l0,0l0,0l2.72,2.044l28.857,21.689l2.197,1.65
					l2.195,1.65l3.008,2.261l4.041,3.036v0.266v75.929H615.219z M491.883,256.42h52.481v58.95h-52.481V256.42L491.883,256.42z
					 M542.57,212.592l5.482-11.324h85.265l5.481,11.324l1.6,3.303l15.328,31.662h-27.97l-33.026-24.822l-2.72-2.045l-0.335-0.252
					c-0.587-0.44-1.396-0.44-1.982,0l-0.334,0.252l-2.721,2.045l-33.025,24.822h-27.972l15.329-31.662L542.57,212.592z
					 M637.005,256.42h52.48v58.95h-52.48V256.42z M689.486,253.118h-54.329l-3.008-2.261h26.212h31.125V253.118z M684.195,215.895
					l13.405,31.662h-38.206l-15.328-31.662H684.195z M483.769,247.557l13.405-31.662h40.13l-15.33,31.662H483.769z M523.009,250.857
					h26.212l-2.509,5.086h-54.329l-0.5-5.086H523.009z M491.883,318.672h52.481v13.677h-52.481V318.672L491.883,318.672z
					 M637.005,332.349v-13.677h52.48v13.677H637.005z"/>
			</g>
			<g>
				<path fill="#010F43" d="M781.416,214.684h24.531c0.911,0,1.649-0.74,1.649-1.65v-13.169c0-0.479-0.209-0.937-0.571-1.249
					l-12.61-10.885c-0.634-0.545-1.574-0.532-2.192,0.03l-11.92,10.884c-0.342,0.313-0.537,0.756-0.537,1.22v13.169
					C779.765,213.943,780.504,214.684,781.416,214.684z M783.067,200.592l10.3-9.404l10.93,9.433v10.763h-21.229L783.067,200.592
					L783.067,200.592z"/>
				<path fill="#010F43" d="M868.455,214.684h24.531c0.912,0,1.65-0.74,1.65-1.65v-13.169c0-0.479-0.209-0.937-0.571-1.249
					l-12.611-10.885c-0.634-0.545-1.574-0.532-2.191,0.03l-11.921,10.884c-0.342,0.313-0.537,0.756-0.537,1.22v13.169
					C866.804,213.943,867.543,214.684,868.455,214.684z M870.105,200.592l10.301-9.404l10.93,9.433v10.763h-21.229L870.105,200.592
					L870.105,200.592z"/>
				<path fill="#010F43" d="M717.545,332.202c-0.911,0-1.65,0.74-1.65,1.65c0,0.911,0.739,1.65,1.65,1.65H730
					c0.206,0.092,0.432,0.146,0.671,0.146h10.14c0.239,0,0.466-0.055,0.672-0.146h24.098h9.393h37.101h97.109h18.438
					c0.204,0.092,0.431,0.146,0.67,0.146h10.14c0.239,0,0.467-0.055,0.671-0.146h8.746c0.91,0,1.65-0.739,1.65-1.65
					c0-0.91-0.74-1.65-1.65-1.65h-7.767v-29.173h8.436c0.911,0,1.651-0.738,1.651-1.649v-0.081c0-13.742-14.57-84.119-15.191-87.107
					c-0.157-0.768-0.833-1.315-1.615-1.315s-1.457,0.549-1.616,1.315c-0.619,2.988-15.189,73.365-15.189,87.107v0.081
					c0,0.911,0.738,1.649,1.65,1.649h8.436v29.173h-15.806V228.219h10.529c0.565,0,1.094-0.291,1.396-0.771
					c0.302-0.48,0.337-1.081,0.092-1.593l-24.624-51.439c-0.273-0.573-0.854-0.938-1.488-0.938h-12.46v-3.782h5.089
					c0.912,0,1.65-0.739,1.65-1.65c0-0.912-0.738-1.65-1.65-1.65h-5.089v-8.254h6.847l-0.375,2.063
					c-0.163,0.897,0.432,1.757,1.329,1.92c0.1,0.018,0.199,0.026,0.297,0.026c0.782,0,1.478-0.559,1.622-1.355l1.493-8.214
					c0.162-0.896-0.433-1.756-1.328-1.919c-0.896-0.164-1.757,0.432-1.92,1.329l-0.519,2.85h-7.446v-2.908
					c0-0.912-0.74-1.65-1.65-1.65c-0.912,0-1.651,0.738-1.651,1.65v2.908h-6.883l0.411-2.26c0.162-0.896-0.433-1.756-1.329-1.919
					c-0.896-0.164-1.756,0.432-1.919,1.329l-1.493,8.213c-0.163,0.897,0.434,1.757,1.329,1.92c0.101,0.018,0.199,0.026,0.297,0.026
					c0.782,0,1.479-0.559,1.622-1.355l0.482-2.653h7.481v4.952h-4.52c-0.911,0-1.65,0.739-1.65,1.65c0,0.912,0.739,1.651,1.65,1.651
					h4.52v7.083H778.024c-0.637,0-1.216,0.364-1.488,0.938l-24.625,51.438c-0.244,0.513-0.21,1.113,0.093,1.594
					c0.302,0.479,0.829,0.771,1.396,0.771h10.528v103.982h-21.468v-29.174h8.436c0.911,0,1.651-0.738,1.651-1.649v-0.081
					c0-13.742-14.571-84.119-15.189-87.107c-0.159-0.768-0.834-1.315-1.616-1.315s-1.458,0.549-1.616,1.315
					c-0.621,2.988-15.19,73.365-15.19,87.107v0.081c0,0.911,0.739,1.649,1.65,1.649h8.436v29.173H717.545z M933.359,222.771
					c3.734,18.445,12.698,63.715,13.455,76.957h-6.734h-3.301h-6.839h-3.302h-6.733
					C920.661,286.486,929.625,241.218,933.359,222.771z M929.94,303.029h6.839v29.173h-6.839V303.029z M895.699,176.779
					l23.044,48.139H756.02l23.045-48.139H895.699z M802.67,331.563h-18.079V296.35h18.079V331.563z M804.321,293.048h-21.38
					c-0.911,0-1.65,0.738-1.65,1.65v37.504h-4.668v-44.33h33.798v44.33h-4.449v-37.504
					C805.971,293.786,805.232,293.048,804.321,293.048z M907.532,270.096H767.231V228.32h140.301V270.096z M767.231,273.396h140.301
					v58.806h-93.811v-45.979c0-0.912-0.738-1.652-1.649-1.652h-37.101c-0.911,0-1.649,0.74-1.649,1.652v45.979h-6.092
					L767.231,273.396L767.231,273.396z M735.742,222.771c3.734,18.445,12.698,63.715,13.454,76.957h-6.734h-3.301h-6.838h-3.303
					h-6.732C723.042,286.486,732.006,241.218,735.742,222.771z M732.323,303.029h6.838v29.173h-6.838V303.029z"/>
				<path fill="#010F43" d="M822.45,313.545h4.399h23.482h4.399c0.91,0,1.65-0.739,1.65-1.65c0-0.91-0.74-1.65-1.65-1.65h-2.749
					v-22.378c0-0.911-0.74-1.65-1.65-1.65H826.85c-0.912,0-1.649,0.739-1.649,1.65v22.378h-2.75c-0.912,0-1.65,0.74-1.65,1.65
					C820.8,312.806,821.538,313.545,822.45,313.545z M840.242,310.243v-8.714h8.439v8.714H840.242z M848.682,289.516v8.715h-8.439
					v-8.715H848.682z M836.94,298.229h-8.44v-8.713h8.439L836.94,298.229L836.94,298.229z M828.5,301.529h8.439v8.714H828.5V301.529
					z"/>
				<path fill="#010F43" d="M775.604,262.926h4.399h23.482h4.398c0.912,0,1.651-0.738,1.651-1.65s-0.739-1.65-1.651-1.65h-2.748
					v-22.377c0-0.912-0.738-1.65-1.65-1.65h-23.482c-0.912,0-1.651,0.738-1.651,1.65v22.377h-2.748c-0.911,0-1.65,0.739-1.65,1.65
					C773.953,262.188,774.692,262.926,775.604,262.926z M793.395,259.624v-8.713h8.44v8.713H793.395z M801.835,238.896v8.713h-8.44
					v-8.713H801.835z M790.094,247.609h-8.439v-8.713h8.439V247.609z M781.654,250.911h8.439v8.713h-8.439V250.911z"/>
				<path fill="#010F43" d="M822.45,262.926h4.399h23.482h4.399c0.91,0,1.65-0.738,1.65-1.65s-0.74-1.65-1.65-1.65h-2.749v-22.377
					c0-0.912-0.74-1.65-1.65-1.65H826.85c-0.912,0-1.649,0.738-1.649,1.65v22.377h-2.75c-0.912,0-1.65,0.739-1.65,1.65
					C820.799,262.188,821.538,262.926,822.45,262.926z M840.242,259.624v-8.713h8.439v8.713H840.242z M848.682,238.896v8.713h-8.439
					v-8.713H848.682z M836.94,247.609h-8.44v-8.713h8.439L836.94,247.609L836.94,247.609z M828.5,250.911h8.439v8.713H828.5V250.911
					z"/>
				<path fill="#010F43" d="M867.094,262.926h4.4h23.481h4.4c0.911,0,1.65-0.738,1.65-1.65s-0.739-1.65-1.65-1.65h-2.749v-22.377
					c0-0.912-0.739-1.65-1.651-1.65h-23.481c-0.912,0-1.65,0.738-1.65,1.65v22.377h-2.75c-0.911,0-1.649,0.739-1.649,1.65
					C865.444,262.188,866.183,262.926,867.094,262.926z M884.886,259.624v-8.713h8.44v8.713H884.886z M893.327,238.896v8.713h-8.44
					v-8.713H893.327z M881.585,247.609h-8.44v-8.713h8.44V247.609z M873.145,250.911h8.44v8.713h-8.44V250.911z"/>
				<path fill="#010F43" d="M867.094,313.545h4.4h23.481h4.4c0.911,0,1.65-0.739,1.65-1.65c0-0.91-0.739-1.65-1.65-1.65h-2.749
					v-22.378c0-0.911-0.739-1.65-1.651-1.65h-23.481c-0.912,0-1.65,0.739-1.65,1.65v22.378h-2.75c-0.911,0-1.649,0.74-1.649,1.65
					C865.444,312.806,866.183,313.545,867.094,313.545z M884.886,310.243v-8.714h8.44v8.714H884.886z M893.327,289.516v8.715h-8.44
					v-8.715H893.327z M881.585,298.229h-8.44v-8.713h8.44V298.229z M873.145,301.529h8.44v8.714h-8.44V301.529z"/>
			</g>
		</g>
		<g>
			<g>
				<path fill="#010F43" d="M1882.595,331.672c-0.912,0-1.65,0.739-1.65,1.651s0.738,1.65,1.65,1.65H1921h172.131h29.852
					c0.91,0,1.65-0.738,1.65-1.65s-0.74-1.651-1.65-1.651h-28.199v-45.919c0.235-0.021,0.475-0.028,0.713-0.028
					c3.9,0,7.39,2.699,8.485,6.565c0.121,0.427,0.409,0.788,0.8,1c0.391,0.213,0.852,0.258,1.273,0.127
					c0.825-0.254,1.677-0.384,2.527-0.384c5.137,0,9.314,4.576,9.314,10.199c0,0.481,0.219,0.939,0.586,1.254
					c0.367,0.313,0.861,0.449,1.337,0.373c0.12-0.02,2.936-0.437,5.207,1.812c0.321,0.318,0.741,0.478,1.159,0.478
					c0.427,0,0.853-0.163,1.176-0.49c0.641-0.648,0.635-1.693-0.014-2.334c-2.142-2.117-4.606-2.674-6.248-2.78
					c-0.779-6.649-6.097-11.812-12.519-11.812c-0.654,0-1.308,0.056-1.953,0.164c-1.907-4.469-6.286-7.474-11.134-7.474
					c-0.239,0-0.477,0.013-0.713,0.026v-3.389h4.91c0.91,0,1.649-0.74,1.649-1.651V256.99c0-0.912-0.739-1.651-1.649-1.651h-4.91
					v-39.506h4.91c0.91,0,1.649-0.739,1.649-1.649v-20.42c0-0.912-0.739-1.65-1.649-1.65h-185.254c-0.911,0-1.65,0.738-1.65,1.65
					v20.42c0,0.91,0.739,1.649,1.65,1.649h4.91v39.506h-4.91c-0.911,0-1.65,0.739-1.65,1.651v20.419c0,0.911,0.739,1.651,1.65,1.651
					h4.91v6.586c-1.785-1.037-3.84-1.621-6.002-1.621c-4.848,0-9.227,3.006-11.134,7.474c-0.646-0.108-1.299-0.163-1.954-0.163
					c-6.422,0-11.736,5.161-12.517,11.811c-1.642,0.105-4.108,0.664-6.248,2.78c-0.647,0.643-0.654,1.688-0.014,2.334
					c0.322,0.327,0.749,0.49,1.174,0.49c0.419,0,0.839-0.159,1.161-0.477c2.271-2.247,5.088-1.829,5.192-1.813
					c0.48,0.084,0.975-0.048,1.349-0.361c0.373-0.313,0.589-0.775,0.589-1.264c0-5.624,4.178-10.199,9.313-10.199
					c0.853,0,1.703,0.129,2.528,0.385c0.423,0.131,0.884,0.084,1.273-0.127c0.391-0.213,0.68-0.574,0.801-1
					c1.095-3.867,4.584-6.566,8.484-6.566c2.285,0,4.406,0.904,6.002,2.431v41.913H1882.595z M1916.089,258.641h3.26h1.65h1.65
					h168.829h1.651h1.649h3.26v17.118h-3.26h-1.649h-1.651h-168.829H1921h-1.65h-3.26L1916.089,258.641L1916.089,258.641z
					 M1916.089,195.414h181.951v17.119h-4.166c-0.226-0.114-0.476-0.186-0.744-0.186H1921c-0.27,0-0.52,0.07-0.744,0.186h-4.166
					L1916.089,195.414L1916.089,195.414z M1922.65,215.833v-0.185h168.83v0.185v39.506h-168.83V215.833z M2091.48,279.061v4.065
					v3.591v31.794h-131.67v-29.432c0-0.911-0.738-1.649-1.65-1.649h-25.915c-0.911,0-1.65,0.738-1.65,1.649v3.979v3.733v21.719
					h-7.943v-23.899v-6.146v-9.403h168.829V279.061z M1956.509,331.386h-22.614v-9.574v-3.302v-21.273v-2.135v-4.373h22.614v27.781
					v3.302V331.386z M1959.811,331.672v-9.859h131.67v9.859H1959.811z M1922.65,321.813h7.943v9.859h-7.943V321.813z"/>
				<path fill="#010F43" d="M1969.539,310.002h5.044h19.683h5.044c0.911,0,1.65-0.739,1.65-1.65c0-0.91-0.739-1.65-1.65-1.65h-3.394
					v-18.032c0-0.911-0.738-1.649-1.65-1.649h-19.683c-0.911,0-1.65,0.738-1.65,1.649v18.032h-3.394c-0.911,0-1.65,0.739-1.65,1.65
					C1967.889,309.264,1968.627,310.002,1969.539,310.002z M1986.075,306.629v-6.715h6.54v6.786h-6.547
					C1986.068,306.676,1986.075,306.654,1986.075,306.629z M1992.615,290.32v6.294h-6.54v-6.294H1992.615z M1982.773,296.614h-6.539
					v-6.294h6.539V296.614z M1976.234,299.915h6.539v6.715c0,0.024,0.007,0.047,0.008,0.071h-6.547V299.915z"/>
				<path fill="#010F43" d="M1957.32,243.389h-3.395v-18.031c0-0.912-0.739-1.651-1.65-1.651h-19.683
					c-0.912,0-1.649,0.739-1.649,1.651v18.031h-3.395c-0.911,0-1.65,0.739-1.65,1.651c0,0.911,0.739,1.649,1.65,1.649h5.044h19.683
					h5.044c0.911,0,1.65-0.738,1.65-1.649C1958.97,244.127,1958.23,243.389,1957.32,243.389z M1944.085,243.316v-6.713h6.539v6.785
					h-6.547C1944.079,243.364,1944.085,243.341,1944.085,243.316z M1950.625,227.007v6.294h-6.539v-6.294H1950.625z
					 M1940.784,233.301h-6.54v-6.294h6.54V233.301z M1934.244,236.604h6.54v6.713c0,0.024,0.006,0.048,0.007,0.072h-6.547V236.604z"
					/>
				<path fill="#010F43" d="M1999.855,243.389h-3.394v-18.031c0-0.912-0.738-1.651-1.649-1.651h-19.684
					c-0.911,0-1.65,0.739-1.65,1.651v18.031h-3.394c-0.911,0-1.65,0.739-1.65,1.651c0,0.911,0.739,1.649,1.65,1.649h5.044h19.683
					h5.043c0.912,0,1.651-0.738,1.651-1.649C2001.506,244.127,2000.767,243.389,1999.855,243.389z M1993.162,227.007v6.294h-6.541
					v-6.294H1993.162z M1983.32,233.301h-6.54v-6.294h6.54V233.301z M1976.78,236.604h6.54v6.713c0,0.024,0.006,0.048,0.008,0.072
					h-6.548V236.604L1976.78,236.604z M1986.614,243.389c0.001-0.023,0.007-0.047,0.007-0.072v-6.713h6.541v6.785H1986.614
					L1986.614,243.389z"/>
				<path fill="#010F43" d="M2042.392,243.389H2039v-18.031c0-0.912-0.74-1.651-1.651-1.651h-19.683c-0.911,0-1.65,0.739-1.65,1.651
					v18.031h-3.393c-0.912,0-1.651,0.739-1.651,1.651c0,0.911,0.739,1.649,1.651,1.649h5.043h19.683h5.044
					c0.912,0,1.65-0.738,1.65-1.649C2044.042,244.127,2043.304,243.389,2042.392,243.389z M2035.698,227.007v6.294h-6.54v-6.294
					H2035.698z M2025.857,233.301h-6.541v-6.294h6.541V233.301z M2019.316,236.604h6.541v6.713c0,0.024,0.006,0.048,0.007,0.072
					h-6.548V236.604z M2029.15,243.389c0.002-0.023,0.008-0.047,0.008-0.072v-6.713h6.54v6.785H2029.15L2029.15,243.389z"/>
				<path fill="#010F43" d="M2084.928,243.389h-3.393v-18.031c0-0.912-0.739-1.651-1.651-1.651h-19.682
					c-0.912,0-1.651,0.739-1.651,1.651v18.031h-3.394c-0.911,0-1.649,0.739-1.649,1.651c0,0.911,0.738,1.649,1.649,1.649h5.045
					h19.682h5.044c0.912,0,1.651-0.738,1.651-1.649C2086.58,244.127,2085.84,243.389,2084.928,243.389z M2078.234,227.007v6.294
					h-6.541v-6.294H2078.234z M2068.393,233.301h-6.539v-6.294h6.539V233.301z M2061.854,236.604h6.539v6.713
					c0,0.024,0.007,0.048,0.008,0.072h-6.547V236.604z M2071.688,243.389c0-0.023,0.007-0.047,0.007-0.072v-6.713h6.54v6.785
					H2071.688L2071.688,243.389z"/>
				<path fill="#010F43" d="M2010.626,310.002h5.044h19.683h5.043c0.912,0,1.65-0.739,1.65-1.65c0-0.91-0.738-1.65-1.65-1.65h-3.393
					v-18.032c0-0.911-0.738-1.649-1.65-1.649h-19.683c-0.912,0-1.651,0.738-1.651,1.649v18.032h-3.393
					c-0.911,0-1.65,0.739-1.65,1.65C2008.976,309.264,2009.715,310.002,2010.626,310.002z M2027.162,306.629v-6.715h6.541v6.786
					h-6.548C2027.156,306.676,2027.162,306.654,2027.162,306.629z M2033.703,290.32v6.294h-6.541v-6.294H2033.703z
					 M2023.861,296.614h-6.54v-6.294h6.54V296.614z M2017.321,299.915h6.54v6.715c0,0.024,0.006,0.047,0.007,0.071h-6.547V299.915z"
					/>
				<path fill="#010F43" d="M2052.207,310.002h5.043h19.684h5.043c0.911,0,1.65-0.739,1.65-1.65c0-0.91-0.739-1.65-1.65-1.65h-3.393
					v-11.704v-3.695v-2.633c0-0.911-0.739-1.649-1.65-1.649h-19.684c-0.911,0-1.65,0.738-1.65,1.649v18.032h-3.393
					c-0.912,0-1.65,0.739-1.65,1.65C2050.557,309.264,2051.294,310.002,2052.207,310.002z M2075.282,290.32v2.875v2.738v0.681h-6.54
					v-6.294H2075.282z M2068.742,306.629v-6.715h6.54v6.786h-6.548C2068.736,306.676,2068.742,306.654,2068.742,306.629z
					 M2065.441,296.614h-6.541v-6.294h6.541V296.614z M2058.9,299.915h6.541v6.715c0,0.024,0.006,0.047,0.007,0.071h-6.548V299.915z
					"/>
			</g>
			<g>
				<path fill="#010F43" d="M2122.919,331.672c-0.912,0-1.651,0.739-1.651,1.651s0.739,1.65,1.651,1.65h96.751h25.21h98.429
					c0.912,0,1.65-0.738,1.65-1.65s-0.738-1.651-1.65-1.651h-28.996v-62.076c1.557,0.275,3.028,1.051,4.163,2.235
					c1.434,1.496,2.175,3.417,2.087,5.409c-0.024,0.613,0.289,1.189,0.819,1.498c0.53,0.308,1.187,0.297,1.707-0.028
					c1.688-1.06,4.14-0.351,4.157-0.345c0.584,0.178,1.219,0.021,1.649-0.411c1.222-1.22,3.05-1.743,4.894-1.401
					c1.738,0.322,3.104,1.34,3.75,2.79l0.031,0.068c0.138,0.272,0.225,0.582,0.315,0.909c0.172,0.613,0.367,1.308,0.938,1.877
					c0.252,0.253,0.58,0.416,0.934,0.468c2.387,0.341,5.53,1.319,6.943,4.048c0.294,0.566,0.87,0.893,1.467,0.893
					c0.256,0,0.516-0.061,0.758-0.187c0.811-0.419,1.126-1.415,0.706-2.226c-1.5-2.896-4.512-4.883-8.534-5.651l-0.032-0.115
					c-0.115-0.409-0.259-0.917-0.523-1.458c-1.083-2.406-3.379-4.146-6.148-4.662c-2.587-0.479-5.187,0.147-7.128,1.688
					c-0.853-0.146-2.182-0.271-3.578,0.006c-0.387-2.016-1.363-3.925-2.826-5.452c-1.758-1.835-4.093-2.997-6.547-3.294v-18.332
					h8.439c0.548,0,1.062-0.273,1.367-0.729c0.307-0.455,0.367-1.032,0.161-1.541l-25.455-62.92c-0.252-0.623-0.856-1.03-1.53-1.03
					h-128.365c-0.672,0-1.276,0.407-1.529,1.03l-25.455,62.92c-0.206,0.509-0.146,1.086,0.162,1.541
					c0.307,0.455,0.818,0.729,1.367,0.729h8.439v18.363c-2.369,0.341-4.613,1.486-6.314,3.264c-1.463,1.527-2.439,3.436-2.826,5.452
					c-1.398-0.276-2.728-0.153-3.579-0.006c-1.941-1.54-4.54-2.167-7.128-1.687c-2.771,0.514-5.065,2.256-6.148,4.661
					c-0.266,0.542-0.408,1.05-0.522,1.458l-0.033,0.115c-4.022,0.77-7.034,2.756-8.535,5.652c-0.419,0.81-0.103,1.806,0.707,2.225
					c0.242,0.126,0.502,0.186,0.759,0.186c0.597,0,1.173-0.324,1.467-0.892c1.414-2.728,4.556-3.707,6.943-4.048
					c0.354-0.051,0.682-0.215,0.934-0.467c0.57-0.57,0.766-1.266,0.938-1.879c0.093-0.326,0.18-0.635,0.315-0.908l0.032-0.068
					c0.645-1.449,2.012-2.468,3.75-2.79c1.844-0.342,3.674,0.183,4.893,1.401c0.432,0.432,1.066,0.589,1.65,0.411
					c0.629-0.193,2.742-0.542,4.156,0.345c0.521,0.326,1.178,0.337,1.707,0.027c0.53-0.309,0.847-0.885,0.818-1.497
					c-0.086-1.992,0.655-3.913,2.09-5.409c1.076-1.125,2.459-1.889,3.931-2.199v62.04L2122.919,331.672L2122.919,331.672z
					 M2296.184,185.002l24.119,59.618h-7.813l-30.747-27.433c-0.634-0.563-1.591-0.558-2.216,0.017l-29.85,27.416h-33.166
					l-30.748-27.433c-0.633-0.563-1.591-0.558-2.215,0.017l-29.851,27.416h-7.775l24.12-59.618H2296.184z M2155.216,328.899v-3.302
					v-5.708h54.699v5.708v3.302v2.556h-54.699V328.899z M2311.011,325.598v3.302v2.556h-54.698v-2.556v-3.302v-5.708h54.698V325.598
					z M2213.217,319.891v-3.301v-26.003c0-3.167,0.664-6.136,1.815-8.688c0.473-1.047,1.024-2.024,1.649-2.916
					c0.506-0.721,1.061-1.381,1.651-1.981c2.25-2.284,5.077-3.649,8.148-3.649h13.261c3.07,0,5.898,1.365,8.149,3.649
					c0.592,0.601,1.146,1.261,1.649,1.981c0.627,0.891,1.18,1.869,1.651,2.916c1.151,2.554,1.815,5.521,1.815,8.688v26.003v3.301
					v5.708v3.302v2.556v0.106h-3.468h-1.649h-1.363v-2.663v-3.302v-5.708v-3.301v-22.19c0.512-0.279,0.862-0.816,0.862-1.44v-1.222
					c0-8.336-6.782-15.117-15.118-15.117c-6.265,0-11.65,3.83-13.939,9.271c-0.759,1.799-1.178,3.773-1.178,5.846v1.222
					c0,0.624,0.352,1.161,0.861,1.44v22.19v3.301v5.708v3.302v2.663h-1.336h-3.466v-0.106V328.9v-3.302v-5.708H2213.217z
					 M2218.334,247.922h29.561v24.794c-2.408-1.694-5.188-2.667-8.15-2.667h-13.26c-2.962,0-5.741,0.973-8.149,2.667
					L2218.334,247.922L2218.334,247.922z M2220.466,291.307c0.228-6.317,5.438-11.387,11.81-11.387s11.583,5.069,11.81,11.387
					H2220.466z M2221.321,328.899v-3.302v-5.708v-3.301v-21.981h21.909v21.981v3.301v5.708v3.302v2.663h-21.909V328.899z
					 M2311.011,316.589h-54.698v-26.003c0-5.82-1.968-11.081-5.116-14.82v-27.844v-0.211l1.565-1.439l1.797-1.649l26.103-23.974
					l26.872,23.974l1.85,1.649l1.629,1.453v0.198L2311.011,316.589L2311.011,316.589z M2155.216,247.71l1.567-1.438l1.797-1.65
					l26.102-23.975l26.873,23.975l1.85,1.65l1.629,1.453v0.197v27.844c-3.148,3.74-5.117,9-5.117,14.821v26.003h-54.699v-68.667
					L2155.216,247.71L2155.216,247.71z"/>
				<path fill="#010F43" d="M2176.291,263.436h17.669c0.912,0,1.649-0.738,1.649-1.65v-13.863v-0.789
					c0-0.31-0.095-0.604-0.254-0.861c-0.089-0.145-0.19-0.279-0.321-0.392l-1.47-1.259l-7.582-6.498
					c-0.629-0.54-1.562-0.529-2.178,0.025l-7.189,6.473l-1.43,1.285c-0.117,0.105-0.211,0.232-0.293,0.365
					c-0.159,0.258-0.254,0.553-0.254,0.861v0.789v13.863C2174.639,262.697,2175.378,263.436,2176.291,263.436z M2177.941,247.868
					l1.773-1.597l1.834-1.65l3.387-3.048l3.557,3.048l1.926,1.65l1.892,1.621v0.029v12.212h-14.368v-12.212V247.868
					L2177.941,247.868z"/>
				<path fill="#010F43" d="M2168.477,305.669h3.604h26.091h3.604c0.911,0,1.649-0.739,1.649-1.651s-0.738-1.65-1.649-1.65h-1.952
					v-25.93c0-0.912-0.739-1.651-1.65-1.651H2185h-12.921c-0.911,0-1.649,0.739-1.649,1.651v25.93h-1.952
					c-0.912,0-1.65,0.738-1.65,1.65S2167.564,305.669,2168.477,305.669z M2196.52,278.088v10.458h-9.868v-10.458H2196.52z
					 M2186.65,302.368v-10.521h9.868v10.521H2186.65z M2183.35,288.546h-9.618v-10.458h9.618V288.546z M2173.73,291.848h9.619
					v10.521h-9.619V291.848z"/>
				<path fill="#010F43" d="M2272.268,263.436h17.67c0.911,0,1.65-0.738,1.65-1.65v-13.863v-0.789c0-0.31-0.095-0.604-0.254-0.861
					c-0.089-0.145-0.191-0.279-0.322-0.392l-1.47-1.259l-7.581-6.498c-0.629-0.54-1.563-0.529-2.178,0.025l-7.19,6.473l-1.429,1.285
					c-0.118,0.105-0.212,0.232-0.294,0.365c-0.159,0.258-0.253,0.553-0.253,0.861v0.789v13.863
					C2270.618,262.697,2271.357,263.436,2272.268,263.436z M2273.919,247.868l1.774-1.597l1.834-1.65l3.387-3.048l3.556,3.048
					l1.926,1.65l1.893,1.621v0.029v12.212h-14.368v-12.212L2273.919,247.868L2273.919,247.868z"/>
				<path fill="#010F43" d="M2297.751,302.368h-1.952v-25.931c0-0.912-0.738-1.65-1.65-1.65h-13.169h-12.921
					c-0.911,0-1.65,0.738-1.65,1.65v25.931h-1.951c-0.912,0-1.65,0.739-1.65,1.651s0.738,1.65,1.65,1.65h3.603h26.09h3.604
					c0.91,0,1.649-0.738,1.649-1.65S2298.663,302.368,2297.751,302.368z M2269.709,302.368v-10.521h9.619v10.521H2269.709z
					 M2292.498,278.088v10.458h-9.868v-10.458H2292.498z M2279.329,288.546h-9.619v-10.458h9.619V288.546z M2282.629,302.368
					v-10.521h9.868v10.521H2282.629z"/>
			</g>
			<g>
				<path fill="#010F43" d="M2345.12,331.672c-0.911,0-1.649,0.739-1.649,1.651s0.738,1.65,1.649,1.65h116.634h32.068h65.13
					c0.911,0,1.649-0.738,1.649-1.65s-0.738-1.651-1.649-1.651h-14.499v-30.486h8.436c0.912,0,1.65-0.738,1.65-1.649v-0.081
					c0-13.741-14.569-84.119-15.189-87.107c-0.158-0.767-0.834-1.315-1.615-1.315c-0.782,0-1.457,0.549-1.616,1.315
					c-0.62,2.988-15.19,73.366-15.19,87.135v0.055c0,0.911,0.739,1.65,1.651,1.65h8.435v30.485h-25.813v-18.26
					c0.008-0.066,0.021-0.132,0.021-0.201s-0.014-0.134-0.021-0.201v-76.47l18.686,0.004l0,0c0.673,0,1.276-0.406,1.529-1.029
					s0.104-1.336-0.379-1.805l-71.594-69.575c-0.64-0.621-1.656-0.623-2.297-0.004l-72.104,69.544
					c-0.483,0.467-0.636,1.182-0.385,1.807c0.252,0.625,0.856,1.033,1.53,1.033l18.687,0.004v76.217
					c-0.047,0.151-0.077,0.31-0.077,0.477s0.03,0.325,0.077,0.478v17.982h-28.913V302.13h8.437c0.911,0,1.649-0.739,1.649-1.651
					v-0.08c0-13.741-14.57-84.119-15.189-87.108c-0.159-0.767-0.834-1.315-1.616-1.315s-1.457,0.549-1.615,1.315
					c-0.621,2.989-15.189,73.367-15.189,87.135v0.054c0,0.912,0.737,1.651,1.649,1.651h8.437v29.543L2345.12,331.672
					L2345.12,331.672z M2537.732,220.928c3.735,18.445,12.698,63.715,13.455,76.956h-6.734h-3.301h-6.838h-3.303h-6.732
					C2525.035,284.645,2533.998,239.374,2537.732,220.928z M2541.152,301.186v29.318h-6.838v-29.318H2541.152z M2402.173,236.52
					v-0.023l3.397-3.277l46.654-44.998l46.323,45.019l3.35,3.254v0.048v75.021h-6.425v-32.474c0-0.911-0.739-1.649-1.651-1.649
					h-32.068c-0.912,0-1.649,0.738-1.649,1.649v32.474h-57.93L2402.173,236.52L2402.173,236.52z M2402.173,314.862h57.931v16.795
					h-57.931V314.862z M2463.404,331.672v-0.015v-16.795v-3.302v-30.822h28.768v30.822v3.302v16.795v0.015H2463.404z
					 M2501.898,331.658h-6.426v-16.795h6.426V331.658z M2384.275,233.214l68.012-65.598l67.529,65.626l-16.529-0.004l-49.906-48.5
					c-0.641-0.621-1.656-0.622-2.297-0.004l-50.268,48.481L2384.275,233.214z M2363.239,221.872
					c3.735,18.444,12.698,63.715,13.454,76.956h-6.733h-3.302h-6.838h-3.301h-6.733
					C2350.541,285.586,2359.504,240.316,2363.239,221.872z M2366.658,302.129v29.318h-6.838v-29.318H2366.658z"/>
				<path fill="#010F43" d="M2443.487,225.611h17.098c0.911,0,1.649-0.739,1.649-1.651v-14.216c0-0.473-0.201-0.922-0.555-1.235
					l-8.518-7.556c-0.623-0.553-1.562-0.555-2.188-0.004l-8.58,7.556c-0.354,0.313-0.56,0.765-0.56,1.239v14.216
					C2441.836,224.873,2442.576,225.611,2443.487,225.611z M2445.137,210.491l6.928-6.101l6.869,6.096v11.824h-13.797V210.491z"/>
				<path fill="#010F43" d="M2411.561,260.549h3.631h21.165h3.632c0.911,0,1.65-0.738,1.65-1.65s-0.739-1.65-1.65-1.65h-1.98v-19.1
					c0-0.813-0.59-1.485-1.364-1.621c-0.093-0.018-0.188-0.029-0.286-0.029h-21.165c-0.083,0-0.162,0.013-0.242,0.023
					c-0.796,0.117-1.407,0.797-1.407,1.627v19.1h-1.98c-0.912,0-1.65,0.738-1.65,1.65
					C2409.909,259.811,2410.648,260.549,2411.561,260.549z M2434.706,245.386h-17.864v-5.587h17.864V245.386z M2416.841,248.688
					h17.864v8.561h-17.864V248.688z"/>
				<path fill="#010F43" d="M2464.708,260.549h21.166h3.632c0.911,0,1.65-0.738,1.65-1.65s-0.739-1.65-1.65-1.65h-1.98v-19.1
					c0-0.791-0.557-1.45-1.299-1.611c-0.113-0.023-0.23-0.039-0.353-0.039h-21.166c-0.115,0-0.228,0.012-0.336,0.035
					c-0.75,0.156-1.313,0.82-1.313,1.615v19.101h-1.98c-0.911,0-1.65,0.739-1.65,1.651c0,0.91,0.739,1.649,1.65,1.649
					L2464.708,260.549L2464.708,260.549z M2484.225,245.386h-17.864v-5.587h17.864V245.386z M2466.36,248.688h17.864v8.561h-17.864
					V248.688z"/>
				<path fill="#010F43" d="M2451.958,302.05h-1.749v-23.03c0-0.912-0.739-1.65-1.65-1.65h-37.257c-0.911,0-1.649,0.738-1.649,1.65
					v23.03h-1.749c-0.911,0-1.65,0.739-1.65,1.651s0.739,1.65,1.65,1.65h44.056c0.911,0,1.65-0.738,1.65-1.65
					S2452.869,302.05,2451.958,302.05z M2412.952,293.404h14.847v8.488h-14.847V293.404z M2431.1,293.404h15.809v8.488H2431.1
					V293.404z M2446.908,290.104h-15.81v-9.433h15.81V290.104z M2412.952,280.671h14.847v9.433h-14.847V280.671z"/>
				<path fill="#010F43" d="M2487.613,283.5h-19.729c-0.912,0-1.649,0.739-1.649,1.65v18.394c0,0.912,0.738,1.649,1.649,1.649
					h19.729c0.91,0,1.649-0.738,1.649-1.649V285.15C2489.263,284.24,2488.523,283.5,2487.613,283.5z M2469.535,286.802h6.445v15.091
					h-6.445V286.802z M2485.962,301.893h-6.682v-15.091h6.682V301.893z"/>
				<path fill="#010F43" d="M2487.613,309.282h-19.729c-0.912,0-1.649,0.739-1.649,1.65v0.628v3.302v13.048
					c0,0.912,0.738,1.65,1.649,1.65h19.729c0.91,0,1.649-0.738,1.649-1.65v-13.048v-3.302v-0.628
					C2489.263,310.021,2488.523,309.282,2487.613,309.282z M2469.535,314.862v-2.279h6.131v2.279v11.396h-6.131V314.862z
					 M2485.962,326.259h-6.996v-11.396v-2.279h6.996v2.279V326.259z"/>
			</g>
			<g>
				<path fill="#010F43" d="M2604.258,254.523h30.15c0.91,0,1.649-0.738,1.649-1.649v-9.908c0-0.911-0.739-1.649-1.649-1.649h-30.15
					c-0.91,0-1.649,0.738-1.649,1.649v9.908C2602.607,253.785,2603.347,254.523,2604.258,254.523z M2632.757,251.223h-11.624v-6.606
					h11.624V251.223z M2605.909,244.616h11.924v6.606h-11.924V244.616z"/>
				<path fill="#010F43" d="M2647.148,254.523h30.148c0.912,0,1.65-0.738,1.65-1.649v-9.908c0-0.911-0.738-1.649-1.65-1.649h-30.148
					c-0.912,0-1.651,0.738-1.651,1.649v9.908C2645.497,253.785,2646.236,254.523,2647.148,254.523z M2675.646,251.223h-11.623
					v-6.606h11.623V251.223z M2648.798,244.616h11.923v6.606h-11.923V244.616z"/>
				<path fill="#010F43" d="M2690.038,254.523h30.147c0.912,0,1.651-0.738,1.651-1.649v-9.908c0-0.911-0.739-1.649-1.651-1.649
					h-30.147c-0.912,0-1.649,0.738-1.649,1.649v9.908C2688.387,253.785,2689.125,254.523,2690.038,254.523z M2718.536,251.223
					h-11.624v-6.606h11.624V251.223z M2691.688,244.616h11.923v6.606h-11.923V244.616z"/>
				<path fill="#010F43" d="M2718.564,294.465h-2.182v-25.979c0-0.91-0.738-1.649-1.649-1.649h-43.702
					c-0.911,0-1.65,0.739-1.65,1.649v25.979h-2.181c-0.912,0-1.65,0.739-1.65,1.651c0,0.911,0.739,1.651,1.65,1.651h3.48
					c0.112,0.023,0.229,0.039,0.351,0.039h43.702c0.121,0,0.237-0.016,0.353-0.039h3.479c0.911,0,1.649-0.74,1.649-1.651
					C2720.215,295.204,2719.477,294.465,2718.564,294.465z M2713.083,280.2h-40.399v-10.062h40.399V280.2z M2672.682,283.5h40.4
					v10.965h-40.4V283.5z"/>
				<path fill="#010F43" d="M2579.01,278.744c-0.568-0.129-1.15-0.195-1.733-0.195c-1.838,0-3.625,0.654-5.035,1.821
					c-1.533-0.29-3.098-0.206-4.575,0.233c-1.808-1.192-3.888-1.818-6.07-1.818c-5.277,0-9.849,3.755-10.869,8.929
					c-0.177,0.896,0.404,1.763,1.3,1.938c0.107,0.021,0.216,0.031,0.321,0.031c0.771,0,1.461-0.545,1.616-1.332
					c0.718-3.631,3.927-6.267,7.632-6.267c1.748,0,3.401,0.573,4.786,1.657c0.466,0.363,1.088,0.451,1.636,0.23
					c1.349-0.543,2.819-0.623,4.24-0.209c0.598,0.176,1.241,0,1.667-0.455c0.884-0.941,2.072-1.459,3.353-1.459
					c0.744,0,1.458,0.176,2.122,0.521c0.467,0.244,1.021,0.25,1.493,0.018c0.473-0.234,0.805-0.678,0.896-1.197
					c0.742-4.24,4.166-7.407,8.354-7.91v58.39h-35.235c-0.912,0-1.651,0.739-1.651,1.651s0.739,1.65,1.651,1.65h36.886h140.061
					h36.887c0.91,0,1.65-0.738,1.65-1.65s-0.74-1.651-1.65-1.651h-35.235v-58.435c4.367,0.344,7.985,3.58,8.75,7.955
					c0.091,0.519,0.424,0.963,0.896,1.195c0.475,0.233,1.027,0.227,1.494-0.017c0.664-0.347,1.378-0.522,2.122-0.522
					c1.278,0,2.47,0.519,3.352,1.459c0.425,0.455,1.069,0.631,1.667,0.457c1.423-0.416,2.895-0.336,4.242,0.207
					c0.545,0.221,1.168,0.133,1.635-0.23c1.384-1.083,3.039-1.656,4.785-1.656c3.707,0,6.916,2.635,7.632,6.268
					c0.155,0.787,0.845,1.332,1.616,1.332c0.106,0,0.215-0.011,0.321-0.031c0.896-0.176,1.478-1.045,1.302-1.939
					c-1.021-5.174-5.593-8.929-10.871-8.929c-2.183,0-4.264,0.626-6.07,1.817c-1.476-0.438-3.04-0.523-4.575-0.232
					c-1.409-1.167-3.196-1.821-5.034-1.821c-0.584,0-1.166,0.066-1.733,0.195c-1.66-4.981-6.201-8.498-11.527-8.81v-34.781h11.361
					c0.565,0,1.095-0.293,1.396-0.772c0.303-0.479,0.336-1.082,0.092-1.593l-24.35-50.682c-0.275-0.571-0.854-0.936-1.487-0.936
					h-18.063v-3.322h5.089c0.912,0,1.65-0.738,1.65-1.65c0-0.912-0.738-1.65-1.65-1.65h-5.089v-8.253h6.847l-0.375,2.063
					c-0.163,0.897,0.434,1.756,1.329,1.919c0.101,0.019,0.199,0.027,0.297,0.027c0.783,0,1.479-0.559,1.622-1.355l1.493-8.215
					c0.163-0.896-0.432-1.756-1.329-1.919s-1.756,0.432-1.919,1.329l-0.519,2.85h-7.446v-2.908c0-0.912-0.739-1.65-1.65-1.65
					s-1.65,0.738-1.65,1.65v2.908h-6.884l0.411-2.26c0.163-0.896-0.433-1.756-1.329-1.919c-0.896-0.163-1.756,0.432-1.919,1.329
					l-1.493,8.214c-0.162,0.897,0.433,1.756,1.33,1.919c0.1,0.019,0.198,0.027,0.297,0.027c0.781,0,1.478-0.559,1.622-1.355
					l0.481-2.653h7.482v4.951h-4.52c-0.91,0-1.65,0.739-1.65,1.651s0.74,1.651,1.65,1.651h4.52v6.623h-96.022
					c-0.635,0-1.213,0.364-1.487,0.936l-24.349,50.682c-0.245,0.511-0.212,1.113,0.091,1.593c0.303,0.481,0.83,0.772,1.396,0.772
					h11.361v34.806C2584.987,270.417,2580.629,273.885,2579.01,278.744z M2719.477,184.473l22.763,47.379h-160.834l22.762-47.379
					H2719.477z M2730.201,305.43h-82.059v-35.785c0-0.912-0.738-1.65-1.649-1.65h-40.32c-0.911,0-1.649,0.738-1.649,1.65v35.785
					h-11.08v-70.195h136.759L2730.201,305.43L2730.201,305.43z M2644.842,305.43v3.303v22.926h-37.019v-22.926v-3.303v-34.135
					h37.019V305.43z M2593.443,308.732h11.079v22.939h-11.079V308.732z M2648.143,331.672v-22.939h82.059v22.939H2648.143z"/>
				<ellipse fill="#010F43" cx="2614.645" cy="302.143" rx="3.075" ry="3.115"/>
				<path fill="#010F43" d="M2612.327,295.217h11.543c0.912,0,1.649-0.738,1.649-1.65v-18.922c0-0.912-0.738-1.65-1.649-1.65
					h-11.543c-0.911,0-1.65,0.738-1.65,1.65v18.922C2610.676,294.479,2611.416,295.217,2612.327,295.217z M2613.979,276.295h8.24
					v15.621h-8.24V276.295z"/>
				<path fill="#010F43" d="M2629.186,295.217h11.543c0.91,0,1.65-0.738,1.65-1.65v-18.922c0-0.912-0.74-1.65-1.65-1.65h-11.543
					c-0.912,0-1.65,0.738-1.65,1.65v18.922C2627.535,294.479,2628.273,295.217,2629.186,295.217z M2630.836,276.295h8.241v15.621
					h-8.241V276.295z"/>
				<path fill="#010F43" d="M2612.327,330.215h11.543c0.912,0,1.649-0.738,1.649-1.649v-18.923c0-0.337-0.102-0.649-0.274-0.91
					c-0.295-0.445-0.802-0.74-1.375-0.74h-11.543c-0.574,0-1.078,0.294-1.374,0.74c-0.174,0.261-0.276,0.573-0.276,0.91v18.923
					C2610.676,329.477,2611.416,330.215,2612.327,330.215z M2622.219,326.915h-8.24v-15.621h8.24V326.915z"/>
				<path fill="#010F43" d="M2629.186,330.215h11.543c0.91,0,1.65-0.738,1.65-1.649v-18.923c0-0.337-0.104-0.649-0.275-0.91
					c-0.297-0.445-0.801-0.74-1.375-0.74h-11.543c-0.573,0-1.078,0.294-1.375,0.74c-0.174,0.261-0.275,0.573-0.275,0.91v18.923
					C2627.535,329.477,2628.273,330.215,2629.186,330.215z M2639.078,326.915h-8.241v-15.621h8.241V326.915z"/>
			</g>
		</g>
		<g>
			<g>
				<path fill="#010F43" d="M1219.491,262.693h29.982c0.912,0,1.65-0.739,1.65-1.651v-26.005c0-0.912-0.739-1.651-1.65-1.651
					h-29.982c-0.912,0-1.65,0.739-1.65,1.651v26.005C1217.841,261.955,1218.58,262.693,1219.491,262.693z M1247.824,259.393h-26.683
					v-5.496h26.683V259.393z M1247.824,250.596h-11.69v-13.908h11.69V250.596z M1221.142,236.688h11.69v13.91h-11.69V236.688z"/>
				<path fill="#010F43" d="M1319.396,262.693h29.983c0.912,0,1.65-0.739,1.65-1.651v-26.005c0-0.912-0.739-1.651-1.65-1.651
					h-29.983c-0.911,0-1.65,0.739-1.65,1.651v26.005C1317.746,261.955,1318.485,262.693,1319.396,262.693z M1347.729,259.393
					h-26.682v-5.496h26.682V259.393z M1347.729,250.596h-11.689v-13.908h11.689V250.596z M1321.047,236.688h11.69v13.91h-11.69
					V236.688z"/>
				<path fill="#010F43" d="M1372.762,334.974h37.32c0.912,0,1.65-0.738,1.65-1.65s-0.738-1.651-1.65-1.651h-35.67V294.85
					c0-0.91-0.739-1.649-1.65-1.649h-10.912v-30.942c0.003-0.003,0.008-0.004,0.012-0.007c2.432-1.79,5.317-2.739,8.35-2.744
					c0.718,0,1.352-0.466,1.57-1.149c1.195-3.756,4.57-6.278,8.397-6.278c3.9,0,7.39,2.7,8.485,6.565c0.121,0.428,0.408,0.789,0.8,1
					c0.391,0.213,0.85,0.258,1.274,0.127c0.824-0.254,1.676-0.383,2.526-0.383c5.136,0,9.314,4.574,9.314,10.197
					c0,0.482,0.218,0.939,0.585,1.254s0.861,0.449,1.337,0.374c0.12-0.019,2.936-0.437,5.208,1.812
					c0.322,0.318,0.74,0.477,1.161,0.477c0.425,0,0.851-0.164,1.173-0.49c0.641-0.647,0.635-1.693-0.014-2.334
					c-2.141-2.117-4.605-2.675-6.248-2.779c-0.779-6.649-6.096-11.812-12.518-11.812c-0.654,0-1.307,0.056-1.954,0.164
					c-1.907-4.469-6.286-7.474-11.133-7.474c-4.881,0-9.221,2.957-11.133,7.469c-2.544,0.17-4.983,0.891-7.196,2.107v-33.108h25.441
					c0.566,0,1.094-0.291,1.396-0.771s0.337-1.082,0.092-1.593l-4.938-10.321c-0.274-0.572-0.854-0.938-1.489-0.938h-4.292
					l-19.554-45.321c-0.261-0.604-0.856-0.996-1.516-0.996h-144.228c-0.659,0-1.255,0.392-1.516,0.996l-19.555,45.321h-4.291
					c-0.636,0-1.215,0.365-1.488,0.938l-4.938,10.321c-0.245,0.511-0.21,1.113,0.093,1.593s0.829,0.771,1.396,0.771h25.439v56.715
					c-2.336-1.144-4.897-1.747-7.552-1.761c-3.866-3.655-8.895-5.66-14.239-5.66c-11.441,0-20.75,9.309-20.75,20.75
					c-2.659,0-5.264,0.723-7.532,2.089c-0.781,0.47-1.033,1.485-0.563,2.265c0.311,0.516,0.856,0.799,1.416,0.799
					c0.291,0,0.583-0.075,0.851-0.236c1.755-1.057,3.771-1.616,5.829-1.616c0.489,0,1,0.035,1.518,0.104
					c0.498,0.066,1-0.098,1.36-0.445c0.363-0.348,0.547-0.842,0.501-1.342c-0.053-0.568-0.077-1.098-0.077-1.618
					c0-9.621,7.827-17.449,17.448-17.449c4.697,0,9.104,1.841,12.408,5.185c0.325,0.328,0.765,0.506,1.232,0.488l0.062-0.003
					c0.148-0.005,0.296-0.011,0.446-0.011c2.742,0,5.364,0.779,7.643,2.25v7.45h-10.912c-0.911,0-1.649,0.739-1.649,1.649v36.822
					h-35.67c-0.911,0-1.65,0.739-1.65,1.651s0.739,1.65,1.65,1.65h37.319h175.772V334.974z M1198.645,296.501h9.261h3.302h54.864
					h0.429v1.201v1.08v2.221v30.67h-67.855V296.501L1198.645,296.501z M1222.99,276.768h8.478V293.2h-8.478V276.768z
					 M1303.684,276.768h8.708V293.2h-8.708V276.768z M1269.801,296.501h30.43v1.201v1.629v0.409h-30.43v-0.409v-1.629V296.501z
					 M1300.23,306.165h-30.43v-3.124h30.43V306.165z M1300.23,312.589h-30.43v-3.124h30.43V312.589z M1269.801,315.89h30.43v3.124
					h-30.43V315.89z M1269.801,322.315h30.43v3.124h-30.43V322.315z M1269.801,331.672v-2.932h30.43v2.932H1269.801z
					 M1371.111,331.672h-67.579v-30.67v-2.639v-0.662V296.5h0.151h54.864h3.301h9.262L1371.111,331.672L1371.111,331.672z
					 M1347.729,293.2h-8.478v-16.433h8.478V293.2z M1335.95,293.2h-8.479v-16.433h8.479V293.2z M1324.171,293.2h-8.478v-16.433
					h8.478V293.2z M1300.382,293.2h-31.011v-41.138h31.011V293.2z M1266.071,293.2h-7.743v-16.433h7.743V293.2z M1255.027,293.2
					h-8.479v-16.433h8.479V293.2z M1243.248,293.2h-8.479v-16.433h8.479V293.2z M1351.031,293.2v-16.433h7.518V293.2H1351.031z
					 M1213.849,168.605h142.057l18.56,43.017H1195.29L1213.849,168.605z M1185.084,221.943l3.359-7.021h4.337h184.194h4.338
					l3.357,7.021h-24.472h-150.644H1185.084z M1358.548,225.244v48.222h-54.864v-23.055c0-0.912-0.738-1.651-1.65-1.651h-34.313
					c-0.911,0-1.649,0.739-1.649,1.651v23.055h-54.864v-14.008c0.072-0.274,0.068-0.558,0-0.828v-33.385L1358.548,225.244
					L1358.548,225.244z M1211.207,276.768h8.482V293.2h-8.482V276.768z"/>
			</g>
			<g>
				<path fill="#010F43" d="M1519.993,264.216h-30.15c-0.911,0-1.649,0.739-1.649,1.651v7.523c0,0.911,0.738,1.649,1.649,1.649
					h30.15c0.912,0,1.649-0.739,1.649-1.649v-7.523C1521.643,264.955,1520.904,264.216,1519.993,264.216z M1491.494,267.518h11.923
					v4.222h-11.923V267.518z M1518.342,271.739h-11.625v-4.222h11.625V271.739z"/>
				<path fill="#010F43" d="M1531.08,265.867v7.523c0,0.911,0.74,1.649,1.652,1.649h30.147c0.912,0,1.65-0.739,1.65-1.649v-7.523
					c0-0.912-0.738-1.651-1.65-1.651h-30.147C1531.82,264.216,1531.08,264.955,1531.08,265.867z M1561.23,271.739h-11.623v-4.222
					h11.623V271.739z M1534.382,267.518h11.922v4.222h-11.922V267.518z"/>
				<path fill="#010F43" d="M1575.621,275.041h30.147c0.912,0,1.65-0.739,1.65-1.65v-7.522c0-0.912-0.738-1.651-1.65-1.651h-30.147
					c-0.912,0-1.65,0.739-1.65,1.651v7.522C1573.97,274.302,1574.708,275.041,1575.621,275.041z M1604.119,271.739h-11.623v-4.222
					h11.623V271.739z M1577.271,267.518h11.922v4.222h-11.922V267.518z"/>
				<path fill="#010F43" d="M1518.398,308.028h-1.975v-25.464c0-0.912-0.739-1.65-1.65-1.65h-19.647c-0.912,0-1.65,0.738-1.65,1.65
					v25.464h-1.975c-0.912,0-1.65,0.738-1.65,1.65s0.738,1.651,1.65,1.651h3.625h19.647h3.625c0.911,0,1.65-0.739,1.65-1.651
					S1519.311,308.028,1518.398,308.028z M1496.776,284.214h16.347v12.114h-16.347V284.214z M1496.776,308.028v-8.398h16.347v8.398
					H1496.776z"/>
				<path fill="#010F43" d="M1602.816,308.028h-1.976v-25.464c0-0.912-0.739-1.65-1.651-1.65h-19.646
					c-0.912,0-1.652,0.738-1.652,1.65v25.464h-1.973c-0.912,0-1.65,0.738-1.65,1.65s0.738,1.651,1.65,1.651h3.625h19.646h3.627
					c0.91,0,1.649-0.739,1.649-1.651S1603.726,308.028,1602.816,308.028z M1581.193,284.214h16.346v12.114h-16.346V284.214z
					 M1581.193,308.028v-8.398h16.346v8.398H1581.193z"/>
				<path fill="#010F43" d="M1420.846,334.974h51.012h144.405h25.025c0.91,0,1.649-0.738,1.649-1.65s-0.739-1.651-1.649-1.651
					h-23.375v-33.287c0.221,0.055,0.442,0.118,0.662,0.198c0.44,0.162,0.93,0.129,1.344-0.092c0.414-0.222,0.715-0.607,0.828-1.063
					c0.885-3.593,2.795-5.197,6.192-5.197h0.05c3.055,0.014,6.663,1.326,7.635,4.968c0.19,0.719,0.84,1.221,1.584,1.226
					c2.479,0.016,4.852,0.948,6.854,2.694c0.313,0.272,0.699,0.407,1.084,0.407c0.462,0,0.918-0.191,1.244-0.566
					c0.601-0.688,0.529-1.729-0.157-2.329c-2.289-1.997-4.97-3.176-7.813-3.448c-1.318-3.187-4.603-6.228-10.416-6.255h-0.062
					c-4.36,0-7.411,2.104-8.909,6.109c-0.039-0.007-0.08-0.009-0.119-0.015v-34.994h3.653c0.562,0,1.084-0.285,1.388-0.758
					c0.305-0.472,0.348-1.064,0.114-1.576l-19.045-41.862c-0.268-0.589-0.854-0.967-1.502-0.967h-22.698v-2.691h5.09
					c0.91,0,1.649-0.737,1.649-1.649s-0.739-1.65-1.649-1.65h-5.09v-8.253h6.848l-0.375,2.063c-0.164,0.896,0.432,1.756,1.328,1.918
					c0.1,0.02,0.199,0.027,0.297,0.027c0.783,0,1.478-0.559,1.623-1.355l1.492-8.213c0.164-0.897-0.433-1.756-1.328-1.92
					c-0.896-0.164-1.756,0.432-1.92,1.328l-0.519,2.85h-7.446v-2.907c0-0.911-0.738-1.649-1.65-1.649c-0.91,0-1.65,0.738-1.65,1.649
					v2.907h-6.883l0.41-2.258c0.164-0.897-0.432-1.756-1.328-1.92c-0.896-0.164-1.756,0.432-1.92,1.328l-1.492,8.215
					c-0.164,0.896,0.433,1.756,1.328,1.918c0.101,0.02,0.199,0.027,0.297,0.027c0.783,0,1.478-0.559,1.623-1.355l0.482-2.652h7.481
					v4.952h-4.52c-0.912,0-1.65,0.739-1.65,1.651c0,0.91,0.738,1.649,1.65,1.649h4.52v5.992h-77.839
					c-0.646,0-1.233,0.378-1.502,0.967l-6.596,14.499h-72.224c-0.647,0-1.234,0.378-1.502,0.967l-12.01,26.396
					c-0.231,0.512-0.188,1.105,0.114,1.578c0.304,0.472,0.827,0.758,1.388,0.758h4.55v34.062c-1.607-3.388-4.503-5.163-8.505-5.163
					h-0.063c-5.813,0.026-9.097,3.067-10.414,6.254c-2.844,0.272-5.523,1.451-7.813,3.448c-0.688,0.599-0.759,1.642-0.159,2.329
					c0.327,0.375,0.785,0.566,1.245,0.566c0.385,0,0.771-0.135,1.084-0.407c2.002-1.747,4.373-2.679,6.854-2.694
					c0.744-0.005,1.393-0.507,1.584-1.226c0.971-3.642,4.58-4.955,7.634-4.968h0.051c3.396,0,5.309,1.604,6.192,5.197
					c0.111,0.456,0.413,0.844,0.827,1.063c0.415,0.22,0.903,0.254,1.345,0.092c0.045-0.017,0.093-0.028,0.138-0.045v33.134h-24.27
					c-0.911,0-1.649,0.739-1.649,1.651s0.738,1.65,1.649,1.65h25.92h8.294V334.974z M1422.498,314.986h47.71v3.301h-47.71V314.986z
					 M1422.498,308.383h47.71v3.301h-47.71V308.383z M1422.498,301.781h47.71v3.301h-47.71V301.781z M1470.208,298.479h-47.71
					v-3.771h47.71V298.479z M1422.498,321.588h47.71v3.301h-47.71V321.588z M1470.208,291.404h-47.71v-8.307h47.71V291.404z
					 M1422.498,331.672v-3.481h47.71v3.481H1422.498z M1494.212,230.333l5.534-12.165h101.714l17.543,38.561h-2.74h-66.918h-3.627
					h-63.515l10.508-23.096L1494.212,230.333z M1534.816,331.109v-40.735h25.467v40.735H1534.816z M1614.611,331.672h-51.025
					v-42.949c0-0.91-0.74-1.649-1.652-1.649h-28.768c-0.91,0-1.65,0.739-1.65,1.649v42.949h-50.225v-71.643h66.992h66.328V331.672z
					 M1408.918,256.729l10.507-23.096h69.659l-10.507,23.096h-66.023H1408.918z M1414.205,260.031h63.784v71.642h-4.48v-50.226
					c0-0.912-0.737-1.65-1.649-1.65h-51.013c-0.911,0-1.649,0.739-1.649,1.65v50.226h-4.991L1414.205,260.031L1414.205,260.031z"/>
			</g>
			<g>
				<path fill="#010F43" d="M1718.601,298.225h-1.895v-19.695c0-0.911-0.74-1.65-1.652-1.65h-15.444c-0.912,0-1.65,0.739-1.65,1.65
					v19.695h-1.896c-0.909,0-1.649,0.738-1.649,1.65c0,0.911,0.74,1.65,1.649,1.65h3.548h15.444h3.547c0.912,0,1.65-0.739,1.65-1.65
					C1720.251,298.963,1719.513,298.225,1718.601,298.225z M1701.259,280.182h12.146v7.44h-12.146V280.182z M1701.259,298.225
					v-7.302h12.146v7.302H1701.259z"/>
				<path fill="#010F43" d="M1749.703,298.225h-1.896v-19.695c0-0.911-0.737-1.65-1.649-1.65h-15.447c-0.91,0-1.65,0.739-1.65,1.65
					v19.695h-1.895c-0.912,0-1.65,0.738-1.65,1.65c0,0.911,0.738,1.65,1.65,1.65h3.545h15.447h3.545c0.912,0,1.652-0.739,1.652-1.65
					C1751.355,298.963,1750.615,298.225,1749.703,298.225z M1732.361,280.182h12.146v7.44h-12.146V280.182z M1732.361,298.225
					v-7.302h12.146v7.302H1732.361z"/>
				<path fill="#010F43" d="M1812.52,298.225h-1.896v-19.695c0-0.911-0.74-1.65-1.652-1.65h-15.446c-0.91,0-1.65,0.739-1.65,1.65
					v19.695h-1.895c-0.912,0-1.65,0.738-1.65,1.65c0,0.911,0.738,1.65,1.65,1.65h3.545h15.446h3.548c0.909,0,1.649-0.739,1.649-1.65
					C1814.169,298.963,1813.429,298.225,1812.52,298.225z M1795.177,280.182h12.146v7.44h-12.146V280.182z M1795.177,298.225v-7.302
					h12.146v7.302H1795.177z"/>
				<path fill="#010F43" d="M1843.621,298.225h-1.896v-19.695c0-0.911-0.739-1.65-1.649-1.65h-15.447c-0.912,0-1.65,0.739-1.65,1.65
					v19.695h-1.895c-0.912,0-1.652,0.738-1.652,1.65c0,0.911,0.74,1.65,1.652,1.65h3.545h15.447h3.545c0.912,0,1.65-0.739,1.65-1.65
					C1845.271,298.963,1844.533,298.225,1843.621,298.225z M1826.279,280.182h12.146v7.44h-12.146V280.182z M1826.279,298.225
					v-7.302h12.146v7.302H1826.279z"/>
				<path fill="#010F43" d="M1696.063,245.114h3.547h15.444h3.547c0.912,0,1.65-0.739,1.65-1.651c0-0.911-0.738-1.65-1.65-1.65
					h-1.895v-19.693c0-0.911-0.74-1.65-1.652-1.65h-15.444c-0.912,0-1.65,0.739-1.65,1.65v19.693h-1.896
					c-0.909,0-1.649,0.739-1.649,1.65C1694.412,244.375,1695.152,245.114,1696.063,245.114z M1701.259,223.77h12.146v7.441h-12.146
					V223.77z M1701.259,234.512h12.146v7.301h-12.146V234.512z"/>
				<path fill="#010F43" d="M1727.166,245.114h3.545h15.447h3.545c0.912,0,1.652-0.739,1.652-1.651c0-0.911-0.74-1.65-1.652-1.65
					h-1.895v-19.693c0-0.911-0.738-1.65-1.65-1.65h-15.447c-0.91,0-1.65,0.739-1.65,1.65v19.693h-1.895
					c-0.912,0-1.65,0.739-1.65,1.65C1725.515,244.375,1726.253,245.114,1727.166,245.114z M1732.361,223.77h12.146v7.441h-12.146
					V223.77z M1732.361,234.512h12.146v7.301h-12.146V234.512z"/>
				<path fill="#010F43" d="M1789.98,245.114h3.545h15.446h3.548c0.909,0,1.649-0.739,1.649-1.651c0-0.911-0.74-1.65-1.649-1.65
					h-1.896v-19.693c0-0.911-0.74-1.65-1.652-1.65h-15.446c-0.91,0-1.65,0.739-1.65,1.65v19.693h-1.895
					c-0.912,0-1.65,0.739-1.65,1.65C1788.33,244.375,1789.068,245.114,1789.98,245.114z M1795.177,223.77h12.146v7.441h-12.146
					V223.77z M1795.177,234.512h12.146v7.301h-12.146V234.512z"/>
				<path fill="#010F43" d="M1759.061,245.114h3.545h15.446h3.548c0.909,0,1.649-0.739,1.649-1.651c0-0.911-0.74-1.65-1.649-1.65
					h-1.896v-19.693c0-0.911-0.738-1.65-1.65-1.65h-15.446c-0.91,0-1.65,0.739-1.65,1.65v19.693h-1.896
					c-0.911,0-1.649,0.739-1.649,1.65C1757.41,244.375,1758.148,245.114,1759.061,245.114z M1764.257,223.77h12.146v7.441h-12.146
					V223.77z M1764.257,234.512h12.146v7.301h-12.146V234.512z"/>
				<path fill="#010F43" d="M1821.083,245.114h3.545h15.447h3.545c0.912,0,1.65-0.739,1.65-1.651c0-0.911-0.738-1.65-1.65-1.65
					h-1.896v-19.693c0-0.911-0.739-1.65-1.649-1.65h-15.447c-0.912,0-1.649,0.739-1.649,1.65v19.693h-1.896
					c-0.912,0-1.652,0.739-1.652,1.65C1819.431,244.375,1820.171,245.114,1821.083,245.114z M1826.279,223.77h12.146v7.441h-12.146
					V223.77z M1826.279,234.512h12.146v7.301h-12.146V234.512z"/>
				<path fill="#010F43" d="M1874.623,213.318c-0.16-0.767-0.834-1.315-1.617-1.315c-0.781,0-1.457,0.549-1.615,1.315
					c-0.62,2.988-15.19,73.367-15.19,87.107v0.081c0,0.912,0.74,1.651,1.651,1.651h8.437v29.456h-15.447V210.501h3.381
					c0.912,0,1.65-0.739,1.65-1.649v-6.328c0-0.912-0.738-1.65-1.65-1.65h-3.381v-9.262h3.381c0.912,0,1.65-0.738,1.65-1.649v-9.354
					c0-0.91-0.738-1.649-1.65-1.649h-170.149c-0.91,0-1.65,0.739-1.65,1.649v9.354c0,0.911,0.74,1.649,1.65,1.649h3.381v9.262
					h-3.381c-0.91,0-1.65,0.738-1.65,1.65v6.328c0,0.91,0.74,1.649,1.65,1.649h3.381v121.113h-18.127v-29.456h8.436
					c0.912,0,1.65-0.739,1.65-1.651v-0.081c0-13.742-14.57-84.119-15.189-87.107c-0.157-0.767-0.834-1.315-1.616-1.315
					c-0.781,0-1.457,0.549-1.615,1.315c-0.619,2.988-15.188,73.367-15.188,87.107v0.081c0,0.912,0.737,1.651,1.649,1.651h8.437
					v29.456h-7.48c-0.912,0-1.65,0.739-1.65,1.65s0.738,1.65,1.65,1.65h40.699h65.668c0.133,0.034,0.27,0.059,0.412,0.059
					c0.145,0,0.281-0.023,0.414-0.059h27.114c0.134,0.034,0.271,0.059,0.414,0.059s0.279-0.023,0.412-0.059h65.65h35.018
					c0.912,0,1.65-0.739,1.65-1.65s-0.738-1.65-1.65-1.65h-4.479v-29.456h8.436c0.912,0,1.65-0.739,1.65-1.651v-0.081
					C1889.813,286.686,1875.244,216.307,1874.623,213.318z M1685.722,188.311v-6.053h166.849v6.053H1685.722z M1676.058,298.857
					h-6.733h-3.301h-6.839h-3.301h-6.733c0.756-13.241,9.719-58.512,13.452-76.957
					C1666.339,240.346,1675.302,285.616,1676.058,298.857z M1666.023,302.158v29.317h-6.839v-29.317H1666.023z M1756.833,331.614
					v-2.653h24.643v2.653H1756.833z M1690.753,331.614V316.62h62.779v14.995L1690.753,331.614L1690.753,331.614z M1756.884,313.243
					v-36.646h24.523v36.646H1756.884z M1756.833,323.066h24.643v2.594h-24.643V323.066z M1781.476,319.765h-24.643v-3.145h24.643
					V319.765z M1784.708,313.318v-38.371c0-0.912-0.74-1.651-1.65-1.651h-27.823c-0.912,0-1.65,0.739-1.65,1.651v38.371h-62.83
					v-48.842h156.785v48.842H1784.708z M1847.539,261.176h-156.785v-50.67h156.785V261.176z M1784.777,316.62h62.762v14.995h-62.762
					V316.62z M1690.753,191.636h156.785v9.237h-156.785V191.636z M1685.722,207.2v-3.026h3.382h160.086h3.381v3.026H1685.722z
					 M1869.587,298.857h-3.301h-6.734c0.756-13.241,9.72-58.512,13.453-76.957c3.736,18.445,12.699,63.716,13.455,76.957h-6.734
					h-3.301H1869.587z M1876.425,331.476h-6.838v-29.317h6.838V331.476z"/>
			</g>
			<g>
				<path fill="#010F43" d="M1029.746,292.902h-3.079v-25.95c0-0.912-0.739-1.651-1.65-1.651h-7.916h-4.665h-8.623
					c-0.911,0-1.65,0.739-1.65,1.651v11.465v3.429v11.057h-2.46c-0.912,0-1.65,0.738-1.65,1.65s0.739,1.651,1.65,1.651h4.11h21.203
					h4.729c0.912,0,1.651-0.739,1.651-1.651S1030.657,292.902,1029.746,292.902z M1005.464,292.902v-10.498h7.326v10.498H1005.464z
					 M1005.464,268.604h4.004h3.322v1.158v9.34h-6.512h-0.814v-5.047V268.604z M1016.092,268.604h7.274v10.498h-7.274V268.604z
					 M1016.092,282.404h7.274v10.498h-7.274V282.404z"/>
				<path fill="#010F43" d="M1114.355,292.902v-9.939v-3.805v-12.206c0-0.912-0.738-1.651-1.649-1.651h-13.095h-4.729h-3.38
					c-0.912,0-1.65,0.739-1.65,1.651v25.95h-2.461c-0.912,0-1.649,0.74-1.649,1.652c0,0.911,0.738,1.65,1.649,1.65h4.111h21.203
					h4.729c0.912,0,1.651-0.739,1.651-1.65c0-0.912-0.739-1.652-1.651-1.652H1114.355z M1093.153,292.902v-10.498h7.325v10.498
					H1093.153z M1111.054,268.604v9.013v1.485h-5.234h-2.038v-3.303v-5.697v-1.498H1111.054z M1100.479,268.604v2.651v7.847h-7.325
					v-10.498h5.036H1100.479z M1103.781,282.404h7.272v10.498h-7.272V282.404z"/>
				<path fill="#010F43" d="M1030.442,238.301h-30.149c-0.912,0-1.651,0.739-1.651,1.65v9.908c0,0.912,0.739,1.65,1.651,1.65h30.149
					c0.911,0,1.649-0.738,1.649-1.65v-9.908C1032.092,239.04,1031.354,238.301,1030.442,238.301z M1001.943,241.602h11.923v6.607
					h-11.923V241.602z M1028.791,248.209h-11.624v-6.607h11.624V248.209z"/>
				<path fill="#010F43" d="M1043.181,251.511h0.988h23.599h5.563c0.863,0,1.563-0.665,1.637-1.509
					c0.004-0.047,0.015-0.093,0.015-0.141v-9.909c0-0.912-0.739-1.65-1.651-1.65h-30.149c-0.912,0-1.649,0.739-1.649,1.65v8.78
					v1.127C1041.531,250.771,1042.27,251.511,1043.181,251.511z M1071.68,248.209h-3.57h-8.054v-1.063v-5.545h11.624V248.209z
					 M1044.832,241.602h11.923v5.426v1.182h-11.923v-0.17V241.602z"/>
				<path fill="#010F43" d="M1086.07,251.511h30.149c0.912,0,1.651-0.739,1.651-1.649v-9.909c0-0.912-0.739-1.65-1.651-1.65h-30.149
					c-0.912,0-1.65,0.739-1.65,1.65v9.909C1084.419,250.771,1085.158,251.511,1086.07,251.511z M1114.569,248.209h-11.624v-6.607
					h11.624V248.209z M1087.72,241.602h11.923v6.607h-11.923V241.602z"/>
				<path fill="#010F43" d="M947.484,334.974h44.166h45.221h41.615h45.221h44.167c0.911,0,1.649-0.738,1.649-1.65
					s-0.738-1.651-1.649-1.651h-42.517v-16.598c0.03-0.124,0.051-0.252,0.051-0.386s-0.021-0.262-0.051-0.387v-25.444
					c5.698,1.688,10.57,5.605,13.245,10.846c0.325,0.637,1.024,0.99,1.729,0.88c6.452-1.019,12.953,0.134,18.494,3.161
					c0.799,0.438,1.803,0.143,2.239-0.657c0.438-0.8,0.144-1.804-0.656-2.239c-4.706-2.572-10.059-3.932-15.476-3.932
					c-1.307,0-2.632,0.082-3.954,0.243c-3.338-5.798-9.054-10.04-15.619-11.72V231.41h15.126c0.542,0,1.05-0.266,1.357-0.712
					c0.309-0.446,0.377-1.017,0.187-1.522l-24.28-64.122c-0.243-0.642-0.857-1.066-1.543-1.066h-13.71v-20.902h1.811
					c0.911,0,1.65-0.739,1.65-1.65v-5.659c0-0.912-0.739-1.65-1.65-1.65h-27.589c-0.911,0-1.65,0.739-1.65,1.65v5.659
					c0,0.912,0.739,1.65,1.65,1.65h1.812v20.902h-79.375c-0.687,0-1.3,0.424-1.543,1.066l-24.279,64.122
					c-0.191,0.508-0.123,1.076,0.187,1.522c0.308,0.446,0.814,0.712,1.356,0.712h15.126v53.135
					c-0.911,0.729-1.787,1.506-2.621,2.334c-7.935,0.934-15.055,5.586-18.945,12.348c-7.524-0.92-14.943,0.776-21.161,4.703
					c-0.771,0.487-1,1.506-0.515,2.277c0.314,0.497,0.851,0.77,1.397,0.77c0.301,0,0.605-0.083,0.88-0.256
					c5.863-3.703,12.944-5.192,20.044-4.072c0.704,0.111,1.403-0.243,1.729-0.881c3.318-6.5,10.018-10.971,17.482-11.666
					c0.391-0.037,0.756-0.211,1.031-0.494c0.222-0.229,0.449-0.451,0.678-0.672v25.325c-0.037,0.138-0.063,0.278-0.063,0.427
					c0,0.147,0.025,0.29,0.063,0.427v16.557h-42.515c-0.912,0-1.651,0.739-1.651,1.651S946.572,334.974,947.484,334.974z
					 M993.3,286.188v-3.961v-50.815h128.756v53.405v3.336v24.886h-41.92V267.23c0-0.912-0.739-1.65-1.649-1.65h-41.615
					c-0.912,0-1.65,0.738-1.65,1.65v45.808H993.3V286.188z M980.676,219.096h9.323h1.651h132.057h1.651h9.322l3.413,9.014h-12.735
					h-1.651h-1.651H993.3h-1.649h-1.651h-12.736L980.676,219.096z M1078.367,137.427h24.288v2.358h-1.798h-20.693h-1.797V137.427z
					 M1081.828,143.086h17.365v20.761h-17.365V143.086z M1115.064,167.29l18.366,48.505H981.926l18.366-48.505H1115.064z
					 M1076.835,331.672h-38.313V316.34v-3.301v-44.156h38.313v44.156v3.301V331.672z M1122.056,331.672h-41.92V316.34h41.92V331.672
					z M993.3,316.34h41.92v15.333H993.3V316.34z"/>
				<circle fill="#010F43" cx="1045.266" cy="301.114" r="3.184"/>
				<path fill="#010F43" d="M1054.816,271.363h-11.947c-0.912,0-1.65,0.738-1.65,1.65v19.336c0,0.911,0.738,1.65,1.65,1.65h11.947
					c0.91,0,1.649-0.739,1.649-1.65v-19.336C1056.466,272.102,1055.727,271.363,1054.816,271.363z M1053.165,290.699h-8.646v-16.034
					h8.646V290.699z"/>
				<path fill="#010F43" d="M1072.265,271.363h-11.946c-0.912,0-1.65,0.738-1.65,1.65v19.336c0,0.911,0.738,1.65,1.65,1.65h11.946
					c0.912,0,1.65-0.739,1.65-1.65v-19.336C1073.916,272.102,1073.177,271.363,1072.265,271.363z M1070.615,290.699h-8.646v-16.034
					h8.646V290.699z"/>
				<path fill="#010F43" d="M1054.816,307.126h-11.947c-0.912,0-1.65,0.739-1.65,1.65v4.262v3.301v11.773
					c0,0.912,0.738,1.65,1.65,1.65h11.947c0.91,0,1.649-0.738,1.649-1.65V316.34v-3.301v-4.262
					C1056.466,307.866,1055.727,307.126,1054.816,307.126z M1053.165,316.34v10.123h-8.646V316.34v-3.301v-2.61h8.646v2.61V316.34z"
					/>
				<path fill="#010F43" d="M1072.265,307.126h-11.946c-0.912,0-1.65,0.739-1.65,1.65v4.262v3.301v11.773
					c0,0.912,0.738,1.65,1.65,1.65h11.946c0.912,0,1.65-0.738,1.65-1.65V316.34v-3.301v-4.262
					C1073.916,307.866,1073.177,307.126,1072.265,307.126z M1070.615,316.34v10.123h-8.646V316.34v-3.301v-2.61h8.646v2.61V316.34z"
					/>
			</g>
		</g>
		<g>
			<g>
				<path fill="#010F43" d="M3000.543,331.673h-28.258V302.04h8.436c0.911,0,1.65-0.739,1.65-1.649v-0.082
					c0-13.74-14.569-84.119-15.19-87.107c-0.157-0.766-0.834-1.314-1.616-1.314c-0.781,0-1.457,0.549-1.615,1.314
					c-0.62,2.988-15.189,73.367-15.189,87.142v0.048c0,0.912,0.738,1.65,1.65,1.65h8.436v29.633h-24.051v-141.01h3.379
					c0.912,0,1.65-0.739,1.65-1.65v-7.863c0-0.913-0.738-1.651-1.65-1.651h-3.301V165.67h3.301c0.912,0,1.65-0.739,1.65-1.65v-7.394
					c0-0.911-0.738-1.65-1.65-1.65h-119.711c-0.912,0-1.65,0.739-1.65,1.65v7.394c0,0.911,0.738,1.65,1.65,1.65h3.301v13.829h-3.301
					c-0.912,0-1.65,0.739-1.65,1.651v7.863c0,0.911,0.738,1.65,1.65,1.65h3.38v141.01h-28.295v-29.633h8.437
					c0.91,0,1.649-0.739,1.649-1.65v-0.08c0-13.742-14.57-84.119-15.19-87.108c-0.157-0.767-0.834-1.315-1.614-1.315
					c-0.783,0-1.458,0.551-1.617,1.315c-0.62,2.989-15.188,73.366-15.188,87.142v0.049c0,0.91,0.737,1.649,1.649,1.649h8.437v29.633
					h-24.015c-0.911,0-1.649,0.739-1.649,1.65s0.738,1.649,1.649,1.649h67.399h7.665h26.174h75.813h67.398
					c0.911,0,1.65-0.738,1.65-1.649S3001.455,331.673,3000.543,331.673z M2965.564,221.783
					c3.735,18.445,12.699,63.716,13.455,76.957h-6.733h-3.302h-6.838h-3.301h-6.734
					C2952.867,285.499,2961.831,240.229,2965.564,221.783z M2968.984,302.041v29.318h-6.838v-29.318H2968.984z M2786.828,221.783
					c3.733,18.445,12.697,63.716,13.453,76.957h-6.733h-3.302h-6.838h-3.301h-6.734
					C2774.128,285.499,2783.092,240.229,2786.828,221.783z M2790.246,302.041v29.318h-6.838v-29.318H2790.246z M2855.681,317.211
					v3.301v11.161h-22.873v-11.161v-3.301v-20.908h22.873V317.211z M2857.332,293.001h-26.174c-0.911,0-1.65,0.739-1.65,1.651
					v22.559h-4.363V284.12h106.35v33.092h-72.511v-22.56C2858.982,293.741,2858.244,293.001,2857.332,293.001z M2931.493,280.818
					h-106.349v-43.623h106.349V280.818L2931.493,280.818z M2820.113,162.367v-4.091h116.41v4.091h-3.302h-109.808H2820.113z
					 M2825.064,165.668h106.508v13.829h-106.508V165.668z M2820.113,187.361v-4.563h3.302h109.808h3.302v4.563h-3.379h-109.651
					H2820.113z M2931.493,190.664v43.23h-106.349v-43.23H2931.493z M2825.145,320.512h4.362v11.161h-4.362V320.512z
					 M2858.982,331.673v-11.161h72.511v11.161H2858.982z"/>
				<path fill="#010F43" d="M2830.513,275.952h2.975h19.726h2.975c0.91,0,1.649-0.739,1.649-1.65s-0.739-1.649-1.649-1.649h-1.323
					v-29.963c0-0.91-0.738-1.649-1.649-1.649h-9.863h-9.862c-0.912,0-1.649,0.739-1.649,1.649v29.961h-1.323
					c-0.912,0-1.65,0.74-1.65,1.65C2828.866,275.212,2829.602,275.952,2830.513,275.952z M2845,272.65v-12.738h6.563v12.738H2845z
					 M2851.563,256.611H2845v-12.271h6.563V256.611L2851.563,256.611z M2835.137,244.341h6.563v12.271h-6.563V244.341z
					 M2835.137,259.912h6.563v12.738h-6.563V259.912z"/>
				<path fill="#010F43" d="M2900.451,275.952h2.974h19.727h2.974c0.911,0,1.65-0.739,1.65-1.65s-0.739-1.649-1.65-1.649h-1.322
					v-29.963c0-0.91-0.739-1.649-1.65-1.649h-9.863h-9.861c-0.912,0-1.651,0.739-1.651,1.649v29.961h-1.322
					c-0.912,0-1.649,0.74-1.649,1.65C2898.805,275.212,2899.539,275.952,2900.451,275.952z M2914.938,272.65v-12.738h6.563v12.738
					H2914.938z M2921.5,256.611h-6.563v-12.271h6.563V256.611z M2905.075,244.341h6.562v12.271h-6.562V244.341z M2905.075,259.912
					h6.562v12.738h-6.562V259.912z"/>
				<path fill="#010F43" d="M2866.939,275.952h2.974h19.726h2.975c0.911,0,1.65-0.739,1.65-1.65s-0.739-1.649-1.65-1.649h-1.323
					v-29.963c0-0.91-0.739-1.649-1.649-1.649h-9.863h-9.862c-0.912,0-1.65,0.739-1.65,1.649v29.961h-1.322
					c-0.912,0-1.649,0.74-1.649,1.65C2865.293,275.212,2866.027,275.952,2866.939,275.952z M2881.425,272.65v-12.738h6.563v12.738
					H2881.425z M2887.988,256.611h-6.563v-12.271h6.563V256.611z M2871.563,244.341h6.563v12.271h-6.563V244.341z M2871.563,259.912
					h6.563v12.738h-6.563V259.912z"/>
				<path fill="#010F43" d="M2830.513,229.342h2.975h19.726h2.975c0.91,0,1.649-0.738,1.649-1.65s-0.739-1.65-1.649-1.65h-1.323
					v-29.96c0-0.912-0.738-1.649-1.649-1.649h-9.863h-9.862c-0.912,0-1.649,0.737-1.649,1.649v29.96h-1.323
					c-0.912,0-1.65,0.738-1.65,1.65C2828.863,228.604,2829.602,229.342,2830.513,229.342z M2845,226.041v-12.739h6.563v12.739H2845z
					 M2851.563,210H2845v-12.27h6.563V210L2851.563,210z M2835.137,197.73h6.563V210h-6.563V197.73z M2835.137,213.301h6.563v12.739
					h-6.563V213.301z"/>
				<path fill="#010F43" d="M2900.451,229.342h2.974h19.727h2.974c0.911,0,1.65-0.738,1.65-1.65s-0.739-1.65-1.65-1.65h-1.322
					v-29.96c0-0.912-0.739-1.649-1.65-1.649h-9.863h-9.861c-0.912,0-1.651,0.737-1.651,1.649v29.96h-1.322
					c-0.912,0-1.649,0.738-1.649,1.65C2898.8,228.604,2899.539,229.342,2900.451,229.342z M2914.938,226.041v-12.739h6.563v12.739
					H2914.938z M2921.5,210h-6.563v-12.27h6.563V210z M2905.075,197.73h6.562V210h-6.562V197.73z M2905.075,213.301h6.562v12.739
					h-6.562V213.301z"/>
				<path fill="#010F43" d="M2866.939,229.342h2.974h19.726h2.975c0.911,0,1.65-0.738,1.65-1.65s-0.739-1.65-1.65-1.65h-1.323
					v-29.96c0-0.912-0.739-1.649-1.649-1.649h-9.863h-9.862c-0.912,0-1.65,0.737-1.65,1.649v29.96h-1.322
					c-0.912,0-1.649,0.738-1.649,1.65C2865.289,228.604,2866.027,229.342,2866.939,229.342z M2881.425,226.041v-12.739h6.563v12.739
					H2881.425z M2887.988,210h-6.563v-12.27h6.563V210z M2871.563,197.73h6.563V210h-6.563V197.73z M2871.563,213.301h6.563v12.739
					h-6.563V213.301z"/>
				<path fill="#010F43" d="M2866.902,313.281h2.928h18.393h2.929c0.912,0,1.649-0.739,1.649-1.65c0-0.912-0.738-1.65-1.649-1.65
					h-1.277v-14.855c0-0.911-0.738-1.65-1.649-1.65h-18.394c-0.912,0-1.649,0.739-1.649,1.65v14.855h-1.277
					c-0.912,0-1.65,0.738-1.65,1.65C2865.251,312.542,2865.99,313.281,2866.902,313.281z M2871.48,296.773h15.092v13.205h-15.092
					V296.773z"/>
				<path fill="#010F43" d="M2901.859,313.281h2.928h18.393h2.93c0.91,0,1.649-0.739,1.649-1.65c0-0.912-0.739-1.65-1.649-1.65
					h-1.277v-14.855c0-0.911-0.739-1.65-1.651-1.65h-18.393c-0.911,0-1.65,0.739-1.65,1.65v14.855h-1.276
					c-0.911,0-1.65,0.738-1.65,1.65C2900.208,312.542,2900.948,313.281,2901.859,313.281z M2906.438,296.773h15.092v13.205h-15.092
					V296.773z"/>
			</g>
			<g>
				<path fill="#010F43" d="M3034.381,259.889h30.15c0.91,0,1.649-0.74,1.649-1.65v-9.908c0-0.911-0.739-1.65-1.649-1.65h-30.15
					c-0.91,0-1.649,0.739-1.649,1.65v9.908C3032.73,259.148,3033.47,259.889,3034.381,259.889z M3062.88,256.587h-11.624v-6.606
					h11.624V256.587z M3036.033,249.98h11.922v6.606h-11.922V249.98z"/>
				<path fill="#010F43" d="M3085.445,259.889h30.149c0.911,0,1.65-0.74,1.65-1.65v-9.908c0-0.911-0.739-1.65-1.65-1.65h-30.149
					c-0.911,0-1.65,0.739-1.65,1.65v9.908C3083.794,259.148,3084.534,259.889,3085.445,259.889z M3113.944,256.587h-11.624v-6.606
					h11.624V256.587z M3087.096,249.98h11.924v6.606h-11.924V249.98z"/>
				<path fill="#010F43" d="M3168.23,246.678h-30.149c-0.911,0-1.649,0.74-1.649,1.651v9.907c0,0.912,0.738,1.65,1.649,1.65h30.149
					c0.912,0,1.649-0.738,1.649-1.65v-9.907C3169.88,247.418,3169.143,246.678,3168.23,246.678z M3139.73,249.98h11.924v6.606
					h-11.924V249.98z M3166.58,256.587h-11.624v-6.606h11.624V256.587z"/>
				<path fill="#010F43" d="M3069.347,307.754h-2.043v-34.35c0-0.91-0.739-1.649-1.649-1.649h-30.498
					c-0.911,0-1.65,0.739-1.65,1.649v34.35h-2.043c-0.912,0-1.65,0.738-1.65,1.65c0,0.911,0.738,1.649,1.65,1.649h3.215
					c0.152,0.047,0.312,0.079,0.479,0.079h30.498c0.167,0,0.325-0.032,0.478-0.079h3.217c0.912,0,1.649-0.738,1.649-1.649
					C3070.998,308.493,3070.259,307.754,3069.347,307.754z M3052.055,307.754v-14.777h11.947v14.777H3052.055z M3064.002,289.676
					h-11.947v-14.619h11.947V289.676z M3036.806,275.057h11.948v14.619h-11.948V275.057z M3036.806,292.977h11.948v14.777h-11.948
					V292.977z"/>
				<path fill="#010F43" d="M3120.516,307.754h-2.043v-34.35c0-0.91-0.738-1.649-1.65-1.649h-30.497
					c-0.911,0-1.649,0.739-1.649,1.649v34.35h-2.043c-0.912,0-1.65,0.738-1.65,1.65c0,0.911,0.738,1.649,1.65,1.649h3.216
					c0.151,0.047,0.311,0.079,0.478,0.079h30.497c0.168,0,0.326-0.032,0.479-0.079h3.216c0.912,0,1.651-0.738,1.651-1.649
					C3122.167,308.493,3121.428,307.754,3120.516,307.754z M3103.225,307.754v-14.777h11.946v14.777H3103.225z M3115.171,289.676
					h-11.947v-14.619h11.947V289.676z M3087.977,275.057h11.946v14.619h-11.946V275.057z M3087.977,292.977h11.946v14.777h-11.946
					V292.977z"/>
				<circle fill="#010F43" cx="3143.225" cy="304.174" r="2.784"/>
				<path fill="#010F43" d="M3141.126,298.154h10.447c0.912,0,1.649-0.737,1.649-1.649v-16.922c0-0.911-0.738-1.649-1.649-1.649
					h-10.447c-0.911,0-1.649,0.738-1.649,1.649v16.922C3139.477,297.417,3140.215,298.154,3141.126,298.154z M3142.778,281.234
					h7.146v13.619h-7.146V281.234z"/>
				<path fill="#010F43" d="M3156.385,298.154h10.446c0.912,0,1.651-0.737,1.651-1.649v-16.922c0-0.911-0.739-1.649-1.651-1.649
					h-10.446c-0.912,0-1.649,0.738-1.649,1.649v16.922C3154.735,297.417,3155.473,298.154,3156.385,298.154z M3158.036,281.234
					h7.146v13.619h-7.146V281.234z"/>
				<path fill="#010F43" d="M3141.126,329.454h10.447c0.912,0,1.649-0.739,1.649-1.65v-10.119v-3.302v-3.501
					c0-0.912-0.738-1.649-1.649-1.649h-10.447c-0.911,0-1.649,0.737-1.649,1.649v3.501v3.302v10.119
					C3139.477,328.714,3140.215,329.454,3141.126,329.454z M3142.778,314.382v-1.851h7.146v1.851v3.302v8.469h-7.146v-8.469V314.382
					z"/>
				<path fill="#010F43" d="M3156.385,329.454h10.446c0.912,0,1.651-0.739,1.651-1.65v-10.119v-3.302v-3.501
					c0-0.912-0.739-1.649-1.651-1.649h-10.446c-0.912,0-1.649,0.737-1.649,1.649v3.501v3.302v10.119
					C3154.735,328.714,3155.473,329.454,3156.385,329.454z M3158.036,314.382v-1.851h7.146v1.851v3.302v8.469h-7.146v-8.469V314.382
					z"/>
				<path fill="#010F43" d="M3234.973,287.79c-2.01,0-3.969,0.498-5.72,1.448c-1.483-0.688-3.146-0.952-4.767-0.756
					c-1.088-2.818-3.827-4.78-6.963-4.78c-2.321,0-4.498,1.101-5.896,2.897c-1.975-0.776-4.057-1.168-6.209-1.168
					c-3.666,0-7.193,1.18-10.096,3.313v-56.991h8.704h0.009c0.912,0,1.65-0.739,1.65-1.649c0-0.443-0.175-0.847-0.459-1.144
					l-52.193-65.94c-0.313-0.396-0.789-0.626-1.294-0.626s-0.981,0.23-1.294,0.626l-13.115,16.569h-81.405v-2.469h5.089
					c0.912,0,1.651-0.739,1.651-1.65c0-0.912-0.739-1.651-1.651-1.651h-5.089v-8.253h6.847l-0.375,2.063
					c-0.162,0.896,0.433,1.757,1.33,1.92c0.1,0.018,0.198,0.027,0.297,0.027c0.781,0,1.478-0.559,1.622-1.356l1.493-8.214
					c0.162-0.896-0.433-1.756-1.328-1.919c-0.897-0.167-1.758,0.432-1.92,1.329l-0.519,2.85h-7.447v-2.908
					c0-0.911-0.739-1.65-1.649-1.65c-0.911,0-1.651,0.739-1.651,1.65v2.908h-6.883l0.411-2.26c0.163-0.896-0.432-1.756-1.329-1.919
					c-0.897-0.167-1.757,0.432-1.919,1.329l-1.493,8.213c-0.163,0.896,0.432,1.757,1.329,1.92c0.1,0.018,0.199,0.027,0.297,0.027
					c0.782,0,1.479-0.559,1.622-1.356l0.482-2.653h7.481v4.952h-4.519c-0.912,0-1.651,0.739-1.651,1.65s0.739,1.65,1.651,1.65h4.519
					v5.771h-14.801c-0.57,0-1.1,0.293-1.4,0.776l-30.51,48.862c-0.316,0.51-0.334,1.149-0.043,1.676
					c0.291,0.522,0.844,0.85,1.443,0.85h13.46v57.264c-2.968-2.303-6.633-3.584-10.45-3.584c-2.152,0-4.233,0.393-6.209,1.168
					c-1.396-1.798-3.574-2.897-5.896-2.897c-3.136,0-5.875,1.962-6.963,4.78c-1.622-0.197-3.282,0.068-4.768,0.756
					c-1.751-0.95-3.709-1.448-5.72-1.448c-0.912,0-1.65,0.739-1.65,1.649c0,0.912,0.738,1.65,1.65,1.65
					c1.701,0,3.352,0.492,4.77,1.422c0.533,0.35,1.221,0.359,1.766,0.027c1.386-0.846,3.084-1.049,4.636-0.54
					c0.468,0.153,0.979,0.091,1.396-0.173c0.418-0.264,0.693-0.699,0.756-1.188c0.264-2.072,2.037-3.637,4.127-3.637
					c1.6,0,3.076,0.938,3.764,2.391c0.188,0.401,0.531,0.709,0.951,0.854c0.418,0.146,0.879,0.114,1.274-0.082
					c1.914-0.951,3.972-1.435,6.115-1.435c3.989,0,7.778,1.729,10.395,4.746c0.019,0.021,0.038,0.033,0.056,0.051v38.145h-36.77
					c-0.911,0-1.65,0.739-1.65,1.65s0.739,1.649,1.65,1.649h38.42h171.249h33.664c0.912,0,1.649-0.738,1.649-1.649
					s-0.737-1.65-1.649-1.65h-32.014v-38.521c2.604-2.812,6.255-4.418,10.096-4.418c2.146,0,4.201,0.481,6.114,1.434
					c0.396,0.197,0.855,0.227,1.275,0.082c0.419-0.146,0.762-0.453,0.951-0.854c0.688-1.453,2.164-2.393,3.763-2.393
					c2.091,0,3.864,1.563,4.127,3.637c0.063,0.487,0.339,0.924,0.755,1.188c0.417,0.264,0.93,0.326,1.396,0.173
					c1.553-0.508,3.251-0.306,4.637,0.54c0.544,0.332,1.23,0.32,1.765-0.027c1.419-0.93,3.069-1.422,4.771-1.422
					c0.912,0,1.649-0.738,1.649-1.65C3236.624,288.529,3235.885,287.79,3234.973,287.79z M3170.605,314.382v3.302v13.966h-33.013
					v-13.966v-3.302v-39.325h33.013V314.382z M3172.255,271.755h-36.313c-0.91,0-1.649,0.739-1.649,1.649v40.978h-110.217v-73.253
					h167.948v73.253h-18.117v-40.978C3173.906,272.495,3173.167,271.755,3172.255,271.755z M3151.741,166.704l48.875,61.747h-6.942
					h-28.807v-16.899c0-0.471-0.2-0.918-0.552-1.231l-7.718-6.883l-3.302-2.944l-0.614-0.548c-0.632-0.563-1.589-0.559-2.214,0.016
					l-11.317,10.375c-0.343,0.313-0.535,0.754-0.535,1.217v16.899h-35.75l36.063-45.562l2.612-3.302L3151.741,166.704z
					 M3141.916,212.277l9.684-8.875l1.697,1.514l3.301,2.943l4.97,4.433v16.159h-4.97h-3.301h-11.381V212.277z M3010.291,228.451
					l28.448-45.561h14.909c0.193,0.078,0.404,0.123,0.627,0.123s0.434-0.045,0.627-0.123h79.815l-36.063,45.561h-76.23H3010.291z
					 M3099.454,231.752h40.812h14.683h8.27h28.808v6.076h-167.948v-6.076H3099.454z M3024.075,317.684h110.217v13.989h-110.217
					V317.684z M3173.906,331.673v-13.989h18.117v13.989H3173.906z"/>
			</g>
			<g>
				<circle fill="#010F43" cx="3299.78" cy="300.327" r="3.183"/>
				<path fill="#010F43" d="M3309.33,270.577h-11.946c-0.912,0-1.65,0.739-1.65,1.649v19.336c0,0.912,0.739,1.65,1.65,1.65h11.946
					c0.912,0,1.65-0.738,1.65-1.65v-19.336C3310.98,271.316,3310.242,270.577,3309.33,270.577z M3307.679,289.913h-8.646v-16.035
					h8.646V289.913z"/>
				<path fill="#010F43" d="M3326.78,270.577h-11.947c-0.911,0-1.651,0.739-1.651,1.649v19.336c0,0.912,0.74,1.65,1.651,1.65h11.947
					c0.911,0,1.649-0.738,1.649-1.65v-19.336C3328.43,271.316,3327.691,270.577,3326.78,270.577z M3325.128,289.913h-8.646v-16.035
					h8.646V289.913z"/>
				<path fill="#010F43" d="M3309.33,306.34h-11.946c-0.912,0-1.65,0.739-1.65,1.65v8.096v3.301v7.939
					c0,0.911,0.739,1.649,1.65,1.649h11.946c0.912,0,1.65-0.738,1.65-1.649v-7.939v-3.301v-8.096
					C3310.98,307.08,3310.242,306.34,3309.33,306.34z M3307.679,319.387v6.289h-8.646v-6.289v-3.301v-6.445h8.646v6.445V319.387z"/>
				<path fill="#010F43" d="M3326.78,306.34h-11.947c-0.911,0-1.651,0.739-1.651,1.65v8.096v3.301v7.939
					c0,0.911,0.74,1.649,1.651,1.649h11.947c0.911,0,1.649-0.738,1.649-1.649v-7.939v-3.301v-8.096
					C3328.43,307.08,3327.691,306.34,3326.78,306.34z M3325.128,319.387v6.289h-8.646v-6.289v-3.301v-6.445h8.646v6.445V319.387z"/>
				<path fill="#010F43" d="M3347.607,266.96v24.052v17.765h-2.438c-0.912,0-1.649,0.738-1.649,1.649c0,0.912,0.737,1.65,1.649,1.65
					h44.881c0.912,0,1.65-0.738,1.65-1.65c0-0.911-0.738-1.649-1.65-1.649h-3.771V266.96c0-0.911-0.739-1.649-1.65-1.649h-35.37
					C3348.345,265.311,3347.607,266.049,3347.607,266.96z M3382.977,292.663v15.877h-32.068v-15.877H3382.977z M3382.977,268.611
					v20.75h-14.463v-20.75H3382.977z M3365.212,289.361h-14.305v-20.75h14.305V289.361z"/>
				<path fill="#010F43" d="M3329.449,232.611h24.838c0.582,0,1.091-0.303,1.385-0.758c0.167-0.256,0.266-0.563,0.266-0.893v-0.758
					v-1.65v-19.6c0-0.569-0.293-1.1-0.775-1.4l-12.34-7.703c-0.532-0.332-1.206-0.334-1.74-0.004l-12.497,7.702
					c-0.488,0.3-0.785,0.832-0.785,1.405v19.6v1.651v0.757c0,0.33,0.101,0.637,0.268,0.895
					C3328.359,232.309,3328.869,232.611,3329.449,232.611z M3352.636,229.311h-9.155v-0.758v-8.793h9.155v8.793V229.311z
					 M3352.636,216.459h-9.155v-12.307l9.155,5.716V216.459z M3331.1,209.875l9.078-5.596v12.181h-9.078V209.875z M3331.1,219.76
					h9.078v8.793v0.758h-9.078v-0.758V219.76z"/>
				<path fill="#010F43" d="M3448.382,331.673h-42.446v-43.999c0.052-0.029,0.104-0.054,0.153-0.09
					c2.488-1.803,5.736-1.266,8.022-0.498c0.339,0.114,0.705,0.115,1.044,0.002c0.766-0.253,1.252-0.785,1.681-1.256
					c0.229-0.252,0.445-0.488,0.689-0.671l0.06-0.047c1.228-1.007,2.906-1.3,4.604-0.81c1.802,0.522,3.2,1.813,3.741,3.449
					c0.19,0.574,0.688,1.001,1.282,1.107c0.025,0.005,2.535,0.474,3.566,2.177c0.301,0.496,0.838,0.795,1.41,0.795l0.103-0.003
					c0.612-0.037,1.153-0.411,1.405-0.971c0.816-1.818,2.343-3.202,4.295-3.896c1.951-0.692,4.101-0.575,5.891,0.326
					c0.814,0.409,1.807,0.081,2.217-0.733c0.409-0.813,0.081-1.807-0.732-2.217c-2.59-1.303-5.682-1.48-8.479-0.486
					c-1.993,0.707-3.724,1.975-4.974,3.603c-1.125-0.876-2.367-1.362-3.195-1.612c-1.044-2.248-3.083-3.977-5.61-4.709
					c-2.707-0.785-5.54-0.261-7.589,1.403c-0.48,0.362-0.835,0.754-1.122,1.067l-0.08,0.088c-3.114-0.885-6.004-0.803-8.383,0.214
					v-52.056h27.116c0.701,0,1.327-0.443,1.559-1.106c0.23-0.663,0.02-1.399-0.531-1.836l-19.398-15.414v-26.981h1.811
					c0.912,0,1.65-0.74,1.65-1.65v-6.962c0-0.912-0.738-1.651-1.65-1.651h-27.589c-0.911,0-1.649,0.739-1.649,1.651v6.962
					c0,0.91,0.738,1.65,1.649,1.65h1.812v7.938l-47.779-37.963c-0.604-0.479-1.453-0.477-2.055,0l-91.11,72.422
					c-0.55,0.438-0.763,1.174-0.531,1.837c0.229,0.663,0.856,1.105,1.56,1.105h27.116v52.028c-2.368-0.991-5.233-1.067-8.321-0.188
					l-0.08-0.088c-0.287-0.314-0.643-0.705-1.123-1.067c-2.048-1.664-4.882-2.188-7.588-1.403c-2.526,0.731-4.566,2.461-5.609,4.709
					c-0.829,0.25-2.07,0.736-3.196,1.612c-1.25-1.628-2.979-2.896-4.974-3.603c-2.799-0.993-5.889-0.815-8.479,0.486
					c-0.813,0.41-1.144,1.402-0.733,2.217s1.402,1.144,2.217,0.733c1.792-0.901,3.938-1.019,5.892-0.325
					c1.952,0.691,3.479,2.075,4.295,3.896c0.252,0.559,0.793,0.933,1.405,0.97l0.102,0.003c0.573,0,1.11-0.299,1.41-0.795
					c1.033-1.703,3.542-2.172,3.561-2.176c0.602-0.103,1.098-0.528,1.289-1.108c0.542-1.638,1.94-2.927,3.742-3.449
					c1.699-0.492,3.377-0.197,4.604,0.81l0.06,0.047c0.244,0.183,0.461,0.419,0.689,0.671c0.43,0.471,0.916,1.003,1.681,1.256
					c0.341,0.113,0.707,0.112,1.044-0.002c2.286-0.768,5.535-1.305,8.022,0.498c0.028,0.021,0.063,0.035,0.094,0.055v44.034h-42.448
					c-0.91,0-1.649,0.739-1.649,1.65s0.739,1.649,1.649,1.649h44.1h124.722h44.099c0.912,0,1.65-0.738,1.65-1.649
					S3449.294,331.673,3448.382,331.673z M3281.212,331.673v-12.286h8.522v12.286H3281.212z M3390.711,198.67l1.65,1.313l1.65,1.312
					l14.495,11.517l2.077,1.65l2.076,1.65l15.658,12.44l-24.063,0.001l-61.32-48.723c-0.604-0.478-1.453-0.477-2.055,0
					l-61.296,48.725h-24.063l86.383-68.664L3390.711,198.67z M3390.552,179.552h24.287v3.661h-1.793h-20.702h-1.791
					L3390.552,179.552L3390.552,179.552z M3394.013,186.514h17.364v24.359l-17.364-13.797V186.514z M3281.212,231.479l1.603-1.273
					l2.077-1.65l57.019-45.322l57.041,45.322l2.078,1.649l1.604,1.274v0.375v84.232h-67.982v-49.641c0-0.912-0.738-1.65-1.649-1.65
					h-41.615c-0.911,0-1.649,0.738-1.649,1.65v49.641h-8.522v-84.23v-0.377H3281.212z M3331.35,330.886h-38.313v-11.499v-3.301
					v-47.99h38.313v47.99v3.301V330.886z M3334.65,319.387h67.982v12.286h-67.982V319.387z"/>
			</g>
			<g>
				<path fill="#010F43" d="M3675.375,296.176c-2.73-1.265-5.24-0.951-6.821-0.492c-2.989-5.99-9.741-9.041-15.784-6.858
					c-0.614,0.223-1.211,0.495-1.781,0.815c-3.213-3.449-8.147-4.805-12.604-3.377v-33.66h12.922h0.011
					c0.01,0,0.019-0.004,0.028-0.004c0.086-0.002,0.17-0.012,0.254-0.024c0.045-0.009,0.091-0.021,0.136-0.032
					c0.043-0.011,0.085-0.023,0.126-0.038c0.054-0.021,0.105-0.039,0.156-0.063c0.02-0.008,0.035-0.02,0.055-0.027
					c0.101-0.053,0.195-0.115,0.283-0.188c0.088-0.074,0.168-0.152,0.239-0.242c0.002-0.002,0.004-0.004,0.007-0.006
					c0.227-0.283,0.365-0.636,0.365-1.024c0-0.044-0.012-0.085-0.015-0.128c-0.002-0.016-0.004-0.029-0.006-0.045
					c-0.017-0.146-0.05-0.287-0.102-0.42c-0.004-0.01-0.008-0.021-0.012-0.032c-0.029-0.071-0.063-0.142-0.103-0.209
					c-0.002-0.003-0.004-0.007-0.008-0.011c-0.07-0.119-0.16-0.229-0.264-0.332c-0.018-0.014-0.029-0.031-0.046-0.047l-6.274-5.687
					l-0.002-0.001l-41.812-37.877c-0.629-0.57-1.588-0.57-2.216,0l-7.622,6.904l-48.445-43.888c-0.63-0.57-1.588-0.57-2.217,0
					l-82.634,74.858l-0.002,0.001l-6.276,5.688c-0.127,0.115-0.232,0.246-0.315,0.389c-0.081,0.138-0.14,0.285-0.177,0.438
					c-0.012,0.047-0.019,0.096-0.024,0.143c-0.021,0.119-0.029,0.24-0.021,0.361c0.01,0.164,0.045,0.33,0.107,0.488
					c0.184,0.479,0.573,0.833,1.045,0.98c0.157,0.05,0.323,0.076,0.493,0.076h16.736v33.352c-4.133-0.872-8.51,0.531-11.447,3.688
					c-0.571-0.322-1.167-0.596-1.782-0.816c-6.041-2.182-12.793,0.869-15.783,6.857c-1.58-0.457-4.09-0.771-6.821,0.493
					c-0.827,0.384-1.188,1.363-0.805,2.19c0.383,0.828,1.364,1.188,2.19,0.806c2.9-1.343,5.407,0.007,5.501,0.06
					c0.252,0.145,0.535,0.219,0.82,0.219c0.19,0,0.385-0.034,0.569-0.102c0.458-0.168,0.816-0.531,0.982-0.99
					c1.909-5.289,7.394-8.172,12.225-6.43c0.8,0.289,1.557,0.7,2.247,1.221c0.354,0.268,0.802,0.379,1.241,0.313
					c0.438-0.066,0.832-0.309,1.093-0.669c2.25-3.136,6.21-4.502,9.77-3.435v23.361c-0.032,0.133-0.058,0.271-0.058,0.413
					c0,0.144,0.023,0.28,0.058,0.413v18.126h-29.797c-0.912,0-1.651,0.739-1.651,1.65s0.739,1.649,1.651,1.649h31.447h162.325
					h27.634c0.912,0,1.65-0.738,1.65-1.649s-0.739-1.65-1.65-1.65h-25.983v-42.089c0.235,0.021,0.479-0.001,0.715-0.086
					c3.67-1.325,7.867,0.029,10.211,3.295c0.26,0.359,0.652,0.602,1.092,0.669c0.438,0.065,0.887-0.046,1.242-0.313
					c0.689-0.52,1.445-0.931,2.246-1.219c4.83-1.744,10.314,1.141,12.225,6.43c0.166,0.459,0.525,0.82,0.982,0.988
					c0.186,0.067,0.379,0.103,0.569,0.103c0.284,0,0.568-0.074,0.821-0.22c0.023-0.014,2.595-1.403,5.5-0.059
					c0.827,0.383,1.809,0.021,2.191-0.806C3676.563,297.54,3676.203,296.559,3675.375,296.176z M3635.084,311.484h-19.061v-30.892
					c0-0.911-0.738-1.651-1.65-1.651h-31.625c-0.911,0-1.65,0.74-1.65,1.651v30.892h-20.303v-58.881h73.053h0.01h1.228
					L3635.084,311.484L3635.084,311.484z M3612.725,311.484v3.302v16.407H3584.4v-16.407v-3.302v-29.24h28.323L3612.725,311.484
					L3612.725,311.484z M3640.751,243.617l-12.544-0.001h-4.916h-57.604l28.802-26.093l2.459-2.227l6.271-5.682L3640.751,243.617z
					 M3462.938,246.916L3462.938,246.916l94.19,0.001h2.458h2.458l64.892,0.001h4.918h12.543l0,0l2.631,2.384h-10.292h-2.251h-4.917
					h-69.151h-1.003h-1.539h-0.92h-2.458h-80.086h-14.105L3462.938,246.916z M3544.936,172.633l47.097,42.664l-31.259,28.318
					l-94.191-0.002L3544.936,172.633z M3555.132,252.604h2.361v58.881h-81.433v-58.881H3555.132L3555.132,252.604z
					 M3476.061,314.786h81.434v16.888h-81.434V314.786z M3560.795,314.786h20.303v16.888h-20.303V314.786z M3616.025,331.673
					v-16.888h19.06v16.888H3616.025z"/>
				<path fill="#010F43" d="M3483.792,266.568h25.896c0.911,0,1.65-0.739,1.65-1.65v-8.025c0-0.91-0.739-1.649-1.65-1.649h-25.896
					c-0.911,0-1.649,0.739-1.649,1.649v8.025C3482.143,265.829,3482.881,266.568,3483.792,266.568z M3508.039,263.268h-9.52v-4.725
					h9.52V263.268z M3485.443,258.543h9.774v4.725h-9.774V258.543z"/>
				<path fill="#010F43" d="M3611.814,255.242h-25.896c-0.912,0-1.649,0.738-1.649,1.65v8.024c0,0.911,0.737,1.649,1.649,1.649
					h25.896c0.911,0,1.65-0.738,1.65-1.649v-8.024C3613.465,255.98,3612.727,255.242,3611.814,255.242z M3587.57,258.543h9.774
					v4.725h-9.774V258.543z M3610.165,263.268h-9.519v-4.725h9.519V263.268z"/>
				<path fill="#010F43" d="M3524.909,266.568h25.896c0.912,0,1.65-0.739,1.65-1.65v-8.025c0-0.91-0.738-1.649-1.65-1.649h-25.896
					c-0.911,0-1.651,0.739-1.651,1.649v8.025C3523.257,265.829,3523.998,266.568,3524.909,266.568z M3549.154,263.268h-9.52v-4.725
					h9.52V263.268z M3526.559,258.543h9.774v4.725h-9.774V258.543z"/>
				<path fill="#010F43" d="M3480.382,302.475h3.457h25.855h3.458c0.912,0,1.649-0.74,1.649-1.649c0-0.912-0.737-1.651-1.649-1.651
					h-1.809v-26.767c0-0.911-0.738-1.65-1.649-1.65h-25.855c-0.911,0-1.649,0.739-1.649,1.65v26.767h-1.807
					c-0.912,0-1.65,0.739-1.65,1.651C3478.732,301.734,3479.47,302.475,3480.382,302.475z M3485.49,274.059h22.555v16.178h-22.555
					V274.059z M3485.49,293.537h22.555v5.637h-22.555V293.537z"/>
				<path fill="#010F43" d="M3521.217,302.475h3.458h25.854h3.459c0.91,0,1.649-0.74,1.649-1.649c0-0.912-0.739-1.651-1.649-1.651
					h-1.809v-26.767c0-0.911-0.74-1.65-1.65-1.65h-25.854c-0.912,0-1.65,0.739-1.65,1.65v26.767h-1.808
					c-0.91,0-1.649,0.739-1.649,1.651C3519.566,301.734,3520.306,302.475,3521.217,302.475z M3526.326,274.059h22.554v16.178
					h-22.554V274.059z M3526.326,293.537h22.554v5.637h-22.554V293.537z"/>
			</g>
		</g>
	</g>
	<g>
		<g>
			<g id="XMLID_7024_">
				<path id="XMLID_7028_" fill="#010F43" d="M464.975,347.957H252.917c-0.938,0-1.7,0.761-1.7,1.7c0,0.938,0.761,1.699,1.7,1.699
					h212.058c0.938,0,1.699-0.762,1.699-1.699C466.674,348.717,465.913,347.957,464.975,347.957z"/>
				<path id="XMLID_7027_" fill="#010F43" d="M229.859,347.957H1.699c-0.938,0-1.699,0.761-1.699,1.7
					c0,0.938,0.761,1.699,1.699,1.699h228.16c0.938,0,1.7-0.762,1.7-1.699C231.559,348.717,230.798,347.957,229.859,347.957z"/>
				<path id="XMLID_7026_" fill="#010F43" d="M707.722,347.957h-48.119c-0.938,0-1.698,0.761-1.698,1.7
					c0,0.938,0.761,1.699,1.698,1.699h48.119c0.938,0,1.7-0.762,1.7-1.699C709.422,348.717,708.66,347.957,707.722,347.957z"/>
				<path id="XMLID_7025_" fill="#010F43" d="M629.12,347.957h-93.399c-0.938,0-1.698,0.761-1.698,1.7
					c0,0.938,0.761,1.699,1.698,1.699h93.399c0.938,0,1.699-0.762,1.699-1.699C630.819,348.717,630.059,347.957,629.12,347.957z"/>
			</g>
			<g id="XMLID_6527_">
				<path id="XMLID_6531_" fill="#010F43" d="M1248.958,347.819H861.206c-1.015,0-1.837,0.821-1.837,1.838
					c0,1.015,0.822,1.837,1.837,1.837h387.752c1.015,0,1.837-0.822,1.837-1.837C1250.795,348.641,1249.973,347.819,1248.958,347.819
					z"/>
				<path id="XMLID_6530_" fill="#010F43" d="M1491.982,347.819h-75.754c-1.015,0-1.838,0.821-1.838,1.838
					c0,1.015,0.823,1.837,1.838,1.837h75.754c1.014,0,1.837-0.822,1.837-1.837C1493.819,348.641,1492.996,347.819,1491.982,347.819z
					"/>
				<path id="XMLID_6529_" fill="#010F43" d="M1406.186,347.819h-136.278c-1.015,0-1.837,0.821-1.837,1.838
					c0,1.015,0.822,1.837,1.837,1.837h136.278c1.016,0,1.839-0.822,1.839-1.837C1408.023,348.641,1407.2,347.819,1406.186,347.819z"
					/>
				<path id="XMLID_6528_" fill="#010F43" d="M848.58,347.819H745.385c-1.014,0-1.837,0.821-1.837,1.838
					c0,1.015,0.823,1.837,1.837,1.837H848.58c1.016,0,1.838-0.822,1.838-1.837C850.418,348.641,849.596,347.819,848.58,347.819z"/>
			</g>
		</g>
		<g>
			<g id="XMLID_6_">
				<path id="XMLID_10_" fill="#010F43" d="M1986.376,347.957h-212.059c-0.938,0-1.699,0.761-1.699,1.7
					c0,0.938,0.762,1.699,1.699,1.699h212.059c0.938,0,1.699-0.762,1.699-1.699C1988.076,348.717,1987.314,347.957,1986.376,347.957
					z"/>
				<path id="XMLID_9_" fill="#010F43" d="M1751.261,347.957H1523.1c-0.938,0-1.698,0.761-1.698,1.7
					c0,0.938,0.761,1.699,1.698,1.699h228.161c0.938,0,1.699-0.762,1.699-1.699C1752.96,348.717,1752.199,347.957,1751.261,347.957z
					"/>
				<path id="XMLID_8_" fill="#010F43" d="M2229.123,347.957h-48.119c-0.938,0-1.699,0.761-1.699,1.7
					c0,0.938,0.763,1.699,1.699,1.699h48.119c0.939,0,1.701-0.762,1.701-1.699C2230.824,348.717,2230.063,347.957,2229.123,347.957z
					"/>
				<path id="XMLID_7_" fill="#010F43" d="M2150.521,347.957h-93.398c-0.939,0-1.699,0.761-1.699,1.7
					c0,0.938,0.76,1.699,1.699,1.699h93.398c0.938,0,1.698-0.762,1.698-1.699C2152.22,348.717,2151.46,347.957,2150.521,347.957z"/>
			</g>
			<g id="XMLID_1_">
				<path id="XMLID_5_" fill="#010F43" d="M2770.359,347.819h-387.752c-1.015,0-1.836,0.821-1.836,1.838
					c0,1.015,0.821,1.837,1.836,1.837h387.752c1.016,0,1.838-0.822,1.838-1.837C2772.197,348.641,2771.375,347.819,2770.359,347.819
					z"/>
				<path id="XMLID_4_" fill="#010F43" d="M3013.384,347.819h-75.754c-1.014,0-1.838,0.821-1.838,1.838
					c0,1.015,0.824,1.837,1.838,1.837h75.754c1.015,0,1.836-0.822,1.836-1.837C3015.22,348.641,3014.398,347.819,3013.384,347.819z"
					/>
				<path id="XMLID_3_" fill="#010F43" d="M2927.587,347.819h-136.279c-1.014,0-1.838,0.821-1.838,1.838
					c0,1.015,0.824,1.837,1.838,1.837h136.279c1.014,0,1.838-0.822,1.838-1.837C2929.425,348.641,2928.602,347.819,2927.587,347.819
					z"/>
				<path id="XMLID_2_" fill="#010F43" d="M2369.982,347.819h-103.195c-1.014,0-1.838,0.821-1.838,1.838
					c0,1.015,0.824,1.837,1.838,1.837h103.195c1.016,0,1.838-0.822,1.838-1.837C2371.82,348.641,2370.998,347.819,2369.982,347.819z
					"/>
			</g>
		</g>
		<g>
			<g id="XMLID_16_">
				<path id="XMLID_20_" fill="#010F43" d="M3509.6,347.957h-212.059c-0.938,0-1.699,0.761-1.699,1.7
					c0,0.938,0.762,1.699,1.699,1.699H3509.6c0.938,0,1.699-0.762,1.699-1.699C3511.299,348.717,3510.538,347.957,3509.6,347.957z"
					/>
				<path id="XMLID_19_" fill="#010F43" d="M3274.485,347.957h-228.16c-0.938,0-1.699,0.761-1.699,1.7
					c0,0.938,0.761,1.699,1.699,1.699h228.16c0.938,0,1.698-0.762,1.698-1.699C3276.184,348.717,3275.422,347.957,3274.485,347.957z
					"/>
				<path id="XMLID_17_" fill="#010F43" d="M3673.745,347.957h-93.397c-0.939,0-1.699,0.761-1.699,1.7
					c0,0.938,0.76,1.699,1.699,1.699h93.397c0.938,0,1.699-0.762,1.699-1.699C3675.444,348.717,3674.684,347.957,3673.745,347.957z"
					/>
			</g>
			<g id="XMLID_11_">
				<path id="XMLID_21_" fill="#010F43" d="M4536.607,351.494c1.015,0,1.836-0.822,1.836-1.837c0-1.017-0.821-1.838-1.836-1.838"/>
			</g>
		</g>
	</g>
</g>
</svg>
