<?xml version="1.0" encoding="utf-8"?>
<!-- Generator: Adobe Illustrator 16.0.0, SVG Export Plug-In . SVG Version: 6.00 Build 0)  -->
<!DOCTYPE svg PUBLIC "-//W3C//DTD SVG 1.1//EN" "http://www.w3.org/Graphics/SVG/1.1/DTD/svg11.dtd">
<svg version="1.1" id="Layer_1" xmlns="http://www.w3.org/2000/svg" xmlns:xlink="http://www.w3.org/1999/xlink" x="0px" y="0px"
	 width="550px" height="526px" viewBox="0 0 550 526" enable-background="new 0 0 550 526" xml:space="preserve">
<g>
	<path fill="#B98D52" d="M216.121,179.135c1.164,1.862,2.358,3.705,3.485,5.589c3.622,6.057,9.19,9.336,15.841,10.937
		c6.953,1.674,13.973,2.773,21.188,2.731c19.916-0.117,39.833-0.08,59.75-0.026c14.354,0.039,26.863,5.031,37.613,14.473
		c0.877,0.771,1.422,0.83,2.395,0.227c4.324-2.682,8.402-5.785,13.227-7.617c17.523-6.655,37.361,4.492,40.809,22.929
		c0.17,0.917,0.074,1.899,0.557,2.755c0,32.938,0,65.876,0,98.815c-0.084,0.12-0.197,0.229-0.248,0.36
		c-1.736,4.59-6.182,5.924-10.146,3.006c-5.705-4.193-10.48-9.275-14.293-15.241c-6.186-9.683-9.316-20.265-9.287-31.775
		c0.023-9.409,0.023-18.817-0.008-28.227c-0.014-3.504-1.34-6.457-4.141-9.026c0,0.9-0.045,1.527,0.008,2.146
		c0.668,8-0.518,15.771-3.139,23.305c-2.971,8.542-2.832,16.91,0.572,25.311c1.953,4.813,2.74,9.926,2.748,15.108
		c0.035,28.078,0.021,56.154,0.014,84.231c-0.002,4.209-2.635,6.787-6.869,6.787c-7.658,0.004-15.314,0.008-22.973,0
		c-5.045-0.006-8.9-2.17-11.264-6.629c-2.369-4.472-2.068-8.992,0.975-12.986c2.037-2.674,2.709-5.397,2.654-8.702
		c-0.172-10.558-0.08-21.119-0.039-31.679c0.006-1.141-0.285-1.765-1.359-2.311c-13.338-6.775-24.777-15.938-34.266-27.51
		c-0.559-0.682-1.137-0.962-2.025-0.96c-18.066,0.024-36.135,0.022-54.203,0.003c-0.85-0.001-1.496,0.238-2.172,0.758
		c-4.906,3.773-10.414,5.628-16.648,5.041c-0.149-0.014-0.301-0.012-0.449-0.033c-2.456-0.355-2.469-0.363-3.514,1.825
		c-5.351,11.187-8.438,22.945-8.813,35.366c-0.407,13.509-0.198,27.023-0.108,40.533c0.033,4.9-3.287,7.439-7.422,7.346
		c-8.854-0.201-17.716-0.042-26.574-0.07c-4.826-0.015-8.509-2.162-10.742-6.416c-2.232-4.256-1.893-8.509,0.832-12.48
		c1.781-2.598,3.666-5.125,5.545-7.656c0.535-0.718,0.768-1.441,0.767-2.343c-0.021-23.323-0.021-46.646,0.002-69.968
		c0.001-1.015-0.306-1.797-0.885-2.604c-3.879-5.399-8.122-10.542-11.476-16.313c-4.613-7.938-7.188-16.545-8.45-25.585
		c-0.886-6.349-1.387-12.723-1.129-19.14c0.171-0.417,0.385-0.806,0.719-1.12c3.622-3.409,6.792-7.259,10.41-10.669
		c0.399-0.376,0.839-1.555,1.705-0.412c0.226,0.89,0.215,1.802,0.115,2.688c-0.537,4.79-0.308,9.597-0.23,14.389
		c0.117,7.377,1.313,14.643,3.158,21.771c1.795,6.925,5.324,13.02,9.639,18.681c2.547,3.342,4.915,6.815,7.468,10.151
		c1.33,1.738,1.938,3.658,1.937,5.854c-0.022,24.858-0.023,49.716,0.002,74.575c0.003,1.936-0.487,3.641-1.584,5.208
		c-1.489,2.132-3.057,4.208-4.564,6.327c-0.455,0.638-1.09,1.191-1.146,2.047c0.449,0.516,1.043,0.273,1.563,0.289
		c5.305,0.162,10.6-0.151,15.896-0.322c1.425-0.046,1.553-0.197,1.554-1.904c0.007-10.061,0.049-20.121-0.011-30.181
		c-0.053-9.13,1.349-18.053,3.756-26.819c2.273-8.277,5.419-16.222,9.617-23.74c0.846-1.514,1.916-2.118,3.617-2.067
		c4.777,0.144,9.493-0.331,14.092-1.719c2.33-0.704,4.49-1.735,6.263-3.431c0.771-0.735,1.657-0.838,2.627-0.838
		c4.304,0,8.608,0,12.913,0c11.712,0,23.423,0,35.136,0c0.449,0,0.9,0.002,1.352-0.009c0.777-0.017,0.971-0.332,0.598-1.04
		c-0.652-1.24-1.385-2.437-2.021-3.686c-1.01-1.982-1.164-4.029-0.307-6.094c1.67-4.026,7.018-5.278,10.336-2.442
		c1.047,0.896,1.76,2.035,2.391,3.241c3.705,7.093,8.328,13.523,13.707,19.453c7.66,8.441,16.637,15.113,26.672,20.431
		c1.551,0.821,3.189,1.446,4.756,2.233c2.471,1.244,3.744,3.256,3.746,6.019c0.018,14.815,0.004,29.63,0.018,44.444
		c0.002,1.654-0.693,2.998-1.582,4.287c-0.654,0.947-1.33,1.879-1.969,2.836c-0.432,0.646-0.365,1.019,0.488,1.021
		c4.555,0.012,9.109,0.021,13.664-0.004c0.734-0.004,1.104-0.357,1.117-1.098c0.014-0.551,0.014-1.102,0.014-1.651
		c0.002-24.774-0.004-49.551,0.008-74.326c0.002-4.307-0.736-8.47-2.289-12.477c-4.131-10.661-4.182-21.396-0.605-32.188
		c1.842-5.55,3.125-11.195,2.873-17.078c-0.477-11.134-4.42-20.851-12.098-28.992c-7.262-7.699-16.205-12.1-26.654-13.452
		c-2.271-0.294-4.582-0.448-6.879-0.45c-20.471-0.024-40.943-0.051-61.414,0.025c-3.143,0.012-6.293,0.375-9.441,0.248
		c-7.279-0.294-14.308-1.677-20.803-5.147c-3.396-1.814-6.307-4.199-8.656-7.291c-2.476-3.26-5.5-6.105-7.377-9.813
		c-0.328-0.69,0.107-1.146,0.525-1.576c2.508-2.577,5.129-5.045,7.48-7.774C215.088,179.446,215.439,178.916,216.121,179.135z"/>
	<path fill="#B98D52" d="M186.02,120.003c0.69,0.463,1.527,0.363,2.285,0.586c6.131,1.803,10.42,5.63,12.438,11.7
		c3.756,11.297,7.358,22.645,11.024,33.971c-0.069,0.539-0.45,0.878-0.802,1.231c-2.65,2.655-5.29,5.32-7.969,7.945
		c-0.404,0.396-0.776,1.174-1.59,0.576c-1.063-2.648-1.908-5.369-2.725-8.1c-0.111-0.375-0.119-0.898-0.511-1.033
		c-0.54-0.185-0.748,0.4-1.015,0.716c-1.584,1.871-3.177,3.734-4.714,5.642c-6.001,7.451-17.065,8.922-24.712,3.385
		c-4.732-3.427-7.357-8.088-7.688-14.094c-0.495-9-0.094-17.998-0.258-26.995c-0.006-0.4,0.019-0.801-0.008-1.201
		c-0.078-1.158-0.322-1.295-1.414-0.792c-0.457,0.211-0.867,0.497-1.262,0.807c-8.494,6.675-17.014,13.318-25.481,20.027
		c-0.706,0.56-1.445,1.076-2.148,1.638c-1.186,0.948-2.526,1.348-4.039,1.343c-4.252-0.013-8.503-0.023-12.756,0.01
		c-1.352,0-2.704-0.048-4.054,0.013c-3.543,0.161-5.556,2.75-4.554,6.148c1.385,4.702,2.745,9.42,4.413,14.031
		c1.741,4.814,6.106,7.788,11.209,7.794c4.354,0.005,8.708,0.053,13.063-0.024c3.032,0.097,6.074-0.254,9.093,0.219
		c2.369,0.651,3.912,2.229,5.057,4.348c4.079,7.551,8.141,15.11,12.322,22.605c0.752,1.349,1.158,2.879,2.18,4.081
		c0.219,0.52-0.119,0.864-0.427,1.17c-3.161,3.15-6.233,6.392-9.508,9.428c-2.566-7.899-7.19-14.777-10.966-22.075
		c-0.986-1.906-2.096-3.749-3.054-5.668c-0.421-0.844-0.946-1.1-1.861-1.092c-5.099,0.042-10.197,0.031-15.295,0.017
		c-11.686-0.032-20.891-6.701-24.452-17.796c-1.749-5.448-3.36-10.939-5.034-16.411c0-1.502,0-3.003,0-4.505
		c0.498-6.018,3.676-10.292,8.742-13.285c2.315-1.368,4.856-2.106,7.563-2.12c4.547-0.023,9.095-0.046,13.642,0.017
		c1.432,0.02,2.593-0.365,3.717-1.246c7.904-6.195,15.777-12.429,23.699-18.601c1.859-1.449,3.789-2.75,5.992-3.65
		c1.375-0.561,2.832-0.431,4.224-0.762C167.599,120.003,176.81,120.003,186.02,120.003z"/>
	<path fill="#DA6161" d="M151.472,227.181c0.05-0.681,0.62-0.995,1.026-1.41c2.958-3.023,5.928-6.033,8.895-9.047
		c-0.187-0.737,0.422-1.057,0.812-1.454c2.158-2.198,4.354-4.357,6.517-6.551c10.422-10.376,20.797-20.8,31.212-31.184
		c0.52-0.518,0.93-1.2,1.736-1.362c2.968-2.932,5.935-5.864,8.906-8.793c0.387-0.383,0.795-0.747,1.193-1.119
		c0.918,2.757,1.831,5.516,2.757,8.27c0.519,1.539,1.063,3.07,1.595,4.605c-3.127,3.236-6.254,6.472-9.381,9.708
		c0.06,0.899-0.697,1.277-1.199,1.78c-10.537,10.564-21.097,21.104-31.635,31.666c-2.516,2.462-4.977,4.98-7.48,7.454
		c-0.417,0.412-0.768,0.924-1.389,1.078c-2.078,1.797-3.945,3.799-5.82,5.803c-2.184,2.332-4.502,4.537-6.76,6.797
		c-0.276-1.859,0.007-3.726,0.425-5.483c0.632-2.659-0.084-5.095-0.617-7.594C152.037,229.28,151.738,228.234,151.472,227.181z"/>
	<path fill="#FEC56C" d="M173.718,222.039c10.633-10.664,21.267-21.328,31.898-31.994c0.387-0.389,0.75-0.801,1.123-1.203
		c1.314,1.798,2.483,3.729,3.975,5.365c2.916,3.199,5.197,6.975,8.814,9.544c4.781,3.397,10.139,5.31,15.844,6.344
		c5.277,0.956,10.594,1.233,15.939,0.651c0.445-0.048,0.9-0.012,1.352-0.012c20.672,0,41.345-0.03,62.017,0.02
		c5.555,0.014,11.047,0.677,16.291,2.67c14.1,5.359,23.391,15.241,27.791,29.683c1.455,4.77,1.996,9.671,1.721,14.634
		c-0.27,4.803-1.443,9.442-3.008,13.981c-2.076,6.035-2.768,12.266-2.305,18.588c0.307,4.18,1.219,8.285,2.783,12.199
		c1.764,4.412,2.588,8.969,2.582,13.722c-0.029,25.077-0.027,50.153,0.02,75.229c0.004,1.489-0.32,1.965-1.885,1.926
		c-4.65-0.115-9.309-0.043-13.963-0.059c-0.377-0.001-0.887,0.197-1.107-0.2c-0.25-0.444,0.287-0.676,0.496-0.983
		c0.758-1.114,1.512-2.232,2.309-3.318c1.068-1.458,1.563-3.018,1.557-4.875c-0.057-14.365-0.059-28.73-0.012-43.096
		c0.012-3.112-1.24-5.217-4.102-6.475c-7.818-3.443-14.979-7.974-21.547-13.416c-8.613-7.141-15.76-15.549-21.383-25.234
		c-0.951-1.643-1.826-3.328-2.777-4.971c-1.826-3.152-5.846-3.638-8.527-2.117c-2.715,1.539-3.828,5.084-2.414,8.1
		c0.721,1.535,1.605,2.992,2.414,4.486c0.205,0.38,0.695,0.755,0.43,1.186c-0.256,0.415-0.83,0.192-1.26,0.193
		c-16.316,0.009-32.634,0.01-48.951,0.004c-1.389,0-2.525,0.093-3.737,1.238c-2.442,2.313-5.711,3.197-8.963,3.851
		c-3.876,0.778-7.806,1.083-11.757,0.915c-1.102-0.047-1.715,0.348-2.252,1.305c-6.168,10.992-10.164,22.754-12.299,35.139
		c-0.82,4.758-1.328,9.57-1.31,14.427c0.039,10.711-0.019,21.423,0.034,32.134c0.007,1.37-0.354,1.748-1.743,1.768
		c-5.696,0.078-11.394,0.346-17.093,0.228c-0.53-0.011-1.105,0.19-1.583-0.228c0.352-0.444,0.858-0.484,1.36-0.488
		c3.252-0.025,6.504-0.028,9.801,0c-1.594-1.031-2.57-2.483-2.838-4.366c-0.271-1.908,0.434-3.549,1.52-5.047
		c1.909-2.636,3.797-5.285,5.75-7.886c0.725-0.965,1.082-1.975,1.081-3.188c-0.015-24.478-0.013-48.956-0.001-73.433
		c0-1.104-0.318-2.027-0.969-2.918c-2.831-3.883-5.713-7.729-8.514-11.633c-6.289-8.771-10.066-18.498-11.201-29.249
		c-0.463-4.4-0.194-8.771,0.129-13.169c0.449-6.106,0.186-12.206-1.279-18.199C173.826,223.228,173.638,222.652,173.718,222.039z"/>
	<path fill="#FEFEFE" d="M173.718,222.039c1.076,1.75,1.094,3.784,1.465,5.708c0.798,4.14,0.729,8.343,0.607,12.533
		c-0.062,2.139-0.264,4.277-0.494,6.406c-0.311,2.859-0.008,5.709,0.273,8.525c0.581,5.807,2.028,11.426,4.266,16.844
		c2.5,6.059,6.179,11.375,10.074,16.573c1.975,2.634,3.881,5.318,5.863,7.946c0.432,0.572,0.528,1.152,0.528,1.814
		c-0.004,24.912-0.007,49.823,0.009,74.735c0,0.746-0.21,1.361-0.637,1.942c-1.979,2.691-3.855,5.466-5.951,8.063
		c-2.861,3.545-2.648,7.622,1.705,10.256c-4.1,0-8.199,0-12.298,0c1.051-2.338,2.917-4.123,4.257-6.266
		c0.342-0.548,0.752-1.061,1.175-1.55c1.813-2.111,2.413-4.515,2.404-7.316c-0.076-24.521-0.058-49.041-0.021-73.562
		c0.002-2.161-0.674-3.949-1.938-5.653c-3.449-4.647-6.916-9.286-10.212-14.041c-4.465-6.442-6.912-13.666-8.359-21.36
		c-1.626-8.651-1.846-17.345-1.722-26.083c0.032-2.246,0.211-4.49,0.323-6.735C167.768,227.733,170.779,224.921,173.718,222.039z"/>
	<path fill="#FEC56C" d="M398.384,313.533c-3.943-5.508-6.482-11.139-7.834-17.316c-0.762-3.484-0.949-7-0.936-10.554
		c0.037-8.707,0.088-17.416-0.021-26.122c-0.049-3.728-0.398-7.441-1.965-10.957c-3.434-7.711-9.262-12.475-17.422-14.395
		c-0.896-0.211-1.447-0.53-1.777-1.337c-1.219-2.967-2.762-5.762-4.51-8.446c-0.385-0.592-0.479-1.106,0.23-1.497
		c3.232-1.78,6.088-4.192,9.549-5.591c6.422-2.593,14.061-1.052,19.025,3.76c3.84,3.721,5.68,8.179,5.672,13.52
		c-0.031,25.771-0.014,51.542-0.014,77.315C398.384,312.307,398.384,312.702,398.384,313.533z"/>
	<path fill="#FEC56C" d="M201.669,176.173c-0.088,0.121-0.16,0.256-0.266,0.361c-10.705,10.718-21.412,21.434-32.121,32.147
		c-0.104,0.104-0.244,0.172-0.365,0.256c-0.729,0.038-0.861-0.594-1.109-1.043c-3.703-6.69-7.32-13.427-10.953-20.155
		c-0.604-1.117-1.311-1.622-2.582-1.575c-1.997,0.074-4,0.021-6,0.019c-2.035-0.002-4.071,0.043-6.102-0.137
		c-3.196-0.563-6.422-0.082-9.628-0.285c-7.927-1.074-12.855-5.733-15.404-13.085c-1.555-4.486-2.861-9.057-4.242-13.602
		c-0.202-0.666-0.417-1.343-0.185-2.054c3.902-0.018,7.807-0.133,11.705-0.015c2.243,0.068,4.028-0.62,5.76-1.997
		c8.935-7.105,17.925-14.141,26.896-21.2c0.117-0.092,0.235-0.196,0.371-0.252c0.809-0.336,1.598-1.262,2.448-0.778
		c0.729,0.415,0.31,1.47,0.312,2.231c0.024,8.056-0.063,16.113,0.056,24.167c0.045,3.065,0.207,6.142,1.336,9.116
		c2.39,6.29,9.095,11.023,15.821,11.226c4.904,0.148,9.158-1.344,12.806-4.502c2.267-1.963,3.883-4.546,5.877-6.779
		c0.714-0.8,1.313-1.702,2.166-2.377c0.692,0.895,0.782,2.013,1.11,3.04C200.154,171.32,200.908,173.748,201.669,176.173z"/>
	<path fill="#FEC56C" d="M172.818,147.624c0-4.5,0.049-9-0.031-13.499c-0.022-1.315,0.453-1.578,1.642-1.549
		c3.048,0.074,6.101,0.076,9.149,0.011c2.615-0.056,4.377,1.286,5.19,3.538c1.743,4.825,3.222,9.746,4.83,14.62
		c0.144,0.435,0.103,0.729-0.19,1.08c-3.828,4.594-7.549,9.281-11.509,13.757c-1.419,1.604-3.559,1.962-5.655,1.029
		c-2.228-0.99-3.379-2.783-3.408-5.189C172.781,156.825,172.818,152.224,172.818,147.624z"/>
	<path fill="#FEFEFE" d="M112.713,157.02c1.578,5.129,3.114,10.271,4.744,15.384c2.293,7.19,7.229,11.494,14.567,13.104
		c0.183,0.04,0.347,0.167,0.52,0.252c-4.643,0.005-9.288,0.089-13.929-0.004c-4.809-0.097-9.316-3.901-10.929-9.046
		c-1.324-4.219-2.636-8.443-3.934-12.67c-1.272-4.142,0.875-7.037,5.218-7.052C110.217,156.983,111.465,157.009,112.713,157.02z"/>
	<path fill="#FEFEFE" d="M142.172,186.046c0.417-0.404,0.947-0.253,1.426-0.255c3.802-0.017,7.605,0.023,11.405-0.034
		c0.945-0.014,1.414,0.334,1.844,1.133c3.789,7.028,7.618,14.035,11.439,21.045c0.188,0.346,0.418,0.668,0.631,1.002
		c-2.508,2.596-5.018,5.191-7.525,7.786c-0.73,0.148-0.764-0.482-0.971-0.892c-4.565-9.022-9.607-17.788-14.391-26.691
		C145.201,187.595,143.903,186.522,142.172,186.046z"/>
	<path fill="#004177" d="M143.346,154.244c3.478,0.032,6.219,2.865,6.157,6.362c-0.062,3.415-2.84,6.162-6.235,6.165
		c-3.449,0.003-6.247-2.834-6.228-6.314C137.058,156.968,139.856,154.212,143.346,154.244z"/>
	<g>
		<path d="M456.8,365.694l-48.553-48.554l34.639-20.006c2.707-1.563,4.281-4.535,4.057-7.651c-0.227-3.118-2.213-5.833-5.115-6.991
			l-154.455-61.613c-3.027-1.209-6.484-0.497-8.791,1.809c-2.307,2.306-3.02,5.763-1.811,8.791l61.604,154.474
			c1.158,2.902,3.875,4.891,6.99,5.115c3.119,0.227,6.092-1.35,7.652-4.057l20.006-34.639l48.549,48.553
			c1.529,1.53,3.605,2.391,5.77,2.391s4.238-0.86,5.77-2.391L456.8,377.23C459.985,374.046,459.985,368.88,456.8,365.694z"/>
		<path d="M251.056,183.625c-3.188-3.184-8.352-3.185-11.539,0c-3.186,3.187-3.186,8.353,0,11.539l18.128,18.128
			c1.593,1.593,3.681,2.39,5.769,2.39s4.176-0.797,5.77-2.39c3.186-3.186,3.186-8.352,0-11.538L251.056,183.625z"/>
		<path d="M257.199,240.027c0-4.505-3.652-8.159-8.158-8.159h-25.637c-4.506,0-8.16,3.653-8.16,8.159c0,4.506,3.653,8.16,8.16,8.16
			h25.637C253.546,248.186,257.199,244.533,257.199,240.027z"/>
		<path d="M253.892,265.207l-18.131,18.13c-3.186,3.187-3.186,8.353,0,11.538c1.594,1.594,3.682,2.391,5.77,2.391
			c2.086,0,4.176-0.797,5.769-2.391l18.13-18.129c3.188-3.188,3.188-8.354,0-11.539C262.244,262.024,257.08,262.023,253.892,265.207
			z"/>
		<path d="M295.915,201.307c4.506,0,8.16-3.653,8.16-8.159v-25.64c0-4.505-3.652-8.158-8.16-8.158c-4.504,0-8.158,3.652-8.158,8.158
			v25.641C287.757,197.654,291.411,201.307,295.915,201.307z"/>
		<path d="M326.86,211.927c2.09,0,4.178-0.796,5.771-2.389l18.127-18.128c3.186-3.187,3.186-8.353,0-11.539
			c-3.188-3.185-8.354-3.185-11.537,0L321.093,198c-3.188,3.187-3.188,8.352,0,11.538
			C322.687,211.13,324.772,211.927,326.86,211.927z"/>
	</g>
</g>
</svg>
