<?xml version="1.0" encoding="utf-8"?>
<!-- Generator: Adobe Illustrator 16.0.0, SVG Export Plug-In . SVG Version: 6.00 Build 0)  -->
<!DOCTYPE svg PUBLIC "-//W3C//DTD SVG 1.1//EN" "http://www.w3.org/Graphics/SVG/1.1/DTD/svg11.dtd">
<svg version="1.1" id="Layer_1" xmlns="http://www.w3.org/2000/svg" xmlns:xlink="http://www.w3.org/1999/xlink" x="0px" y="0px"
	 width="1920px" height="500px" viewBox="0 0 910.489 252.448" enable-background="new 0 0 910.489 252.448"
	 xml:space="preserve">
<g>
	<path fill-rule="evenodd" clip-rule="evenodd" fill="#B0D4E4" d="M694.226,139.315c3.032,1.019,3.222,0.863,4.243-1.983
		c4.629-12.898,13.647-20.608,27.209-22.969c15.297-2.663,31.062,6.269,36.812,21.156c0.582,1.508,1.283,1.667,2.632,1.383
		c13.002-2.737,25.703,4.594,29.885,17.216c0.396,1.197,0.773,2.402,1.208,3.752c5.335-2.52,10.688-2.965,16.256-0.8
		c8.619,3.351,13.676,14.527,10.296,23.03c-0.409,1.031-0.951,1.608-2.108,1.485c-0.475-0.052-0.959-0.007-1.438-0.007
		c-55.833,0-111.665,0-167.498,0c-3.43,0-3.268,0.02-2.787-3.498c0.382-2.795,1.971-5.003,2.973-7.492
		c2.848-5.029,7.518-7.254,12.944-7.809c2.442-0.25,4.044-0.912,5.533-2.936c3.187-4.328,7.686-6.891,12.874-8.182
		c1.244-0.311,1.884-0.417,1.734-2.165C684.539,144.215,689.192,139.292,694.226,139.315z"/>
	<path fill-rule="evenodd" clip-rule="evenodd" fill="#B0D4E4" d="M173.416,160.94c-24.868,0-49.737-0.026-74.604,0.047
		c-2.13,0.008-3.165-0.586-3.638-2.705c-1.513-6.773,0.47-12.353,5.725-16.677c4.735-3.897,10.225-4.819,15.936-2.582
		c2.178,0.853,2.734,0.528,3.28-1.639c2.16-8.587,10.23-15.266,18.949-16.379c2.602-0.332,5.126-0.31,7.566,0.228
		c1.847,0.407,2.28-0.27,2.868-1.684c2.63-6.331,6.96-11.247,12.93-14.594c9.465-5.308,19.201-5.458,28.851-0.672
		c7.651,3.795,12.716,10,15.22,18.201c0.306,1.003,0.634,1.434,1.796,1.345c5.324-0.406,9.259,3.188,9.242,8.52
		c-0.005,1.584,0.511,2.295,2.002,2.632c5.119,1.156,9.277,3.811,12.14,8.258c0.713,1.108,1.525,1.394,2.75,1.413
		c8.123,0.132,14.793,5.946,16.191,13.95c0.36,2.062-0.562,2.374-2.36,2.371C223.313,160.926,198.364,160.94,173.416,160.94z"/>
	<path fill-rule="evenodd" clip-rule="evenodd" fill="#B0D4E4" d="M386.077,172.521c2.745,2.531,5.73,4.843,7.495,8.26
		c0.532,1.03,1.139,0.767,1.933,0.259c4.166-2.664,8.664-3.503,13.504-2.329c7.356,1.783,12.25,7.875,13.011,15.1
		c0.129,1.221-0.365,1.805-1.63,1.692c-0.476-0.042-0.958-0.005-1.438-0.005c-44.527,0-89.055,0.001-133.582,0
		c-3.355,0-3.328-0.037-2.62-3.391c1.39-6.58,5.284-10.963,11.587-13.117c1.632-0.558,2.079-1.367,1.968-2.952
		c-0.484-6.895,0.941-13.251,4.995-19.023c6.953-9.902,20.955-14.108,32.17-9.663c6.045,2.396,10.571,6.439,13.98,11.838
		c0.684,1.082,1.282,1.426,2.51,0.935c1.243-0.498,2.581-0.757,3.877-1.12c6.564-0.752,11.654,1.811,15.419,7.068
		c0.968,1.352,1.853,2.003,3.639,2.014c3.592,0.023,7.117,0.782,10.419,2.297C384.386,170.873,385.536,171.321,386.077,172.521z"/>
	<path fill-rule="evenodd" clip-rule="evenodd" fill="#6DA7C5" d="M694.226,139.315c-1.221,0.525-2.493,0.959-3.655,1.593
		c-3.591,1.957-5.069,5.202-4.957,9.11c0.041,1.436-0.33,1.968-1.615,2.223c-6.069,1.203-10.813,4.423-14.25,9.551
		c-0.56,0.834-1.079,1.578-2.214,1.518c-6.213-0.333-11.054,2.334-15.042,6.877c-0.151,0.172-0.389,0.271-0.586,0.402
		c-9.837-0.016-19.675-0.032-29.512-0.051c-2.881-0.006-2.967-0.119-2.347-3.017c1.89-8.827,8.423-14.397,17.382-14.64
		c1.612-0.045,1.979-0.565,2.054-2.064c0.654-13.104,11.164-24.468,24.33-26.408C676.564,122.532,688.218,128.242,694.226,139.315z"
		/>
	<path fill-rule="evenodd" clip-rule="evenodd" fill="#6DA7C5" d="M386.077,172.521c-3.659-2.031-7.549-3.257-11.726-3.743
		c-3.02-0.351-4.546-1.509-6.71-3.836c-3.101-3.336-6.88-5.359-11.545-5.468c-0.77-0.02-1.62,0.232-2.257-0.471
		c4.138-3.596,8.903-5.268,14.367-4.387c1.737,0.28,1.915-0.58,2.25-1.863c2.659-10.192,9.119-16.383,19.529-18.363
		c12.51-2.38,25.571,7.05,27.255,19.693c0.095,0.711,0.329,1.424,0.307,2.129c-0.049,1.527,0.729,1.771,2.079,1.824
		c7.032,0.277,12.528,5.168,13.813,12.09c0.319,1.723-0.074,2.381-2.012,2.375C416.31,172.446,401.194,172.5,386.077,172.521z"/>
</g>
</svg>
