<?xml version="1.0" encoding="utf-8"?>
<!-- Generator: Adobe Illustrator 16.0.0, SVG Export Plug-In . SVG Version: 6.00 Build 0)  -->
<!DOCTYPE svg PUBLIC "-//W3C//DTD SVG 1.1//EN" "http://www.w3.org/Graphics/SVG/1.1/DTD/svg11.dtd">
<svg version="1.1" id="Layer_1" xmlns="http://www.w3.org/2000/svg" xmlns:xlink="http://www.w3.org/1999/xlink" x="0px" y="0px"
	 width="1920px" height="400px" viewBox="0 0 1920 400" enable-background="new 0 0 1920 400" xml:space="preserve">
<g>
	<path fill="#B0D4E4" d="M1503.038,256.896c6.82,2.292,7.246,1.94,9.544-4.46c10.41-29.007,30.689-46.346,61.191-51.654
		c34.4-5.99,69.855,14.098,82.787,47.577c1.309,3.392,2.885,3.75,5.919,3.109c29.24-6.154,57.804,10.333,67.209,38.718
		c0.892,2.692,1.738,5.403,2.717,8.438c11.998-5.666,24.036-6.668,36.558-1.798c19.385,7.535,30.757,32.669,23.155,51.792
		c-0.92,2.319-2.138,3.617-4.74,3.34c-1.068-0.116-2.156-0.017-3.234-0.017c-125.563,0-251.126,0-376.69,0
		c-7.714,0-7.351,0.046-6.269-7.866c0.86-6.286,4.434-11.25,6.688-16.849c6.405-11.31,16.907-16.313,29.109-17.563
		c5.493-0.562,9.095-2.051,12.443-6.603c7.167-9.732,17.285-15.498,28.952-18.4c2.799-0.7,4.237-0.938,3.9-4.869
		C1481.253,267.914,1491.719,256.844,1503.038,256.896z"/>
	<path fill="#B0D4E4" d="M331.774,305.528c-55.927,0-111.855-0.058-167.779,0.107c-4.791,0.017-7.118-1.32-8.182-6.085
		c-3.402-15.231,1.058-27.78,12.875-37.505c10.649-8.765,22.995-10.838,35.838-5.808c4.898,1.918,6.148,1.188,7.377-3.686
		c4.858-19.312,23.007-34.332,42.615-36.835c5.852-0.747,11.528-0.697,17.016,0.514c4.154,0.915,5.127-0.607,6.449-3.789
		c5.916-14.237,15.653-25.293,29.08-32.82c21.286-11.937,43.181-12.274,64.884-1.511c17.205,8.536,28.598,22.488,34.228,40.933
		c0.689,2.255,1.426,3.225,4.039,3.025c11.975-0.913,20.823,7.168,20.786,19.16c-0.013,3.563,1.148,5.162,4.501,5.919
		c11.511,2.6,20.864,8.571,27.302,18.572c1.604,2.492,3.429,3.136,6.185,3.178c18.268,0.297,33.268,13.372,36.412,31.373
		c0.81,4.638-1.264,5.339-5.307,5.33C443.988,305.497,387.88,305.528,331.774,305.528z"/>
	<path fill="#B0D4E4" d="M810.033,331.574c6.174,5.691,12.887,10.892,16.856,18.576c1.196,2.315,2.562,1.725,4.347,0.583
		c9.369-5.992,19.484-7.879,30.37-5.238c16.543,4.01,27.549,17.71,29.261,33.958c0.29,2.747-0.82,4.059-3.667,3.806
		c-1.069-0.095-2.154-0.012-3.233-0.012c-100.139,0-200.279,0.003-300.417,0c-7.544,0-7.483-0.083-5.891-7.626
		c3.126-14.798,11.883-24.655,26.058-29.498c3.671-1.257,4.675-3.074,4.426-6.64c-1.089-15.508,2.117-29.8,11.233-42.781
		c15.637-22.271,47.127-31.729,72.348-21.732c13.595,5.389,23.774,14.481,31.44,26.624c1.539,2.434,2.883,3.207,5.646,2.103
		c2.794-1.12,5.803-1.703,8.719-2.519c14.762-1.69,26.209,4.072,34.677,15.896c2.176,3.039,4.167,4.504,8.184,4.526
		c8.078,0.052,16.005,1.761,23.432,5.167C806.23,327.867,808.816,328.875,810.033,331.574z"/>
	<path fill="#6DA7C5" d="M1503.038,256.896c-2.745,1.18-5.605,2.156-8.219,3.583c-8.075,4.4-11.399,11.699-11.147,20.487
		c0.092,3.229-0.743,4.426-3.633,4.999c-13.648,2.707-24.317,9.948-32.048,21.48c-1.259,1.874-2.425,3.549-4.979,3.412
		c-13.973-0.748-24.859,5.251-33.829,15.467c-0.34,0.388-0.873,0.609-1.316,0.905c-22.123-0.036-44.248-0.072-66.371-0.116
		c-6.479-0.013-6.672-0.268-5.277-6.784c4.249-19.852,18.942-32.378,39.09-32.924c3.626-0.103,4.45-1.271,4.62-4.644
		c1.47-29.469,25.107-55.025,54.717-59.389C1463.318,219.151,1489.527,231.993,1503.038,256.896z"/>
	<path fill="#6DA7C5" d="M810.033,331.574c-8.229-4.568-16.978-7.325-26.371-8.419c-6.792-0.788-10.224-3.393-15.09-8.627
		c-6.974-7.501-15.473-12.05-25.964-12.297c-1.732-0.045-3.643,0.522-5.076-1.06c9.306-8.086,20.023-11.848,32.311-9.865
		c3.906,0.629,4.307-1.304,5.061-4.189c5.979-22.922,20.507-36.845,43.918-41.297c28.134-5.354,57.507,15.854,61.295,44.288
		c0.213,1.598,0.74,3.202,0.689,4.788c-0.109,3.435,1.64,3.983,4.677,4.103c15.814,0.622,28.174,11.62,31.063,27.189
		c0.718,3.874-0.166,5.354-4.524,5.34C878.025,331.405,844.03,331.527,810.033,331.574z"/>
</g>
</svg>
