<?xml version="1.0" encoding="utf-8"?>
<!-- Generator: Adobe Illustrator 16.0.0, SVG Export Plug-In . SVG Version: 6.00 Build 0)  -->
<!DOCTYPE svg PUBLIC "-//W3C//DTD SVG 1.1//EN" "http://www.w3.org/Graphics/SVG/1.1/DTD/svg11.dtd">
<svg version="1.1" id="Layer_1" xmlns="http://www.w3.org/2000/svg" xmlns:xlink="http://www.w3.org/1999/xlink" x="0px" y="0px"
	 width="512px" height="512px" viewBox="0 0 512 512" enable-background="new 0 0 512 512" xml:space="preserve">
<g>
	<g>
		<g>
			<path fill="#FFC66C" d="M207.375,174.383c-1.121-1.004-2.227-2.039-3.281-3.129c-6.512-6.746-11.395-14.895-14.27-23.82
				l-22.398-69.551c-2.523-7.828-9.805-13.137-18.027-13.137h-30.941L81.195,94H68.934l-12.738,10h-18.41
				c-1.867,3.848-2.375,8.406-0.965,12.938l6.832,22C47.543,151.465,59.137,160,72.254,160h33.273l19.941,36.629
				c9.156,16.816,12.996,36.02,11.012,55.066c-2.438,23.364,3.902,46.797,17.785,65.75l15.43,21.055v122.492l-11.969,16.492
				c-4.387,6.047-0.07,14.516,7.402,14.516h19.566v-50.898c0-28.262,7.875-55.93,22.68-79.922L207.375,174.383L207.375,174.383z"/>
			<path fill="#FFC66C" d="M438.527,295.148c2.434-7.807,3.668-15.932,3.668-24.105c0-44.758-36.285-81.043-81.043-81.043H248.254
				c-5.234,0-38.439-16.043-43.42-17.333v192.784c0.762-1.219,29.537-6.086,30.333-7.285l94.821-11.397L323.953,333l0.211,0.41
				c2.363,4.59,4.941,9.043,7.711,13.354l15.332,14.898L363.875,383l39.336,29.332L405.875,435l-10,56
				c-4.547,6.484,25.211,1,33.133,1h13.188V366.891c0-7.854-1.488-15.645-4.389-22.943c-5.25-13.229-5.805-27.859-1.568-41.449
				L438.527,295.148z"/>
		</g>
		<path fill="#FFC66C" d="M422.063,217.586l20.902-13.211c10.336-6.535,23.143-7.852,34.59-3.551
			c15.23,5.719,25.32,20.285,25.32,36.555v150.957c-21.563-15.598-34.332-40.594-34.332-67.207v-45.73
			c0-15.961-12.938-28.896-28.895-28.896L422.063,217.586z"/>
	</g>
	<path fill="#004177" d="M84.875,109.5c-2.629,0-5.207,1.07-7.07,2.93c-1.859,1.859-2.93,4.441-2.93,7.07s1.07,5.211,2.93,7.07
		c1.863,1.859,4.441,2.93,7.07,2.93c2.633,0,5.211-1.07,7.07-2.93c1.859-1.86,2.93-4.441,2.93-7.07s-1.07-5.211-2.93-7.07
		C90.085,110.571,87.508,109.5,84.875,109.5z"/>
	<polygon fill="#BA8E52" points="492.874,364.52 492.875,364.52 492.874,364.519 	"/>
	<path fill="#BA8E52" d="M234,190c0,5.523,4.477,10,10,10h12.536v-20H244C238.477,180,234,184.477,234,190z"/>
	<path fill="#BA8E52" d="M481.07,191.461c-14.303-5.367-30.543-3.699-43.449,4.461l-14.066,8.891
		C407.242,189.438,385.281,180,361.152,180H256.536v20h104.616c39.172,0,71.043,31.871,71.043,71.043
		c0,7.176-1.082,14.281-3.215,21.133l-2.289,7.348c-4.898,15.725-4.25,32.811,1.818,48.113c2.445,6.152,3.686,12.633,3.686,19.254
		V492h-27.777l5.965-8.508c1.18-1.686,1.813-3.688,1.813-5.742v-70.664c0-3.953-2.332-7.539-5.945-9.141
		c-31.453-13.965-57.449-38.508-73.19-69.109l-0.211-0.41c-2.527-4.91-8.56-6.848-13.47-4.314c-4.91,2.521-6.844,8.555-4.319,13.465
		l0.215,0.41c1.531,2.979,3.151,5.908,4.854,8.783l-84.935-0.001c0.113-0.481-4.445,10.398-37.445,9.731
		c-14.58,24.871-23.055,55.727-23.055,84.602V492h-32.887l10.98-15.133c1.238-1.707,1.906-3.768,1.906-5.875V348.5
		c0-2.125-0.676-4.195-1.934-5.91l-15.426-21.055c-6.285-8.574-10.887-18.289-13.582-28.535c0,0-3.806-18.423-4.127-25.5
		c-1.167-25.715,0.449-35.547,0.347-36.07l66.723-66.723c2.863,4.879,6.285,9.43,10.207,13.492c0.152,0.16,0.316,0.316,0.473,0.477
		C214.333,204.501,256.536,200,256.536,200H244c-5.523,0-10-4.477-10-10s4.477-10,10-10h12.536
		c-24.411-3.125-35.411-5.875-45.052-15.501c-0.064-0.064-9.609-11.999-12.14-20.132c-5.428-17.442-22.402-69.551-22.402-69.551
		c-3.863-12.004-14.934-20.066-27.543-20.066h-36.656c-6.453,0-12.797,2.191-17.871,6.176L52.738,94H28.715
		c-8.895,0-17.02,4.105-22.297,11.27c-5.273,7.164-6.785,16.141-4.148,24.637l6.836,21.996C14.324,168.707,29.652,180,47.254,180
		h27.332l17.102,31.41c4.762,8.75,7.879,18.109,9.34,27.883c-3.031,13.405-1.028,37.539,1.211,48.445
		c2.586,16.453,9.109,32.164,18.961,45.617l13.496,18.418V467.75l-10.063,13.863c-4.246,5.854-4.848,13.496-1.559,19.938
		c3.285,6.445,9.82,10.449,17.055,10.449h44.566c5.523,0,10-4.477,10-10v-60.898c0-23.059,5.598-45.689,16.254-66.02
		c2.273,0.809,4.711,1.254,7.258,1.254c9.684,0,18.535-3.621,25.293-9.566h90.477c15.695,19.543,35.594,35.57,58.219,46.682v61.146
		l-4.391,6.264c-4.25,6.064-4.77,13.914-1.352,20.486c3.418,6.57,10.145,10.652,17.555,10.652h38.188c5.521,0,10-4.477,10-10
		V366.891c0-9.158-1.715-18.121-5.09-26.633c-4.393-11.064-4.859-23.418-1.32-34.785l2.289-7.352
		c2.732-8.773,4.121-17.887,4.121-27.078c0-3.469-0.203-6.891-0.582-10.258c4.227,3.469,6.93,8.727,6.93,14.609v45.729
		c0,29.73,14.383,57.887,38.473,75.309c1.738,1.26,3.793,1.898,5.863,1.898c1.551,0,3.113-0.363,4.547-1.098
		c3.344-1.707,5.453-5.146,5.453-8.902V237.383C512.875,217.059,500.094,198.605,481.07,191.461z M132.195,74.75h17.203
		c3.895,0,7.313,2.492,8.508,6.199l7.734,24.012l-18.234,21.938c-1.641,1.969-4.047,3.102-6.613,3.102
		c-4.738,0-8.598-3.855-8.598-8.598V74.75z M109.252,201.848l-19.939-36.629C87.559,162,84.191,160,80.527,160H47.254
		c-8.789,0-16.445-5.641-19.051-14.031l-6.836-21.996c-0.73-2.359-0.313-4.855,1.152-6.844c1.465-1.989,3.723-3.129,6.196-3.129
		h27.477c2.242,0,4.414-0.754,6.176-2.137l44.852-35.207c1.426-1.117,3.172-1.773,4.973-1.883v46.625
		c0,15.773,12.832,28.602,28.602,28.602c8.527,0,16.543-3.762,21.992-10.32l10.117-12.168l5.531,17.172l-65.23,65.23
		C112.006,207.184,110.693,204.492,109.252,201.848z M492.874,364.52L492.874,364.52c-9.179-12.423-14.331-27.626-14.331-43.395
		v-45.73c0-19.434-14.328-35.584-32.977-38.443c-2.398-5.914-5.396-11.523-8.924-16.75l11.664-7.371
		c7.646-4.832,17.264-5.816,25.73-2.641c11.266,4.23,18.836,15.16,18.836,27.195L492.874,364.52L492.874,364.52L492.874,364.52z"/>
</g>
</svg>
