<?xml version="1.0" encoding="utf-8"?>
<!-- Generator: Adobe Illustrator 16.0.0, SVG Export Plug-In . SVG Version: 6.00 Build 0)  -->
<!DOCTYPE svg PUBLIC "-//W3C//DTD SVG 1.1//EN" "http://www.w3.org/Graphics/SVG/1.1/DTD/svg11.dtd">
<svg version="1.1" id="Layer_1" xmlns="http://www.w3.org/2000/svg" xmlns:xlink="http://www.w3.org/1999/xlink" x="0px" y="0px"
	 width="921.523px" height="115.189px" viewBox="0 0 921.523 115.189" enable-background="new 0 0 921.523 115.189"
	 xml:space="preserve">
<g>
	<g>
		<path fill="#3D3E40" d="M675.27,93.102c3.899-0.001,3.538,0.6,3.541-3.604c0.013-26.713,0.007-53.425,0.008-80.139
			c0-3.45,0.004-3.457,3.332-3.457c34.148-0.001,68.301-0.001,102.448,0c3.336,0,3.342,0.006,3.342,3.449
			c0.001,26.873,0,53.745,0.002,80.617c0,3.138,0.004,3.141,3.059,3.141c43.667,0.002,87.335,0.002,131.003,0.003
			c0,4.159,0,8.319,0,12.479c-0.646,0.847-1.562,1.037-2.552,1.085c-1.521,0.073-3.039,0.059-4.561,0.059
			c-302.437,0.002-604.874,0.002-907.31,0c-1.52,0-3.04,0.017-4.559-0.059c-0.989-0.047-1.901-0.242-2.545-1.085
			c0-4.158,0-8.318,0-12.479c0.646-0.844,1.561-1.037,2.551-1.085c1.438-0.068,2.878-0.058,4.317-0.058
			c33.105-0.003,66.21,0.002,99.315-0.004c5.221-0.001,5.46-0.233,5.462-5.368c0.008-25.27-0.004-50.537,0.007-75.806
			c0.003-6.636,0.019-6.65,6.682-6.651c31.106-0.008,62.212-0.01,93.318,0.001c6.354,0.002,6.424,0.071,6.428,6.42
			c0.014,25.27,0.002,50.537,0.007,75.807c0.001,5.454-0.106,7.726,5.447,7.727C264.873,94.099,568.58,93.113,675.27,93.102z"/>
		<path fill="#818487" d="M0.48,105.591c307.174,0,614.349,0,921.524,0c0,3.04-0.04,6.081,0.026,9.119
			c0.018,0.835-0.15,1.125-0.989,0.974c-0.387-0.07-0.797-0.013-1.197-0.013c-305.732,0-611.469-0.002-917.204,0.044
			c-1.799,0-2.328-0.392-2.205-2.207C0.612,110.88,0.48,108.231,0.48,105.591z"/>
	</g>
</g>
</svg>
