<?xml version="1.0" encoding="utf-8"?>
<!-- Generator: Adobe Illustrator 16.0.0, SVG Export Plug-In . SVG Version: 6.00 Build 0)  -->
<!DOCTYPE svg PUBLIC "-//W3C//DTD SVG 1.1//EN" "http://www.w3.org/Graphics/SVG/1.1/DTD/svg11.dtd">
<svg version="1.1" id="Layer_1" xmlns="http://www.w3.org/2000/svg" xmlns:xlink="http://www.w3.org/1999/xlink" x="0px" y="0px"
	 width="526.971px" height="174.473px" viewBox="0 0 526.971 174.473" enable-background="new 0 0 526.971 174.473"
	 xml:space="preserve">
<g id="Layer_1_1_" display="none">
</g>
<g>
	<g id="Layer_2">
		<g>
			<g>
				<rect x="163.5" y="56.246" fill="#DB6161" width="170.833" height="110.624"/>
				<rect x="163.5" y="56.246" fill="#A04848" width="170.833" height="10.192"/>
				<rect x="228.584" y="98.776" fill="#A04848" width="105.749" height="6.471"/>
			</g>
			<g>
				<polygon fill="#899D34" points="409.134,0 452.764,82.431 434.41,82.431 465,152.302 408.974,152.302 				"/>
				<polygon fill="#616F27" points="408.974,0 365.987,83.074 383.054,83.074 353.108,152.302 408.813,152.302 				"/>
				<polygon fill="#73582D" points="409.034,166.87 417.849,166.87 417.849,152.302 408.875,152.302 				"/>
				<polygon fill="#A16A2D" points="408.875,152.302 400.099,152.302 400.099,166.87 409.034,166.87 				"/>
			</g>
			<rect y="166.87" fill="#B8CC73" width="526.971" height="7.603"/>
			<g>
				<rect x="19.917" y="143.414" fill="#7D5940" width="65.75" height="8.833"/>
				<rect x="19.917" y="155.413" fill="#7D5940" width="65.75" height="3.75"/>
				<rect x="19.917" y="143.414" fill="#62452F" width="65.75" height="3.833"/>
				<rect x="19.917" y="155.413" fill="#62452F" width="65.75" height="1.333"/>
				<rect x="26" y="141.83" fill="#7D5940" width="3.333" height="25.04"/>
				<rect x="76.667" y="141.83" fill="#7D5940" width="3.333" height="25.04"/>
			</g>
			<g>
				<polygon fill="#73582D" points="131.868,166.87 135.833,166.87 135.833,152.302 131.797,152.302 				"/>
				<polygon fill="#A16A2D" points="131.797,152.302 127.85,152.302 127.85,166.87 131.868,166.87 				"/>
				<path fill="#76882D" d="M131.797,152.302C80,152.302,103,102.746,103,102.746l28.797-66V152.302z"/>
				<path fill="#93AB4B" d="M131.797,152.302c51.797,0,28.203-49.806,28.203-49.806l-28.203-65.75V152.302z"/>
			</g>
			<rect x="230.833" y="164.163" fill="#666C6F" width="115.333" height="2.707"/>
			<rect x="292" y="110.33" fill="#FFFFFF" width="34.5" height="53.833"/>
			<rect x="295.75" y="115.663" fill="#9F896F" width="27" height="48.5"/>
			<g>
				<rect x="293.917" y="124.996" fill="#FFFFFF" width="30.666" height="2.334"/>
				<rect x="293.917" y="154.163" fill="#FFFFFF" width="30.666" height="2.334"/>
				<rect x="308.083" y="125.747" fill="#FFFFFF" width="2.334" height="30.666"/>
			</g>
			<rect x="295.75" y="115.663" fill="#85745E" width="27" height="3.333"/>
			<rect x="318.5" y="118.996" fill="#85745E" width="4.25" height="6"/>
			<rect x="318.5" y="127.33" fill="#85745E" width="4.25" height="26.833"/>
			<rect x="318.5" y="156.497" fill="#85745E" width="4.25" height="7.666"/>
			<rect x="310.417" y="127.33" fill="#85745E" width="12.333" height="2.041"/>
			<rect x="295.75" y="127.33" fill="#85745E" width="12.333" height="2.041"/>
			<rect x="295.75" y="156.497" fill="#85745E" width="27" height="2.041"/>
			<g>
				<g>
					<rect x="182.084" y="115.663" fill="#FFFFFF" width="30.417" height="32.833"/>
					<g>
						<rect x="184.584" y="118.413" fill="#7D9EA5" width="25.417" height="12.833"/>
						<rect x="184.584" y="118.413" fill="#637F83" width="25.417" height="3.75"/>
						<rect x="205.001" y="118.413" fill="#637F83" width="5" height="12.833"/>
					</g>
					<g>
						<rect x="184.584" y="133.747" fill="#7D9EA5" width="25.417" height="12.833"/>
						<rect x="184.584" y="133.747" fill="#637F83" width="25.417" height="3.75"/>
						<rect x="205.001" y="133.747" fill="#637F83" width="5" height="12.833"/>
					</g>
				</g>
				<g>
					<rect x="243.084" y="103.872" fill="#FFFFFF" width="30.418" height="32.833"/>
					<g>
						<rect x="245.584" y="106.622" fill="#7D9EA5" width="25.418" height="12.833"/>
						<rect x="245.584" y="106.622" fill="#637F83" width="25.418" height="3.75"/>
						<rect x="266.002" y="106.622" fill="#637F83" width="5" height="12.833"/>
					</g>
					<g>
						<rect x="245.584" y="121.956" fill="#7D9EA5" width="25.418" height="12.833"/>
						<rect x="245.584" y="121.956" fill="#637F83" width="25.418" height="3.75"/>
						<rect x="266.002" y="121.956" fill="#637F83" width="5" height="12.833"/>
					</g>
				</g>
				<g>
					<rect x="182.084" y="72.663" fill="#FFFFFF" width="30.417" height="23.25"/>
					<g>
						<rect x="184.584" y="74.612" fill="#7D9EA5" width="25.417" height="9.086"/>
						<rect x="184.584" y="74.612" fill="#637F83" width="25.417" height="2.654"/>
						<rect x="205.001" y="74.612" fill="#637F83" width="5" height="9.086"/>
					</g>
					<g>
						<rect x="184.584" y="85.469" fill="#7D9EA5" width="25.417" height="9.087"/>
						<rect x="184.584" y="85.469" fill="#637F83" width="25.417" height="2.655"/>
						<rect x="205.001" y="85.469" fill="#637F83" width="5" height="9.087"/>
					</g>
				</g>
			</g>
			<g>
				<rect x="340" y="98.621" fill="#98846E" width="3.875" height="65.542"/>
				<rect x="280.25" y="98.621" fill="#98846E" width="3.875" height="65.542"/>
				<rect x="233.125" y="98.621" fill="#98846E" width="3.875" height="65.542"/>
				<rect x="237" y="144.496" fill="#98846E" width="43.25" height="4"/>
				<rect x="241.875" y="148.496" fill="#98846E" width="1.75" height="15.667"/>
				<rect x="246.75" y="148.496" fill="#98846E" width="1.75" height="15.667"/>
				<rect x="252.5" y="148.496" fill="#98846E" width="1.75" height="15.667"/>
				<rect x="257.418" y="148.496" fill="#98846E" width="1.75" height="15.667"/>
				<rect x="263.168" y="148.496" fill="#98846E" width="1.75" height="15.667"/>
				<rect x="268.502" y="148.496" fill="#98846E" width="1.75" height="15.667"/>
				<rect x="274.25" y="148.496" fill="#98846E" width="1.75" height="15.667"/>
			</g>
			<g>
				<polygon fill="#6F7473" points="348.417,98.776 228.584,98.776 243.334,65.163 334.584,65.163 				"/>
				<polygon fill="#5F6465" points="337.685,72.663 240.027,72.663 243.334,65.163 334.75,65.163 				"/>
			</g>
			<polygon fill="#6F7473" points="343.875,56.246 154.5,56.246 178,12.496 320.625,12.496 			"/>
		</g>
	</g>
	<rect x="295.75" y="115.663" fill="#3F3F3F" width="27" height="48.5"/>
	<rect x="293.984" y="115.663" fill="#9F896F" width="3.32" height="48.5"/>
</g>
</svg>
