<?xml version="1.0" encoding="utf-8"?>
<!-- Generator: Adobe Illustrator 16.0.0, SVG Export Plug-In . SVG Version: 6.00 Build 0)  -->
<!DOCTYPE svg PUBLIC "-//W3C//DTD SVG 1.1//EN" "http://www.w3.org/Graphics/SVG/1.1/DTD/svg11.dtd">
<svg version="1.1" id="Layer_1" xmlns="http://www.w3.org/2000/svg" xmlns:xlink="http://www.w3.org/1999/xlink" x="0px" y="0px"
	 width="519.868px" height="189.971px" viewBox="0 0 519.868 189.971" enable-background="new 0 0 519.868 189.971"
	 xml:space="preserve">
<g id="Layer_1_1_" display="none">
</g>
<g id="Layer_2">
	<g>
		<g>
			<rect x="195.427" y="93.998" fill="#EDD35A" width="168.834" height="87.375"/>
			<rect x="195.427" y="93.998" fill="#E4BA55" width="168.834" height="12.479"/>
		</g>
		<g>
			<polygon fill="#899D34" points="445.429,0 490.596,85.334 471.596,85.334 503.263,157.667 445.263,157.667 			"/>
			<polygon fill="#616F27" points="445.263,0 400.763,86 418.43,86 387.43,157.667 445.097,157.667 			"/>
			<polygon fill="#73582D" points="445.325,172.748 454.45,172.748 454.45,157.667 445.161,157.667 			"/>
			<polygon fill="#A16A2D" points="445.161,157.667 436.075,157.667 436.075,172.748 445.325,172.748 			"/>
		</g>
		<g>
			<polygon fill="#899D34" points="123.238,36.994 158.733,104.054 143.802,104.054 168.687,160.897 123.108,160.897 			"/>
			<polygon fill="#616F27" points="123.108,36.994 88.137,104.577 102.021,104.577 77.66,160.897 122.978,160.897 			"/>
			<polygon fill="#73582D" points="123.157,172.748 130.327,172.748 130.327,160.897 123.028,160.897 			"/>
			<polygon fill="#A16A2D" points="123.028,160.897 115.888,160.897 115.888,172.748 123.157,172.748 			"/>
		</g>
		<g>
			<rect x="364.261" y="172.748" fill="#B8CC73" width="143.479" height="8.625"/>
			<rect y="181.373" fill="#76882D" width="519.868" height="8.598"/>
			<rect x="63.677" y="172.748" fill="#B8CC73" width="131.75" height="8.625"/>
		</g>
		<g>
			<rect x="220.427" y="121.664" fill="#FFFFFF" width="34.167" height="57.001"/>
			<rect x="224.094" y="126.997" fill="#9E896F" width="26.833" height="51.668"/>
			<rect x="216.427" y="178.665" fill="#648084" width="42.167" height="2.708"/>
			<rect x="223.302" y="136.623" fill="#FFFFFF" width="27.625" height="2.25"/>
			<rect x="223.302" y="157.748" fill="#FFFFFF" width="27.625" height="2.25"/>
			<rect x="224.052" y="126.997" fill="#7A6B56" width="26.875" height="3.501"/>
			<rect x="246.146" y="130.498" fill="#7A6B56" width="4.781" height="6.125"/>
			<rect x="224.052" y="138.873" fill="#7A6B56" width="26.875" height="3.501"/>
			<rect x="246.146" y="142.374" fill="#7A6B56" width="4.781" height="15.374"/>
			<rect x="224.052" y="159.998" fill="#7A6B56" width="26.875" height="3.501"/>
			<rect x="246.146" y="163.499" fill="#7A6B56" width="4.781" height="15.166"/>
		</g>
		<g>
			<rect x="169.927" y="162.862" fill="#C6C0B3" width="44.75" height="5.074"/>
			<rect x="169.927" y="172.748" fill="#C6C0B3" width="44.75" height="5.074"/>
			<rect x="169.927" y="161.748" fill="#F8F2E2" width="44.75" height="5.074"/>
			<rect x="169.927" y="171.987" fill="#F8F2E2" width="44.75" height="5.074"/>
			<polygon fill="#F8F2E2" points="209.802,154.498 212.427,158.873 212.427,181.373 207.052,181.373 207.052,158.873 			"/>
			<polygon fill="#F8F2E2" points="201.552,154.498 204.177,158.873 204.177,181.373 198.802,181.373 198.802,158.873 			"/>
			<polygon fill="#F8F2E2" points="192.802,154.498 195.427,158.873 195.427,181.373 190.052,181.373 190.052,158.873 			"/>
			<polygon fill="#F8F2E2" points="184.177,154.498 186.802,158.873 186.802,181.373 181.427,181.373 181.427,158.873 			"/>
			<polygon fill="#F8F2E2" points="175.677,154.498 178.302,158.873 178.302,181.373 172.927,181.373 172.927,158.873 			"/>
		</g>
		<g>
			<rect x="281.677" y="112.998" fill="#FFFFFF" width="68.167" height="49.863"/>
			<rect x="285.01" y="115.811" fill="#7E9FA6" width="61.5" height="43.063"/>
			<g>
				<rect x="284.513" y="136.623" fill="#FFFFFF" width="64.334" height="2.25"/>
				<rect x="295.847" y="114.498" fill="#FFFFFF" width="2.5" height="46.398"/>
				<rect x="308.347" y="114.498" fill="#FFFFFF" width="2.5" height="46.398"/>
				<rect x="320.847" y="114.498" fill="#FFFFFF" width="2.5" height="46.398"/>
				<rect x="333.18" y="114.498" fill="#FFFFFF" width="2.5" height="46.398"/>
			</g>
			<g>
				<rect x="285.01" y="115.811" fill="#648084" width="10.837" height="3.688"/>
				<rect x="293.511" y="119.498" fill="#648084" width="2.336" height="17.125"/>
			</g>
			<g>
				<rect x="285.01" y="138.873" fill="#648084" width="10.837" height="3.688"/>
				<rect x="293.511" y="142.561" fill="#648084" width="2.336" height="16.313"/>
			</g>
			<g>
				<rect x="298.347" y="138.873" fill="#648084" width="10.837" height="3.688"/>
				<rect x="306.848" y="142.561" fill="#648084" width="2.336" height="16.313"/>
			</g>
			<g>
				<rect x="310.847" y="138.873" fill="#648084" width="10.332" height="3.688"/>
				<rect x="318.843" y="142.561" fill="#648084" width="2.336" height="16.313"/>
			</g>
			<g>
				<rect x="323.347" y="138.873" fill="#648084" width="10.837" height="3.688"/>
				<rect x="331.848" y="142.561" fill="#648084" width="2.336" height="16.313"/>
			</g>
			<g>
				<rect x="335.68" y="138.873" fill="#648084" width="10.837" height="3.688"/>
				<rect x="344.181" y="142.561" fill="#648084" width="2.336" height="16.313"/>
			</g>
			<g>
				<rect x="335.68" y="115.811" fill="#648084" width="10.837" height="3.688"/>
				<rect x="344.181" y="119.498" fill="#648084" width="2.336" height="17.125"/>
			</g>
			<g>
				<rect x="323.347" y="115.811" fill="#648084" width="9.856" height="3.688"/>
				<rect x="330.867" y="119.498" fill="#648084" width="2.336" height="17.125"/>
			</g>
			<g>
				<rect x="310.903" y="115.811" fill="#648084" width="9.943" height="3.688"/>
				<rect x="318.521" y="119.426" fill="#648084" width="2.336" height="17.125"/>
			</g>
			<g>
				<rect x="298.302" y="115.811" fill="#648084" width="10.045" height="3.688"/>
				<rect x="306.011" y="119.498" fill="#648084" width="2.336" height="17.125"/>
			</g>
		</g>
		<g>
			<polygon fill="#444745" points="381.575,93.998 187.45,93.998 280.491,3.172 			"/>
			<polygon fill="#3E413E" points="190.052,93.998 316.68,93.998 247.177,36.994 			"/>
			<polygon fill="#5B5F5F" points="178.469,93.998 298.514,93.998 235.594,36.994 			"/>
			<polygon fill="#444745" points="324.994,43.159 324.994,26.248 312.552,26.248 312.552,32.498 			"/>
		</g>
	</g>
</g>
</svg>
