<?xml version="1.0" encoding="utf-8"?>
<!-- Generator: Adobe Illustrator 16.0.0, SVG Export Plug-In . SVG Version: 6.00 Build 0)  -->
<!DOCTYPE svg PUBLIC "-//W3C//DTD SVG 1.1//EN" "http://www.w3.org/Graphics/SVG/1.1/DTD/svg11.dtd">
<svg version="1.1" id="OBJECTS" xmlns="http://www.w3.org/2000/svg" xmlns:xlink="http://www.w3.org/1999/xlink" x="0px" y="0px"
	 width="359.334px" height="173.333px" viewBox="0 0 359.334 173.333" enable-background="new 0 0 359.334 173.333"
	 xml:space="preserve">
<g>
	<g>
		<g>
			<g>
				<g>
					<path fill="none" stroke="#000E42" stroke-width="16.6741" d="M49.233,74.802c-2.695-0.637-4.908-1.494-6.639-2.572
						l3.724-8.428c1.633,0.947,3.462,1.707,5.488,2.278c2.025,0.572,3.969,0.857,5.831,0.857c1.6,0,2.744-0.154,3.43-0.466
						c0.686-0.31,1.029-0.775,1.029-1.396c0-0.718-0.45-1.257-1.348-1.616c-0.899-0.359-2.376-0.751-4.435-1.177
						c-2.646-0.555-4.851-1.151-6.615-1.788c-1.764-0.637-3.3-1.682-4.606-3.136c-1.307-1.453-1.96-3.422-1.96-5.904
						c0-2.156,0.604-4.116,1.813-5.881c1.208-1.764,3.014-3.151,5.415-4.165c2.401-1.012,5.317-1.519,8.747-1.519
						c2.352,0,4.663,0.253,6.934,0.76c2.27,0.507,4.271,1.249,6.002,2.229l-3.479,8.379c-3.365-1.698-6.55-2.548-9.555-2.548
						c-2.973,0-4.459,0.719-4.459,2.155c0,0.687,0.441,1.201,1.323,1.544c0.882,0.343,2.335,0.711,4.361,1.103
						c2.613,0.49,4.818,1.054,6.615,1.69c1.796,0.637,3.356,1.675,4.679,3.111c1.323,1.438,1.985,3.398,1.985,5.88
						c0,2.156-0.605,4.108-1.813,5.855c-1.209,1.748-3.014,3.137-5.415,4.165c-2.401,1.029-5.316,1.544-8.747,1.544
						C54.697,75.758,51.928,75.44,49.233,74.802z"/>
					<path fill="none" stroke="#000E42" stroke-width="16.6741" d="M84.88,73.48c-2.908-1.52-5.187-3.643-6.835-6.37
						c-1.65-2.728-2.475-5.823-2.475-9.286c0-3.462,0.825-6.558,2.475-9.285c1.649-2.728,3.928-4.851,6.835-6.37
						c2.907-1.519,6.174-2.278,9.8-2.278c3.332,0,6.304,0.588,8.918,1.764c2.613,1.177,4.769,2.875,6.468,5.097l-7.301,6.517
						c-2.124-2.678-4.623-4.018-7.497-4.018c-2.418,0-4.361,0.776-5.831,2.327c-1.47,1.552-2.205,3.635-2.205,6.247
						c0,2.614,0.735,4.696,2.205,6.248c1.47,1.552,3.413,2.327,5.831,2.327c2.874,0,5.373-1.339,7.497-4.018l7.301,6.517
						c-1.699,2.222-3.855,3.92-6.468,5.096c-2.614,1.177-5.586,1.765-8.918,1.765C91.054,75.758,87.788,74.999,84.88,73.48z"/>
					<path fill="none" stroke="#000E42" stroke-width="16.6741" d="M120.699,73.456c-2.94-1.535-5.243-3.667-6.909-6.395
						s-2.499-5.807-2.499-9.237c0-3.43,0.833-6.508,2.499-9.236c1.666-2.727,3.969-4.858,6.909-6.395
						c2.939-1.535,6.255-2.303,9.947-2.303c3.69,0,7.007,0.768,9.946,2.303c2.94,1.536,5.243,3.668,6.909,6.395
						c1.666,2.729,2.499,5.807,2.499,9.236c0,3.431-0.833,6.51-2.499,9.237s-3.969,4.859-6.909,6.395
						c-2.939,1.534-6.256,2.303-9.946,2.303C126.954,75.758,123.639,74.99,120.699,73.456z M134.542,65.345
						c1.159-0.702,2.082-1.697,2.769-2.988c0.686-1.29,1.028-2.801,1.028-4.533c0-1.73-0.343-3.241-1.028-4.532
						c-0.687-1.29-1.609-2.286-2.769-2.989c-1.16-0.702-2.459-1.053-3.896-1.053c-1.438,0-2.736,0.351-3.896,1.053
						c-1.16,0.703-2.083,1.699-2.769,2.989c-0.687,1.291-1.029,2.802-1.029,4.532c0,1.732,0.343,3.243,1.029,4.533
						c0.686,1.291,1.608,2.286,2.769,2.988c1.159,0.703,2.457,1.054,3.896,1.054C132.083,66.399,133.382,66.048,134.542,65.345z"/>
					<path fill="none" stroke="#000E42" stroke-width="16.6741" d="M162.251,73.456c-2.94-1.535-5.243-3.667-6.909-6.395
						s-2.499-5.807-2.499-9.237c0-3.43,0.833-6.508,2.499-9.236c1.666-2.727,3.969-4.858,6.909-6.395
						c2.939-1.535,6.255-2.303,9.947-2.303c3.69,0,7.007,0.768,9.945,2.303c2.94,1.536,5.244,3.668,6.91,6.395
						c1.666,2.729,2.498,5.807,2.498,9.236c0,3.431-0.832,6.51-2.498,9.237s-3.97,4.859-6.91,6.395
						c-2.938,1.534-6.255,2.303-9.945,2.303C168.506,75.758,165.19,74.99,162.251,73.456z M176.094,65.345
						c1.159-0.702,2.082-1.697,2.769-2.988c0.686-1.29,1.028-2.801,1.028-4.533c0-1.73-0.343-3.241-1.028-4.532
						c-0.687-1.29-1.609-2.286-2.769-2.989c-1.16-0.702-2.459-1.053-3.896-1.053c-1.438,0-2.736,0.351-3.896,1.053
						c-1.16,0.703-2.083,1.699-2.769,2.989c-0.687,1.291-1.029,2.802-1.029,4.532c0,1.732,0.343,3.243,1.029,4.533
						c0.686,1.291,1.608,2.286,2.769,2.988c1.159,0.703,2.457,1.054,3.896,1.054C173.635,66.399,174.934,66.048,176.094,65.345z"/>
					<path fill="none" stroke="#000E42" stroke-width="16.6741" d="M220.56,42.242c2.354,1.046,4.166,2.549,5.439,4.509
						s1.91,4.246,1.91,6.859c0,2.614-0.637,4.9-1.91,6.86c-1.273,1.96-3.087,3.463-5.439,4.508
						c-2.352,1.046-5.111,1.568-8.281,1.568h-4.947v8.428h-11.564v-34.3h16.514C215.446,40.674,218.208,41.197,220.56,42.242z
						 M215.071,56.575c0.783-0.702,1.177-1.69,1.177-2.965c0-1.273-0.394-2.262-1.177-2.964s-1.961-1.054-3.527-1.054h-4.214v8.036
						h4.214C213.11,57.628,214.288,57.278,215.071,56.575z"/>
					<path fill="none" stroke="#000E42" stroke-width="16.6741" d="M265.248,40.674v22.98c0,3.528-0.72,6.55-2.156,9.065
						c-1.438,2.515-3.479,4.418-6.125,5.708c-2.646,1.29-5.766,1.936-9.358,1.936c-3.104,0-5.922-0.367-8.453-1.103
						c-2.531-0.734-4.729-1.756-6.59-3.063l4.215-8.183c1.6,1.013,3.289,1.788,5.07,2.327c1.78,0.539,3.521,0.809,5.219,0.809
						c2.353,0,4.043-0.547,5.072-1.642c1.027-1.094,1.543-2.833,1.543-5.218v-0.98c-2.188,2.483-5.113,3.724-8.771,3.724
						c-4.313,0-7.604-1.216-9.874-3.65c-2.271-2.433-3.405-5.969-3.405-10.608V40.674h11.564v11.27c0,1.928,0.416,3.365,1.248,4.313
						c0.834,0.948,2.115,1.421,3.848,1.421c1.633,0,2.939-0.48,3.92-1.445c0.98-0.964,1.471-2.523,1.471-4.68V40.674H265.248z"/>
					<path fill="none" stroke="#000E42" stroke-width="16.6741" d="M279.849,39.841c1.209,1.144,1.813,2.663,1.813,4.557
						c0,0.85-0.115,1.699-0.343,2.548c-0.229,0.851-0.752,2.141-1.568,3.871l-3.43,7.301h-6.86l2.45-8.28
						c-1.014-0.49-1.797-1.201-2.352-2.132c-0.558-0.931-0.834-2.033-0.834-3.308c0-1.894,0.604-3.413,1.813-4.557
						c1.208-1.144,2.76-1.715,4.655-1.715C277.088,38.126,278.642,38.698,279.849,39.841z"/>
					<path fill="none" stroke="#000E42" stroke-width="16.6741" d="M290.408,74.802c-2.695-0.637-4.908-1.494-6.64-2.572
						l3.725-8.428c1.633,0.947,3.462,1.707,5.486,2.278c2.025,0.572,3.971,0.857,5.832,0.857c1.601,0,2.744-0.154,3.431-0.466
						c0.686-0.31,1.028-0.775,1.028-1.396c0-0.718-0.449-1.257-1.349-1.616s-2.376-0.751-4.435-1.177
						c-2.646-0.555-4.852-1.151-6.614-1.788c-1.765-0.637-3.3-1.682-4.606-3.136c-1.307-1.453-1.959-3.422-1.959-5.904
						c0-2.156,0.604-4.116,1.813-5.881c1.208-1.764,3.014-3.151,5.414-4.165c2.4-1.012,5.316-1.519,8.747-1.519
						c2.352,0,4.661,0.253,6.934,0.76c2.271,0.507,4.271,1.249,6.002,2.229l-3.479,8.379c-3.365-1.698-6.552-2.548-9.556-2.548
						c-2.974,0-4.459,0.719-4.459,2.155c0,0.687,0.44,1.201,1.322,1.544c0.883,0.343,2.335,0.711,4.361,1.103
						c2.611,0.49,4.816,1.054,6.613,1.69c1.797,0.636,3.356,1.675,4.681,3.111c1.323,1.438,1.983,3.398,1.983,5.88
						c0,2.156-0.604,4.108-1.813,5.855c-1.209,1.748-3.014,3.137-5.415,4.165c-2.399,1.029-5.315,1.544-8.746,1.544
						C295.872,75.758,293.104,75.44,290.408,74.802z"/>
				</g>
				<g>
					<path fill="none" stroke="#000E42" stroke-width="16.6741" d="M49.233,74.802c-2.695-0.637-4.908-1.494-6.639-2.572
						l3.724-8.428c1.633,0.947,3.462,1.707,5.488,2.278c2.025,0.572,3.969,0.857,5.831,0.857c1.6,0,2.744-0.154,3.43-0.466
						c0.686-0.31,1.029-0.775,1.029-1.396c0-0.718-0.45-1.257-1.348-1.616c-0.899-0.359-2.376-0.751-4.435-1.177
						c-2.646-0.555-4.851-1.151-6.615-1.788c-1.764-0.637-3.3-1.682-4.606-3.136c-1.307-1.453-1.96-3.422-1.96-5.904
						c0-2.156,0.604-4.116,1.813-5.881c1.208-1.764,3.014-3.151,5.415-4.165c2.401-1.012,5.317-1.519,8.747-1.519
						c2.352,0,4.663,0.253,6.934,0.76c2.27,0.507,4.271,1.249,6.002,2.229l-3.479,8.379c-3.365-1.698-6.55-2.548-9.555-2.548
						c-2.973,0-4.459,0.719-4.459,2.155c0,0.687,0.441,1.201,1.323,1.544c0.882,0.343,2.335,0.711,4.361,1.103
						c2.613,0.49,4.818,1.054,6.615,1.69c1.796,0.637,3.356,1.675,4.679,3.111c1.323,1.438,1.985,3.398,1.985,5.88
						c0,2.156-0.605,4.108-1.813,5.855c-1.209,1.748-3.014,3.137-5.415,4.165c-2.401,1.029-5.316,1.544-8.747,1.544
						C54.697,75.758,51.928,75.44,49.233,74.802z"/>
					<path fill="none" stroke="#000E42" stroke-width="16.6741" d="M84.88,73.48c-2.908-1.52-5.187-3.643-6.835-6.37
						c-1.65-2.728-2.475-5.823-2.475-9.286c0-3.462,0.825-6.558,2.475-9.285c1.649-2.728,3.928-4.851,6.835-6.37
						c2.907-1.519,6.174-2.278,9.8-2.278c3.332,0,6.304,0.588,8.918,1.764c2.613,1.177,4.769,2.875,6.468,5.097l-7.301,6.517
						c-2.124-2.678-4.623-4.018-7.497-4.018c-2.418,0-4.361,0.776-5.831,2.327c-1.47,1.552-2.205,3.635-2.205,6.247
						c0,2.614,0.735,4.696,2.205,6.248c1.47,1.552,3.413,2.327,5.831,2.327c2.874,0,5.373-1.339,7.497-4.018l7.301,6.517
						c-1.699,2.222-3.855,3.92-6.468,5.096c-2.614,1.177-5.586,1.765-8.918,1.765C91.054,75.758,87.788,74.999,84.88,73.48z"/>
					<path fill="none" stroke="#000E42" stroke-width="16.6741" d="M120.699,73.456c-2.94-1.535-5.243-3.667-6.909-6.395
						s-2.499-5.807-2.499-9.237c0-3.43,0.833-6.508,2.499-9.236c1.666-2.727,3.969-4.858,6.909-6.395
						c2.939-1.535,6.255-2.303,9.947-2.303c3.69,0,7.007,0.768,9.946,2.303c2.94,1.536,5.243,3.668,6.909,6.395
						c1.666,2.729,2.499,5.807,2.499,9.236c0,3.431-0.833,6.51-2.499,9.237s-3.969,4.859-6.909,6.395
						c-2.939,1.534-6.256,2.303-9.946,2.303C126.954,75.758,123.639,74.99,120.699,73.456z M134.542,65.345
						c1.159-0.702,2.082-1.697,2.769-2.988c0.686-1.29,1.028-2.801,1.028-4.533c0-1.73-0.343-3.241-1.028-4.532
						c-0.687-1.29-1.609-2.286-2.769-2.989c-1.16-0.702-2.459-1.053-3.896-1.053c-1.438,0-2.736,0.351-3.896,1.053
						c-1.16,0.703-2.083,1.699-2.769,2.989c-0.687,1.291-1.029,2.802-1.029,4.532c0,1.732,0.343,3.243,1.029,4.533
						c0.686,1.291,1.608,2.286,2.769,2.988c1.159,0.703,2.457,1.054,3.896,1.054C132.083,66.399,133.382,66.048,134.542,65.345z"/>
					<path fill="none" stroke="#000E42" stroke-width="16.6741" d="M162.251,73.456c-2.94-1.535-5.243-3.667-6.909-6.395
						s-2.499-5.807-2.499-9.237c0-3.43,0.833-6.508,2.499-9.236c1.666-2.727,3.969-4.858,6.909-6.395
						c2.939-1.535,6.255-2.303,9.947-2.303c3.69,0,7.007,0.768,9.945,2.303c2.94,1.536,5.244,3.668,6.91,6.395
						c1.666,2.729,2.498,5.807,2.498,9.236c0,3.431-0.832,6.51-2.498,9.237s-3.97,4.859-6.91,6.395
						c-2.938,1.534-6.255,2.303-9.945,2.303C168.506,75.758,165.19,74.99,162.251,73.456z M176.094,65.345
						c1.159-0.702,2.082-1.697,2.769-2.988c0.686-1.29,1.028-2.801,1.028-4.533c0-1.73-0.343-3.241-1.028-4.532
						c-0.687-1.29-1.609-2.286-2.769-2.989c-1.16-0.702-2.459-1.053-3.896-1.053c-1.438,0-2.736,0.351-3.896,1.053
						c-1.16,0.703-2.083,1.699-2.769,2.989c-0.687,1.291-1.029,2.802-1.029,4.532c0,1.732,0.343,3.243,1.029,4.533
						c0.686,1.291,1.608,2.286,2.769,2.988c1.159,0.703,2.457,1.054,3.896,1.054C173.635,66.399,174.934,66.048,176.094,65.345z"/>
					<path fill="none" stroke="#000E42" stroke-width="16.6741" d="M220.56,42.242c2.354,1.046,4.166,2.549,5.439,4.509
						s1.91,4.246,1.91,6.859c0,2.614-0.637,4.9-1.91,6.86c-1.273,1.96-3.087,3.463-5.439,4.508
						c-2.352,1.046-5.111,1.568-8.281,1.568h-4.947v8.428h-11.564v-34.3h16.514C215.446,40.674,218.208,41.197,220.56,42.242z
						 M215.071,56.575c0.783-0.702,1.177-1.69,1.177-2.965c0-1.273-0.394-2.262-1.177-2.964s-1.961-1.054-3.527-1.054h-4.214v8.036
						h4.214C213.11,57.628,214.288,57.278,215.071,56.575z"/>
					<path fill="none" stroke="#000E42" stroke-width="16.6741" d="M265.248,40.674v22.98c0,3.528-0.72,6.55-2.156,9.065
						c-1.438,2.515-3.479,4.418-6.125,5.708c-2.646,1.29-5.766,1.936-9.358,1.936c-3.104,0-5.922-0.367-8.453-1.103
						c-2.531-0.734-4.729-1.756-6.59-3.063l4.215-8.183c1.6,1.013,3.289,1.788,5.07,2.327c1.78,0.539,3.521,0.809,5.219,0.809
						c2.353,0,4.043-0.547,5.072-1.642c1.027-1.094,1.543-2.833,1.543-5.218v-0.98c-2.188,2.483-5.113,3.724-8.771,3.724
						c-4.313,0-7.604-1.216-9.874-3.65c-2.271-2.433-3.405-5.969-3.405-10.608V40.674h11.564v11.27c0,1.928,0.416,3.365,1.248,4.313
						c0.834,0.948,2.115,1.421,3.848,1.421c1.633,0,2.939-0.48,3.92-1.445c0.98-0.964,1.471-2.523,1.471-4.68V40.674H265.248z"/>
					<path fill="none" stroke="#000E42" stroke-width="16.6741" d="M279.849,39.841c1.209,1.144,1.813,2.663,1.813,4.557
						c0,0.85-0.115,1.699-0.343,2.548c-0.229,0.851-0.752,2.141-1.568,3.871l-3.43,7.301h-6.86l2.45-8.28
						c-1.014-0.49-1.797-1.201-2.352-2.132c-0.558-0.931-0.834-2.033-0.834-3.308c0-1.894,0.604-3.413,1.813-4.557
						c1.208-1.144,2.76-1.715,4.655-1.715C277.088,38.126,278.642,38.698,279.849,39.841z"/>
					<path fill="none" stroke="#000E42" stroke-width="16.6741" d="M290.408,74.802c-2.695-0.637-4.908-1.494-6.64-2.572
						l3.725-8.428c1.633,0.947,3.462,1.707,5.486,2.278c2.025,0.572,3.971,0.857,5.832,0.857c1.601,0,2.744-0.154,3.431-0.466
						c0.686-0.31,1.028-0.775,1.028-1.396c0-0.718-0.449-1.257-1.349-1.616s-2.376-0.751-4.435-1.177
						c-2.646-0.555-4.852-1.151-6.614-1.788c-1.765-0.637-3.3-1.682-4.606-3.136c-1.307-1.453-1.959-3.422-1.959-5.904
						c0-2.156,0.604-4.116,1.813-5.881c1.208-1.764,3.014-3.151,5.414-4.165c2.4-1.012,5.316-1.519,8.747-1.519
						c2.352,0,4.661,0.253,6.934,0.76c2.271,0.507,4.271,1.249,6.002,2.229l-3.479,8.379c-3.365-1.698-6.552-2.548-9.556-2.548
						c-2.974,0-4.459,0.719-4.459,2.155c0,0.687,0.44,1.201,1.322,1.544c0.883,0.343,2.335,0.711,4.361,1.103
						c2.611,0.49,4.816,1.054,6.613,1.69c1.797,0.636,3.356,1.675,4.681,3.111c1.323,1.438,1.983,3.398,1.983,5.88
						c0,2.156-0.604,4.108-1.813,5.855c-1.209,1.748-3.014,3.137-5.415,4.165c-2.399,1.029-5.315,1.544-8.746,1.544
						C295.872,75.758,293.104,75.44,290.408,74.802z"/>
				</g>
				<g>
					<path fill="none" stroke="#000E42" stroke-width="16.6741" d="M49.233,74.802c-2.695-0.637-4.908-1.494-6.639-2.572
						l3.724-8.428c1.633,0.947,3.462,1.707,5.488,2.278c2.025,0.572,3.969,0.857,5.831,0.857c1.6,0,2.744-0.154,3.43-0.466
						c0.686-0.31,1.029-0.775,1.029-1.396c0-0.718-0.45-1.257-1.348-1.616c-0.899-0.359-2.376-0.751-4.435-1.177
						c-2.646-0.555-4.851-1.151-6.615-1.788c-1.764-0.637-3.3-1.682-4.606-3.136c-1.307-1.453-1.96-3.422-1.96-5.904
						c0-2.156,0.604-4.116,1.813-5.881c1.208-1.764,3.014-3.151,5.415-4.165c2.401-1.012,5.317-1.519,8.747-1.519
						c2.352,0,4.663,0.253,6.934,0.76c2.27,0.507,4.271,1.249,6.002,2.229l-3.479,8.379c-3.365-1.698-6.55-2.548-9.555-2.548
						c-2.973,0-4.459,0.719-4.459,2.155c0,0.687,0.441,1.201,1.323,1.544c0.882,0.343,2.335,0.711,4.361,1.103
						c2.613,0.49,4.818,1.054,6.615,1.69c1.796,0.637,3.356,1.675,4.679,3.111c1.323,1.438,1.985,3.398,1.985,5.88
						c0,2.156-0.605,4.108-1.813,5.855c-1.209,1.748-3.014,3.137-5.415,4.165c-2.401,1.029-5.316,1.544-8.747,1.544
						C54.697,75.758,51.928,75.44,49.233,74.802z"/>
					<path fill="none" stroke="#000E42" stroke-width="16.6741" d="M84.88,73.48c-2.908-1.52-5.187-3.643-6.835-6.37
						c-1.65-2.728-2.475-5.823-2.475-9.286c0-3.462,0.825-6.558,2.475-9.285c1.649-2.728,3.928-4.851,6.835-6.37
						c2.907-1.519,6.174-2.278,9.8-2.278c3.332,0,6.304,0.588,8.918,1.764c2.613,1.177,4.769,2.875,6.468,5.097l-7.301,6.517
						c-2.124-2.678-4.623-4.018-7.497-4.018c-2.418,0-4.361,0.776-5.831,2.327c-1.47,1.552-2.205,3.635-2.205,6.247
						c0,2.614,0.735,4.696,2.205,6.248c1.47,1.552,3.413,2.327,5.831,2.327c2.874,0,5.373-1.339,7.497-4.018l7.301,6.517
						c-1.699,2.222-3.855,3.92-6.468,5.096c-2.614,1.177-5.586,1.765-8.918,1.765C91.054,75.758,87.788,74.999,84.88,73.48z"/>
					<path fill="none" stroke="#000E42" stroke-width="16.6741" d="M120.699,73.456c-2.94-1.535-5.243-3.667-6.909-6.395
						s-2.499-5.807-2.499-9.237c0-3.43,0.833-6.508,2.499-9.236c1.666-2.727,3.969-4.858,6.909-6.395
						c2.939-1.535,6.255-2.303,9.947-2.303c3.69,0,7.007,0.768,9.946,2.303c2.94,1.536,5.243,3.668,6.909,6.395
						c1.666,2.729,2.499,5.807,2.499,9.236c0,3.431-0.833,6.51-2.499,9.237s-3.969,4.859-6.909,6.395
						c-2.939,1.534-6.256,2.303-9.946,2.303C126.954,75.758,123.639,74.99,120.699,73.456z M134.542,65.345
						c1.159-0.702,2.082-1.697,2.769-2.988c0.686-1.29,1.028-2.801,1.028-4.533c0-1.73-0.343-3.241-1.028-4.532
						c-0.687-1.29-1.609-2.286-2.769-2.989c-1.16-0.702-2.459-1.053-3.896-1.053c-1.438,0-2.736,0.351-3.896,1.053
						c-1.16,0.703-2.083,1.699-2.769,2.989c-0.687,1.291-1.029,2.802-1.029,4.532c0,1.732,0.343,3.243,1.029,4.533
						c0.686,1.291,1.608,2.286,2.769,2.988c1.159,0.703,2.457,1.054,3.896,1.054C132.083,66.399,133.382,66.048,134.542,65.345z"/>
					<path fill="none" stroke="#000E42" stroke-width="16.6741" d="M162.251,73.456c-2.94-1.535-5.243-3.667-6.909-6.395
						s-2.499-5.807-2.499-9.237c0-3.43,0.833-6.508,2.499-9.236c1.666-2.727,3.969-4.858,6.909-6.395
						c2.939-1.535,6.255-2.303,9.947-2.303c3.69,0,7.007,0.768,9.945,2.303c2.94,1.536,5.244,3.668,6.91,6.395
						c1.666,2.729,2.498,5.807,2.498,9.236c0,3.431-0.832,6.51-2.498,9.237s-3.97,4.859-6.91,6.395
						c-2.938,1.534-6.255,2.303-9.945,2.303C168.506,75.758,165.19,74.99,162.251,73.456z M176.094,65.345
						c1.159-0.702,2.082-1.697,2.769-2.988c0.686-1.29,1.028-2.801,1.028-4.533c0-1.73-0.343-3.241-1.028-4.532
						c-0.687-1.29-1.609-2.286-2.769-2.989c-1.16-0.702-2.459-1.053-3.896-1.053c-1.438,0-2.736,0.351-3.896,1.053
						c-1.16,0.703-2.083,1.699-2.769,2.989c-0.687,1.291-1.029,2.802-1.029,4.532c0,1.732,0.343,3.243,1.029,4.533
						c0.686,1.291,1.608,2.286,2.769,2.988c1.159,0.703,2.457,1.054,3.896,1.054C173.635,66.399,174.934,66.048,176.094,65.345z"/>
					<path fill="none" stroke="#000E42" stroke-width="16.6741" d="M220.56,42.242c2.354,1.046,4.166,2.549,5.439,4.509
						s1.91,4.246,1.91,6.859c0,2.614-0.637,4.9-1.91,6.86c-1.273,1.96-3.087,3.463-5.439,4.508
						c-2.352,1.046-5.111,1.568-8.281,1.568h-4.947v8.428h-11.564v-34.3h16.514C215.446,40.674,218.208,41.197,220.56,42.242z
						 M215.071,56.575c0.783-0.702,1.177-1.69,1.177-2.965c0-1.273-0.394-2.262-1.177-2.964s-1.961-1.054-3.527-1.054h-4.214v8.036
						h4.214C213.11,57.628,214.288,57.278,215.071,56.575z"/>
					<path fill="none" stroke="#000E42" stroke-width="16.6741" d="M265.248,40.674v22.98c0,3.528-0.72,6.55-2.156,9.065
						c-1.438,2.515-3.479,4.418-6.125,5.708c-2.646,1.29-5.766,1.936-9.358,1.936c-3.104,0-5.922-0.367-8.453-1.103
						c-2.531-0.734-4.729-1.756-6.59-3.063l4.215-8.183c1.6,1.013,3.289,1.788,5.07,2.327c1.78,0.539,3.521,0.809,5.219,0.809
						c2.353,0,4.043-0.547,5.072-1.642c1.027-1.094,1.543-2.833,1.543-5.218v-0.98c-2.188,2.483-5.113,3.724-8.771,3.724
						c-4.313,0-7.604-1.216-9.874-3.65c-2.271-2.433-3.405-5.969-3.405-10.608V40.674h11.564v11.27c0,1.928,0.416,3.365,1.248,4.313
						c0.834,0.948,2.115,1.421,3.848,1.421c1.633,0,2.939-0.48,3.92-1.445c0.98-0.964,1.471-2.523,1.471-4.68V40.674H265.248z"/>
					<path fill="none" stroke="#000E42" stroke-width="16.6741" d="M279.849,39.841c1.209,1.144,1.813,2.663,1.813,4.557
						c0,0.85-0.115,1.699-0.343,2.548c-0.229,0.851-0.752,2.141-1.568,3.871l-3.43,7.301h-6.86l2.45-8.28
						c-1.014-0.49-1.797-1.201-2.352-2.132c-0.558-0.931-0.834-2.033-0.834-3.308c0-1.894,0.604-3.413,1.813-4.557
						c1.208-1.144,2.76-1.715,4.655-1.715C277.088,38.126,278.642,38.698,279.849,39.841z"/>
					<path fill="none" stroke="#000E42" stroke-width="16.6741" d="M290.408,74.802c-2.695-0.637-4.908-1.494-6.64-2.572
						l3.725-8.428c1.633,0.947,3.462,1.707,5.486,2.278c2.025,0.572,3.971,0.857,5.832,0.857c1.601,0,2.744-0.154,3.431-0.466
						c0.686-0.31,1.028-0.775,1.028-1.396c0-0.718-0.449-1.257-1.349-1.616s-2.376-0.751-4.435-1.177
						c-2.646-0.555-4.852-1.151-6.614-1.788c-1.765-0.637-3.3-1.682-4.606-3.136c-1.307-1.453-1.959-3.422-1.959-5.904
						c0-2.156,0.604-4.116,1.813-5.881c1.208-1.764,3.014-3.151,5.414-4.165c2.4-1.012,5.316-1.519,8.747-1.519
						c2.352,0,4.661,0.253,6.934,0.76c2.271,0.507,4.271,1.249,6.002,2.229l-3.479,8.379c-3.365-1.698-6.552-2.548-9.556-2.548
						c-2.974,0-4.459,0.719-4.459,2.155c0,0.687,0.44,1.201,1.322,1.544c0.883,0.343,2.335,0.711,4.361,1.103
						c2.611,0.49,4.816,1.054,6.613,1.69c1.797,0.636,3.356,1.675,4.681,3.111c1.323,1.438,1.983,3.398,1.983,5.88
						c0,2.156-0.604,4.108-1.813,5.855c-1.209,1.748-3.014,3.137-5.415,4.165c-2.399,1.029-5.315,1.544-8.746,1.544
						C295.872,75.758,293.104,75.44,290.408,74.802z"/>
				</g>
			</g>
			<g>
				<path fill="none" stroke="#000E42" stroke-width="16.6741" d="M50.412,104.603v0.202h16.679v11.972H50.412v15.063H34.54v-26.9
					c0-6.814,2.084-12.061,6.254-15.736c4.17-3.677,10.088-5.516,17.755-5.516c2.734,0,5.313,0.258,7.734,0.773
					c2.421,0.516,4.506,1.222,6.254,2.118l-4.572,11.97c-1.256-0.672-2.589-1.176-4.001-1.512c-1.412-0.338-2.769-0.506-4.069-0.506
					C53.573,96.534,50.412,99.223,50.412,104.603z"/>
				<path fill="none" stroke="#000E42" stroke-width="16.6741" d="M97.153,120.004h-4.304v11.836H76.977V84.763h22.665
					c4.348,0,8.138,0.718,11.366,2.152c3.229,1.436,5.717,3.498,7.465,6.188s2.623,5.829,2.623,9.416c0,3.362-0.763,6.3-2.287,8.81
					c-1.525,2.512-3.722,4.506-6.591,5.986l9.886,14.525h-16.948L97.153,120.004z M103.475,98.45
					c-1.076-0.964-2.69-1.445-4.842-1.445h-5.784v11.029h5.784c2.152,0,3.766-0.48,4.842-1.445c1.076-0.965,1.614-2.32,1.614-4.068
					C105.089,100.77,104.551,99.415,103.475,98.45z"/>
				<path fill="none" stroke="#000E42" stroke-width="16.6741" d="M169.585,128.749c-2.512,1.301-5.538,2.319-9.079,3.061
					c-3.543,0.738-7.152,1.109-10.828,1.109c-5.291,0-9.785-0.617-13.484-1.851c-3.699-1.231-6.49-2.959-8.373-5.179
					c-1.883-2.219-2.825-4.764-2.825-7.633c0-2.377,0.639-4.506,1.917-6.391c1.278-1.883,3.104-3.34,5.481-4.371
					c-1.794-0.986-3.15-2.275-4.069-3.867c-0.919-1.59-1.379-3.352-1.379-5.278c0-2.646,0.863-5.078,2.589-7.298
					c1.726-2.219,4.372-4.001,7.936-5.346c3.564-1.346,7.947-2.018,13.148-2.018c3.184,0,6.311,0.28,9.382,0.84
					c3.071,0.562,5.817,1.312,8.239,2.253l-4.305,11.568c-4.215-1.704-8.452-2.557-12.711-2.557c-2.78,0-4.854,0.314-6.221,0.941
					c-1.368,0.628-2.052,1.503-2.052,2.623c0,0.941,0.337,1.659,1.009,2.152c0.673,0.492,1.793,0.738,3.363,0.738h13.787v11.703
					h-14.863c-1.749,0-3.061,0.279-3.935,0.84c-0.874,0.563-1.312,1.356-1.312,2.389c0,2.421,3.094,3.632,9.281,3.632
					c2.376,0,4.897-0.325,7.566-0.976c2.667-0.649,5.032-1.514,7.095-2.59L169.585,128.749z"/>
				<path fill="none" stroke="#000E42" stroke-width="16.6741" d="M215.351,89.135c3.071,3.632,4.607,8.787,4.607,15.468v27.237
					h-15.872v-26.766c0-2.869-0.617-5.012-1.851-6.424c-1.232-1.412-2.947-2.119-5.145-2.119s-3.979,0.764-5.347,2.287
					s-2.052,3.789-2.052,6.793v26.229H173.82V84.763h15.402v5.045c3.184-4.08,7.576-6.12,13.182-6.12
					C207.964,83.688,212.278,85.503,215.351,89.135z"/>
				<path fill="none" stroke="#000E42" stroke-width="16.6741" d="M269.119,119.872v11.971h-43.244v-8.743l8.541-9.886h-5.179
					v-10.762h14.459l4.978-5.783h-22.059V84.697h41.495v8.742l-8.004,9.281h4.709v10.761h-13.989l-5.515,6.391H269.119z"/>
				<path fill="none" stroke="#000E42" stroke-width="16.6741" d="M319.492,84.763v31.543c0,4.842-0.986,8.989-2.959,12.44
					c-1.974,3.453-4.774,6.063-8.406,7.836c-3.632,1.771-7.914,2.655-12.847,2.655c-4.26,0-8.127-0.504-11.602-1.513
					c-3.475-1.01-6.49-2.411-9.046-4.203l5.784-11.23c2.195,1.39,4.518,2.453,6.961,3.193s4.831,1.109,7.162,1.109
					c3.229,0,5.549-0.75,6.961-2.254c1.412-1.5,2.118-3.889,2.118-7.161v-1.347c-3.004,3.408-7.017,5.111-12.038,5.111
					c-5.918,0-10.436-1.669-13.553-5.01c-3.115-3.34-4.674-8.193-4.674-14.561v-16.61h15.873v15.469c0,2.646,0.57,4.618,1.715,5.918
					c1.144,1.302,2.901,1.951,5.279,1.951c2.24,0,4.034-0.661,5.379-1.983c1.346-1.322,2.019-3.465,2.019-6.424V84.763H319.492z"/>
			</g>
		</g>
		<g>
			<g>
				<g>
					<path fill="#FFFFFF" d="M49.233,74.802c-2.695-0.637-4.908-1.494-6.639-2.572l3.724-8.428c1.633,0.947,3.462,1.707,5.488,2.278
						c2.025,0.572,3.969,0.857,5.831,0.857c1.6,0,2.744-0.154,3.43-0.466c0.686-0.31,1.029-0.775,1.029-1.396
						c0-0.718-0.45-1.257-1.348-1.616c-0.899-0.359-2.376-0.751-4.435-1.177c-2.646-0.555-4.851-1.151-6.615-1.788
						c-1.764-0.637-3.3-1.682-4.606-3.136c-1.307-1.453-1.96-3.422-1.96-5.904c0-2.156,0.604-4.116,1.813-5.881
						c1.208-1.764,3.014-3.151,5.415-4.165c2.401-1.012,5.317-1.519,8.747-1.519c2.352,0,4.663,0.253,6.934,0.76
						c2.27,0.507,4.271,1.249,6.002,2.229l-3.479,8.379c-3.365-1.698-6.55-2.548-9.555-2.548c-2.973,0-4.459,0.719-4.459,2.155
						c0,0.687,0.441,1.201,1.323,1.544c0.882,0.343,2.335,0.711,4.361,1.103c2.613,0.49,4.818,1.054,6.615,1.69
						c1.796,0.637,3.356,1.675,4.679,3.111c1.323,1.438,1.985,3.398,1.985,5.88c0,2.156-0.605,4.108-1.813,5.855
						c-1.209,1.748-3.014,3.137-5.415,4.165c-2.401,1.029-5.316,1.544-8.747,1.544C54.697,75.758,51.928,75.44,49.233,74.802z"/>
					<path fill="#FFFFFF" d="M84.88,73.48c-2.908-1.52-5.187-3.643-6.835-6.37c-1.65-2.728-2.475-5.823-2.475-9.286
						c0-3.462,0.825-6.558,2.475-9.285c1.649-2.728,3.928-4.851,6.835-6.37c2.907-1.519,6.174-2.278,9.8-2.278
						c3.332,0,6.304,0.588,8.918,1.764c2.613,1.177,4.769,2.875,6.468,5.097l-7.301,6.517c-2.124-2.678-4.623-4.018-7.497-4.018
						c-2.418,0-4.361,0.776-5.831,2.327c-1.47,1.552-2.205,3.635-2.205,6.247c0,2.614,0.735,4.696,2.205,6.248
						c1.47,1.552,3.413,2.327,5.831,2.327c2.874,0,5.373-1.339,7.497-4.018l7.301,6.517c-1.699,2.222-3.855,3.92-6.468,5.096
						c-2.614,1.177-5.586,1.765-8.918,1.765C91.054,75.758,87.788,74.999,84.88,73.48z"/>
					<path fill="#FFFFFF" d="M120.699,73.456c-2.94-1.535-5.243-3.667-6.909-6.395s-2.499-5.807-2.499-9.237
						c0-3.43,0.833-6.508,2.499-9.236c1.666-2.727,3.969-4.858,6.909-6.395c2.939-1.535,6.255-2.303,9.947-2.303
						c3.69,0,7.007,0.768,9.946,2.303c2.94,1.536,5.243,3.668,6.909,6.395c1.666,2.729,2.499,5.807,2.499,9.236
						c0,3.431-0.833,6.51-2.499,9.237s-3.969,4.859-6.909,6.395c-2.939,1.534-6.256,2.303-9.946,2.303
						C126.954,75.758,123.639,74.99,120.699,73.456z M134.542,65.345c1.159-0.702,2.082-1.697,2.769-2.988
						c0.686-1.29,1.028-2.801,1.028-4.533c0-1.73-0.343-3.241-1.028-4.532c-0.687-1.29-1.609-2.286-2.769-2.989
						c-1.16-0.702-2.459-1.053-3.896-1.053c-1.438,0-2.736,0.351-3.896,1.053c-1.16,0.703-2.083,1.699-2.769,2.989
						c-0.687,1.291-1.029,2.802-1.029,4.532c0,1.732,0.343,3.243,1.029,4.533c0.686,1.291,1.608,2.286,2.769,2.988
						c1.159,0.703,2.457,1.054,3.896,1.054C132.083,66.399,133.382,66.048,134.542,65.345z"/>
					<path fill="#FFFFFF" d="M162.251,73.456c-2.94-1.535-5.243-3.667-6.909-6.395s-2.499-5.807-2.499-9.237
						c0-3.43,0.833-6.508,2.499-9.236c1.666-2.727,3.969-4.858,6.909-6.395c2.939-1.535,6.255-2.303,9.947-2.303
						c3.69,0,7.007,0.768,9.945,2.303c2.94,1.536,5.244,3.668,6.91,6.395c1.666,2.729,2.498,5.807,2.498,9.236
						c0,3.431-0.832,6.51-2.498,9.237s-3.97,4.859-6.91,6.395c-2.938,1.534-6.255,2.303-9.945,2.303
						C168.506,75.758,165.19,74.99,162.251,73.456z M176.094,65.345c1.159-0.702,2.082-1.697,2.769-2.988
						c0.686-1.29,1.028-2.801,1.028-4.533c0-1.73-0.343-3.241-1.028-4.532c-0.687-1.29-1.609-2.286-2.769-2.989
						c-1.16-0.702-2.459-1.053-3.896-1.053c-1.438,0-2.736,0.351-3.896,1.053c-1.16,0.703-2.083,1.699-2.769,2.989
						c-0.687,1.291-1.029,2.802-1.029,4.532c0,1.732,0.343,3.243,1.029,4.533c0.686,1.291,1.608,2.286,2.769,2.988
						c1.159,0.703,2.457,1.054,3.896,1.054C173.635,66.399,174.934,66.048,176.094,65.345z"/>
					<path fill="#FFFFFF" d="M220.56,42.242c2.354,1.046,4.166,2.549,5.439,4.509s1.91,4.246,1.91,6.859
						c0,2.614-0.637,4.9-1.91,6.86c-1.273,1.96-3.087,3.463-5.439,4.508c-2.352,1.046-5.111,1.568-8.281,1.568h-4.947v8.428h-11.564
						v-34.3h16.514C215.446,40.674,218.208,41.197,220.56,42.242z M215.071,56.575c0.783-0.702,1.177-1.69,1.177-2.965
						c0-1.273-0.394-2.262-1.177-2.964s-1.961-1.054-3.527-1.054h-4.214v8.036h4.214C213.11,57.628,214.288,57.278,215.071,56.575z"
						/>
					<path fill="#FFFFFF" d="M265.248,40.674v22.98c0,3.528-0.72,6.55-2.156,9.065c-1.438,2.515-3.479,4.418-6.125,5.708
						c-2.646,1.29-5.766,1.936-9.358,1.936c-3.104,0-5.922-0.367-8.453-1.103c-2.531-0.734-4.729-1.756-6.59-3.063l4.215-8.183
						c1.6,1.013,3.289,1.788,5.07,2.327c1.78,0.539,3.521,0.809,5.219,0.809c2.353,0,4.043-0.547,5.072-1.642
						c1.027-1.094,1.543-2.833,1.543-5.218v-0.98c-2.188,2.483-5.113,3.724-8.771,3.724c-4.313,0-7.604-1.216-9.874-3.65
						c-2.271-2.433-3.405-5.969-3.405-10.608V40.674h11.564v11.27c0,1.928,0.416,3.365,1.248,4.313
						c0.834,0.948,2.115,1.421,3.848,1.421c1.633,0,2.939-0.48,3.92-1.445c0.98-0.964,1.471-2.523,1.471-4.68V40.674H265.248z"/>
					<path fill="#FFFFFF" d="M279.849,39.841c1.209,1.144,1.813,2.663,1.813,4.557c0,0.85-0.115,1.699-0.343,2.548
						c-0.229,0.851-0.752,2.141-1.568,3.871l-3.43,7.301h-6.86l2.45-8.28c-1.014-0.49-1.797-1.201-2.352-2.132
						c-0.558-0.931-0.834-2.033-0.834-3.308c0-1.894,0.604-3.413,1.813-4.557c1.208-1.144,2.76-1.715,4.655-1.715
						C277.088,38.126,278.642,38.698,279.849,39.841z"/>
					<path fill="#FFFFFF" d="M290.408,74.802c-2.695-0.637-4.908-1.494-6.64-2.572l3.725-8.428c1.633,0.947,3.462,1.707,5.486,2.278
						c2.025,0.572,3.971,0.857,5.832,0.857c1.601,0,2.744-0.154,3.431-0.466c0.686-0.31,1.028-0.775,1.028-1.396
						c0-0.718-0.449-1.257-1.349-1.616s-2.376-0.751-4.435-1.177c-2.646-0.555-4.852-1.151-6.614-1.788
						c-1.765-0.637-3.3-1.682-4.606-3.136c-1.307-1.453-1.959-3.422-1.959-5.904c0-2.156,0.604-4.116,1.813-5.881
						c1.208-1.764,3.014-3.151,5.414-4.165c2.4-1.012,5.316-1.519,8.747-1.519c2.352,0,4.661,0.253,6.934,0.76
						c2.271,0.507,4.271,1.249,6.002,2.229l-3.479,8.379c-3.365-1.698-6.552-2.548-9.556-2.548c-2.974,0-4.459,0.719-4.459,2.155
						c0,0.687,0.44,1.201,1.322,1.544c0.883,0.343,2.335,0.711,4.361,1.103c2.611,0.49,4.816,1.054,6.613,1.69
						c1.797,0.636,3.356,1.675,4.681,3.111c1.323,1.438,1.983,3.398,1.983,5.88c0,2.156-0.604,4.108-1.813,5.855
						c-1.209,1.748-3.014,3.137-5.415,4.165c-2.399,1.029-5.315,1.544-8.746,1.544C295.872,75.758,293.104,75.44,290.408,74.802z"/>
				</g>
			</g>
			<g>
				<path fill="#93AB4B" d="M50.412,104.603v0.202h16.679v11.972H50.412v15.063H34.54v-26.9c0-6.814,2.084-12.061,6.254-15.736
					c4.17-3.677,10.088-5.516,17.755-5.516c2.734,0,5.313,0.258,7.734,0.773c2.421,0.516,4.506,1.222,6.254,2.118l-4.572,11.97
					c-1.256-0.672-2.589-1.176-4.001-1.512c-1.412-0.338-2.769-0.506-4.069-0.506C53.573,96.534,50.412,99.223,50.412,104.603z"/>
				<path fill="#93AB4B" d="M97.153,120.004h-4.304v11.836H76.977V84.763h22.665c4.348,0,8.138,0.718,11.366,2.152
					c3.229,1.436,5.717,3.498,7.465,6.188s2.623,5.829,2.623,9.416c0,3.362-0.763,6.3-2.287,8.81
					c-1.525,2.512-3.722,4.506-6.591,5.986l9.886,14.525h-16.948L97.153,120.004z M103.475,98.45
					c-1.076-0.964-2.69-1.445-4.842-1.445h-5.784v11.029h5.784c2.152,0,3.766-0.48,4.842-1.445c1.076-0.965,1.614-2.32,1.614-4.068
					C105.089,100.77,104.551,99.415,103.475,98.45z"/>
				<path fill="#93AB4B" d="M169.585,128.749c-2.512,1.301-5.538,2.319-9.079,3.061c-3.543,0.738-7.152,1.109-10.828,1.109
					c-5.291,0-9.785-0.617-13.484-1.851c-3.699-1.231-6.49-2.959-8.373-5.179c-1.883-2.219-2.825-4.764-2.825-7.633
					c0-2.377,0.639-4.506,1.917-6.391c1.278-1.883,3.104-3.34,5.481-4.371c-1.794-0.986-3.15-2.275-4.069-3.867
					c-0.919-1.59-1.379-3.352-1.379-5.278c0-2.646,0.863-5.078,2.589-7.298c1.726-2.219,4.372-4.001,7.936-5.346
					c3.564-1.346,7.947-2.018,13.148-2.018c3.184,0,6.311,0.28,9.382,0.84c3.071,0.562,5.817,1.312,8.239,2.253l-4.305,11.568
					c-4.215-1.704-8.452-2.557-12.711-2.557c-2.78,0-4.854,0.314-6.221,0.941c-1.368,0.628-2.052,1.503-2.052,2.623
					c0,0.941,0.337,1.659,1.009,2.152c0.673,0.492,1.793,0.738,3.363,0.738h13.787v11.703h-14.863c-1.749,0-3.061,0.279-3.935,0.84
					c-0.874,0.563-1.312,1.356-1.312,2.389c0,2.421,3.094,3.632,9.281,3.632c2.376,0,4.897-0.325,7.566-0.976
					c2.667-0.649,5.032-1.514,7.095-2.59L169.585,128.749z"/>
				<path fill="#93AB4B" d="M215.351,89.135c3.071,3.632,4.607,8.787,4.607,15.468v27.237h-15.872v-26.766
					c0-2.869-0.617-5.012-1.851-6.424c-1.232-1.412-2.947-2.119-5.145-2.119s-3.979,0.764-5.347,2.287s-2.052,3.789-2.052,6.793
					v26.229H173.82V84.763h15.402v5.045c3.184-4.08,7.576-6.12,13.182-6.12C207.964,83.688,212.278,85.503,215.351,89.135z"/>
				<path fill="#93AB4B" d="M269.119,119.872v11.971h-43.244v-8.743l8.541-9.886h-5.179v-10.762h14.459l4.978-5.783h-22.059V84.697
					h41.495v8.742l-8.004,9.281h4.709v10.761h-13.989l-5.515,6.391H269.119z"/>
				<path fill="#93AB4B" d="M319.492,84.763v31.543c0,4.842-0.986,8.989-2.959,12.44c-1.974,3.453-4.774,6.063-8.406,7.836
					c-3.632,1.771-7.914,2.655-12.847,2.655c-4.26,0-8.127-0.504-11.602-1.513c-3.475-1.01-6.49-2.411-9.046-4.203l5.784-11.23
					c2.195,1.39,4.518,2.453,6.961,3.193s4.831,1.109,7.162,1.109c3.229,0,5.549-0.75,6.961-2.254
					c1.412-1.5,2.118-3.889,2.118-7.161v-1.347c-3.004,3.408-7.017,5.111-12.038,5.111c-5.918,0-10.436-1.669-13.553-5.01
					c-3.115-3.34-4.674-8.193-4.674-14.561v-16.61h15.873v15.469c0,2.646,0.57,4.618,1.715,5.918
					c1.144,1.302,2.901,1.951,5.279,1.951c2.24,0,4.034-0.661,5.379-1.983c1.346-1.322,2.019-3.465,2.019-6.424V84.763H319.492z"/>
			</g>
		</g>
	</g>
	<g>
		<g>
			<path fill="#DB6161" d="M125.278,92.952c-6.033,0-10.941-4.91-10.941-10.943s4.908-10.941,10.941-10.941h108.778
				c6.033,0,10.941,4.908,10.941,10.941s-4.908,10.943-10.941,10.943H125.278z"/>
			<g>
				<path fill="#000E42" d="M234.056,73.067c4.918,0,8.941,4.024,8.941,8.941c0,4.918-4.023,8.942-8.941,8.942H125.278
					c-4.918,0-8.941-4.024-8.941-8.942c0-4.917,4.023-8.941,8.941-8.941H234.056 M234.056,69.067H125.278
					c-7.136,0-12.941,5.806-12.941,12.941c0,7.137,5.806,12.942,12.941,12.942h108.778c7.137,0,12.941-5.806,12.941-12.942
					C246.997,74.873,241.19,69.067,234.056,69.067L234.056,69.067z"/>
			</g>
		</g>
		<g>
			<path fill="#FFFFFF" d="M145.177,80.095v4.64h-0.923v-4.64h-1.727v-0.827h4.38v0.827H145.177z"/>
			<path fill="#FFFFFF" d="M156.197,84.735V82.47H153.3v2.265h-0.922v-5.467h0.922v2.375h2.897v-2.375h0.923v5.467H156.197z"/>
			<path fill="#FFFFFF" d="M164.085,80.095v1.479h2.669v0.827h-2.669v1.506h3.077v0.827h-3.861v-5.467h3.766v0.827h-2.982V80.095z"
				/>
			<path fill="#FFFFFF" d="M184.347,82.047v2.017c-0.279,0.214-0.611,0.385-0.994,0.515c-0.381,0.13-0.758,0.194-1.129,0.194
				c-0.529,0-1.016-0.122-1.457-0.366c-0.438-0.244-0.785-0.578-1.036-1.002c-0.252-0.425-0.378-0.893-0.378-1.403
				c0-0.516,0.129-0.983,0.385-1.401c0.258-0.418,0.608-0.748,1.06-0.991c0.447-0.242,0.943-0.364,1.484-0.364
				c0.387,0,0.766,0.069,1.137,0.208c0.371,0.139,0.691,0.325,0.965,0.559l-0.527,0.679c-0.213-0.198-0.457-0.352-0.732-0.461
				s-0.557-0.164-0.842-0.164c-0.363,0-0.697,0.086-1.002,0.257c-0.305,0.172-0.547,0.406-0.725,0.704
				c-0.178,0.297-0.268,0.622-0.268,0.976c0,0.358,0.09,0.687,0.268,0.983c0.178,0.298,0.42,0.532,0.727,0.703
				c0.307,0.172,0.643,0.258,1.008,0.258c0.203,0,0.414-0.032,0.633-0.098c0.219-0.064,0.426-0.156,0.621-0.276V82.05h0.803V82.047z
				"/>
			<path fill="#FFFFFF" d="M191.106,83.499l-0.521,1.235h-0.961l2.414-5.467h0.943l2.389,5.467h-0.984l-0.521-1.235H191.106z
				 M192.481,80.251l-1.031,2.429h2.063L192.481,80.251z"/>
			<path fill="#FFFFFF" d="M205.567,84.735l0.131-4.083l-1.727,3.511h-0.742l-1.724-3.511v4.083h-0.868v-5.467h1.094l1.805,3.633
				l1.795-3.633h1.086v5.467H205.567z"/>
			<path fill="#FFFFFF" d="M213.604,80.095v1.479h2.672v0.827h-2.672v1.506h3.078v0.827h-4v-5.467h3.904v0.827h-2.982V80.095z"/>
		</g>
	</g>
</g>
</svg>
