<?xml version="1.0" encoding="utf-8"?>
<!-- Generator: Adobe Illustrator 16.0.0, SVG Export Plug-In . SVG Version: 6.00 Build 0)  -->
<!DOCTYPE svg PUBLIC "-//W3C//DTD SVG 1.1//EN" "http://www.w3.org/Graphics/SVG/1.1/DTD/svg11.dtd">
<svg version="1.1" id="Layer_1" xmlns="http://www.w3.org/2000/svg" xmlns:xlink="http://www.w3.org/1999/xlink" x="0px" y="0px"
	 width="580.548px" height="41.19px" viewBox="0 0 580.548 41.19" enable-background="new 0 0 580.548 41.19" xml:space="preserve">
<g>
	<path fill-rule="evenodd" clip-rule="evenodd" fill="#5E8EA8" d="M0,40.106c5.4-3.696,10.938-7.213,16.157-11.15
		c3.83-2.889,7.227-6.354,10.851-9.52c1.536-1.345,3.027-2.814,4.768-3.836c5.034-2.957,10.129-5.824,15.338-8.457
		c1.024-0.516,2.742-0.047,4.006,0.373c3.781,1.254,7.752,4.257,11.172,3.691c4.229-0.698,6.126,1.289,9.212,2.74
		c3.094,1.455,7.721,1.253,11.128,0.125c8.778-2.91,14.256,2.881,20.594,6.618c1.326,0.78,2.415,2.142,3.814,2.558
		c1.082,0.32,3.124,0.011,3.632-0.754c3.887-5.844,9.754-6.917,16.072-7.499c2.392-0.22,4.82-1.171,7.01-2.241
		c6.342-3.107,12.84-5.942,18.204-10.811c0.785-0.713,3.461-0.023,4.858,0.748c3.871,2.141,7.593,4.573,11.24,7.084
		c1.621,1.116,2.942,2.046,4.756,0.457c0.29-0.255,1.125-0.119,1.591,0.093c3.974,1.811,7.898,3.731,11.896,5.49
		c0.754,0.331,1.794,0.249,2.64,0.067c0.796-0.172,1.585-0.629,2.245-1.135c5.104-3.906,10.795-6.258,17.107-7.658
		c3.728-0.825,7.134-3.104,10.683-4.731c0.883-0.403,1.984-1.382,2.604-1.136c3.858,1.527,7.547,3.48,11.406,5.005
		c5.995,2.367,6.953,9.438,12.14,12.628c2.118,1.303,3.363,1.489,5.553,0.125c3.476-2.165,7.208-4.119,11.693-3
		c1.131,0.281,2.46-0.359,3.67-0.251c2.63,0.235,5.237,0.714,7.862,1.024c1.6,0.191,3.44,0.816,4.778,0.273
		c4.077-1.654,7.865-4.035,11.967-5.607c1.848-0.709,4.493,0.499,6.217-0.326c4.123-1.974,5.805,0.691,7.711,3.226
		c1.326,1.765,2.145,4.11,3.813,5.38c4.766,3.627,9.537,7.498,14.895,10.022c5.506,2.595,9.113,6.679,13.23,11.468
		c-112.458,0-224.25,0-336.043,0C0.313,40.829,0.156,40.468,0,40.106z"/>
	<path fill-rule="evenodd" clip-rule="evenodd" fill="#5E8EA8" d="M580.548,41.19c-92.254,0-183.785,0-275.316,0
		c-0.264-0.432-0.527-0.865-0.791-1.296c5.064-3.595,10.213-7.075,15.168-10.81c6.787-5.115,14.604-9.482,19.779-15.934
		c4.451-5.549,9.936-7.641,15.451-10.895c5.482-3.236,9.096-2.791,14.471,0.063c4.313,2.287,9.633,2.364,13.391,6.592
		c0.801,0.9,5.361-0.629,7.533-2.047c5.643-3.682,10.605-4.865,17.123-1.105c5.172,2.983,11.631,3.715,17.477,5.568
		c2.207,0.697,4.428,1.523,6.424,2.672c4.201,2.41,7.912,2.258,12.225-0.244c2.33-1.35,6.475-2.043,8.574-0.859
		c6.131,3.459,11.023,0.727,16.25-1.584c4.098-1.809,8.096-4.285,12.387-5.029c2.311-0.4,5.406,1.871,7.67,3.574
		c2.297,1.733,3.861,4.404,6,6.393c5.551,5.161,11.402,3.2,17.203,0.402c5.619-2.713,11.027-6.158,16.941-7.814
		c2.145-0.6,6.461,2.406,8.066,4.882c3.484,5.382,6.645,10.421,13.66,11.648c1.486,0.26,2.426,2.827,3.961,3.774
		c3.352,2.064,6.951,5.348,10.398,5.285C571.028,34.31,575.489,37.114,580.548,41.19z"/>
</g>
</svg>
