<?xml version="1.0" encoding="utf-8"?>
<!-- Generator: Adobe Illustrator 16.0.0, SVG Export Plug-In . SVG Version: 6.00 Build 0)  -->
<!DOCTYPE svg PUBLIC "-//W3C//DTD SVG 1.1//EN" "http://www.w3.org/Graphics/SVG/1.1/DTD/svg11.dtd">
<svg version="1.1" id="Layer_1" xmlns="http://www.w3.org/2000/svg" xmlns:xlink="http://www.w3.org/1999/xlink" x="0px" y="0px"
	 width="262px" height="202.884px" viewBox="0 0 262 202.884" enable-background="new 0 0 262 202.884" xml:space="preserve">
<g>
	<g>
		<g>
			<path fill="#F992C9" stroke="#7A4655" stroke-width="3" stroke-miterlimit="10" d="M77.699,5.851c0,0,52.387-8.108,66.02,34.922
				c0,0,50.669,5.111,42.147,38.746c0,0,32.376-11.913,66.021,45.566c33.635,57.499-101.788,68.99-102.634,70.268
				c-0.864,1.297-135.855,3.41-140.966-39.592c-5.106-43.03,31.944-66.434,38.328-66.865c6.39-0.424,0.851-50.265,56.226-40.456
				C102.831,48.44,113.894,15.65,77.699,5.851z"/>
			<g>
				<g>
					<path fill="#F992C9" stroke="#7A4655" stroke-width="3" stroke-miterlimit="10" d="M149.432,57.356l-5.713-16.583
						c57.64,10.955,40.127,40.568,42.147,38.746c4.782,11.51-22.051,38.332-35.223,42.382c-23.019,7.094-85.863-5.167-95.61-11.876
						c-9.743-6.68-8.936-17.606-8.428-21.129"/>
					<path fill="#F992C9" stroke="#7A4655" stroke-width="3" stroke-miterlimit="10" d="M100.097,63.143
						c0,0,1.203-5.966,2.725-14.694"/>
				</g>
			</g>
			<path fill="#F992C9" d="M180.238,84.743c0,0,1.785-6.595,0.761-12.439c-1.005-5.825-4.368,13.05-4.368,13.05L180.238,84.743z"/>
			<path fill="#7A4655" d="M47.465,96.699c0,0,0.725-4.873,3.059-10.898c-1.01-5.825-5.023,4.122-5.023,4.122L47.465,96.699z"/>
		</g>
		<path fill="#7A4655" d="M49.715,87.778c0,0-1.479,1.597-1.865,2.048c-0.385,0.461-2.78-0.874-2.78-0.874L49.715,87.778z"/>
	</g>
</g>
</svg>
