<?xml version="1.0" encoding="utf-8"?>
<!-- Generator: Adobe Illustrator 16.0.0, SVG Export Plug-In . SVG Version: 6.00 Build 0)  -->
<!DOCTYPE svg PUBLIC "-//W3C//DTD SVG 1.1//EN" "http://www.w3.org/Graphics/SVG/1.1/DTD/svg11.dtd">
<svg version="1.1" id="Layer_1" xmlns="http://www.w3.org/2000/svg" xmlns:xlink="http://www.w3.org/1999/xlink" x="0px" y="0px"
	 width="550px" height="526px" viewBox="0 0 550 526" enable-background="new 0 0 550 526" xml:space="preserve">
<g>
	<g>
		<g>
			<g>
				<path fill="#F992C9" stroke="#7A4655" stroke-width="3" stroke-miterlimit="10" d="M190.462,126.812
					c0,0,71.334-11.041,89.897,47.552c0,0,68.996,6.959,57.391,52.76c0,0,44.086-16.222,89.898,62.046
					c45.801,78.297-138.601,93.941-139.755,95.684c-1.176,1.766-184.991,4.645-191.95-53.913
					c-6.953-58.592,43.497-90.461,52.19-91.048c8.701-0.577,1.159-68.445,76.562-55.088
					C224.684,184.805,239.748,140.154,190.462,126.812z"/>
				<g>
					<g>
						<path fill="#F992C9" stroke="#7A4655" stroke-width="3" stroke-miterlimit="10" d="M288.139,196.944l-7.778-22.581
							c78.487,14.917,54.641,55.241,57.391,52.76c6.512,15.673-30.027,52.196-47.963,57.71
							c-31.345,9.66-116.917-7.035-130.188-16.17c-13.268-9.097-12.168-23.975-11.478-28.771"/>
						<path fill="#F992C9" stroke="#7A4655" stroke-width="3" stroke-miterlimit="10" d="M220.96,204.825
							c0,0,1.638-8.124,3.711-20.008"/>
					</g>
				</g>
				<path fill="#F992C9" d="M330.088,234.237c0,0,2.43-8.98,1.035-16.938c-1.367-7.932-5.947,17.77-5.947,17.77L330.088,234.237z"/>
				<path fill="#7A4655" d="M149.292,250.518c0,0,0.987-6.635,4.165-14.84c-1.375-7.931-6.839,5.613-6.839,5.613L149.292,250.518z"
					/>
			</g>
			<path fill="#7A4655" d="M152.356,238.37c0,0-2.014,2.175-2.539,2.789c-0.524,0.628-3.786-1.19-3.786-1.19L152.356,238.37z"/>
		</g>
	</g>
	<g>
		<path d="M350.501,400.004c-23.771,0-47.544,0.023-71.315-0.01c-15.74-0.022-27.611-9.033-31.886-24.127
			c-0.802-2.832-1.024-5.746-1.024-8.685c0.005-47.544-0.023-95.088,0.018-142.632c0.016-19.235,13.809-33,33.023-33.012
			c47.436-0.026,94.871-0.026,142.307,0c19.234,0.011,33.037,13.748,33.055,32.975c0.044,47.544,0.048,95.087-0.004,142.632
			c-0.02,19.052-13.828,32.812-32.854,32.847C398.046,400.035,374.274,400.004,350.501,400.004z"/>
		<path fill="#FEFEFE" d="M299.556,305.588c-2.405-2.332-4.878-4.6-7.202-7.008c-1.951-2.023-2.035-4.287-0.016-6.32
			c9.021-9.083,18.067-18.146,27.157-27.158c2.036-2.02,4.643-2.069,6.345-0.256c1.981,2.111,1.765,4.376-0.135,6.363
			c-6.215,6.498-12.504,12.924-18.766,19.377c0.248,1.988,1.728,0.662,2.6,0.926c1.521,0.461,3.497-0.883,4.63,1.176
			c-1.885,2.905-4.62,4.977-7.137,7.264c-1.341,1.672-2.814,3.223-4.397,4.666C301.777,305.397,300.929,306.365,299.556,305.588z"/>
		<path fill="#FCFCFC" d="M401.231,289.559c-0.064-7.043-0.197-14.085-0.154-21.127c0.017-2.744,1.891-4.219,4.442-4.196
			c2.533,0.021,4.4,1.463,4.4,4.236c0,9.223-0.058,18.448-0.24,27.668c-0.034,1.791-1.04,3.292-3.132,3.551
			c-5.783,0.674-11.589,0.115-17.375,0.304c-1.853-0.209-1.442-1.459-0.764-2.263c1.981-2.342,3.769-4.95,6.785-6.17
			c1.276-0.04,2.566-0.125,3.83,0.008C400.628,291.738,401.075,290.86,401.231,289.559z"/>
		<path fill="#F1F1F1" d="M401.231,289.559c0.312,1.609-0.292,2.385-1.991,2.327c-1.475-0.05-2.952,0.019-4.428,0.036
			c-3.276,1.072-4.797,4.072-6.941,6.377c-0.458,0.49,0.019,0.969,0.447,1.32c6.075,0.023,12.153,0.047,18.229,0.071
			c-1.247,0.99-2.714,0.567-4.082,0.567c-30.354,0.02-60.708,0.007-91.063,0c-1.377,0-2.75,0-4.675,0
			c1.399,1.599,2.425,2.77,3.446,3.938c-1.438,2.562-3.453,4.552-5.995,6.013c-1.731-1.35-3.287-2.877-4.626-4.623
			c3.271-0.946,4.538-4.33,7.248-5.961c2.909-1.59,4.444-4.707,7.195-6.471c-1.424-2.238-3.692-0.833-5.519-1.318
			c-0.58-0.156-2.56,0.994-1.541-1.25c0.738,1.25,1.95,0.639,2.92,0.639c29.405,0.037,58.812,0.033,88.218,0.025
			C399.41,291.25,401.02,291.687,401.231,289.559z"/>
		<path fill="#FEFEFE" d="M304.182,310.209c1.686-2.316,3.697-4.308,5.995-6.013c4.765,4.322,9.276,8.896,13.643,13.616
			c0.041,3.136-2.875,6.053-6.013,6.011C313.055,319.498,308.528,314.943,304.182,310.209z"/>
		<path fill="#EFEFEF" d="M317.807,323.823c2.814-1.192,4.816-3.198,6.013-6.011c0.77,0.727,1.645,1.369,2.284,2.195
			c1.609,2.078,1.524,4.269-0.356,6.051c-1.912,1.813-4.074,1.645-6.026-0.117C319.017,325.309,318.44,324.533,317.807,323.823z"/>
		<path fill="#F2F2F2" d="M313.999,293.154c-1.297,2.203-3.693,3.457-4.918,5.742c-0.464,0.859-1.417,0.792-2.277,0.729
			C309.064,297.314,310.823,294.446,313.999,293.154z"/>
		<path fill="#F2F2F2" d="M388.318,299.619c-0.69-0.058-1.755,0.355-1.732-0.82c0.034-1.65,6.324-6.793,8.229-6.879
			C393.001,294.785,389.49,296.217,388.318,299.619z"/>
		<path fill="#FEFEFE" d="M360.257,291.942c7.81-0.003,15.617-0.005,23.427-0.007c0.319,1.572-0.964,2.27-1.816,3.122
			c-1.438,1.433-2.722,2.987-4.021,4.536c-7.599,0.001-15.197,0.001-22.797,0.002c-0.896-1.393,0.262-2.174,1.004-2.942
			C357.521,295.138,358.899,293.551,360.257,291.942z"/>
		<path fill="#FEFEFE" d="M323.774,291.94c7.599,0,15.198-0.001,22.798-0.001c0.896,1.393-0.262,2.174-1.005,2.941
			c-1.468,1.515-2.848,3.102-4.202,4.712c-7.602,0-15.2,0.002-22.799,0.002c-0.896-1.394,0.261-2.175,1.003-2.942
			C321.038,295.138,322.416,293.551,323.774,291.94z"/>
		<path fill="#FEFEFE" d="M323.774,291.94c0.24,1.937-1.386,2.733-2.371,3.931c-0.991,1.205-2.64,1.918-2.837,3.725
			c-1.278,0.004-2.557,0.01-3.832,0.016c-0.104-2.527,2.275-3.296,3.505-4.869c0.836-1.068,1.854-2.019,2.989-2.806
			C322.076,291.938,322.925,291.939,323.774,291.94z"/>
		<path fill="#FEFEFE" d="M360.257,291.942c0.242,1.935-1.385,2.731-2.372,3.929c-0.99,1.205-2.637,1.918-2.836,3.725
			c-1.492,0.001-2.984,0.003-4.478,0.005c-0.308-0.519,0.051-0.821,0.364-1.14c2.485-2.159,4.322-5.051,7.401-6.536
			C358.977,291.931,359.617,291.937,360.257,291.942z"/>
		<path fill="#FEFEFE" d="M341.365,299.593c-0.242-1.937,1.383-2.732,2.37-3.931c0.991-1.205,2.638-1.918,2.837-3.724
			c1.275-0.004,2.553-0.009,3.829-0.013c-1.1,3.742-4.17,5.656-7.119,7.685C342.645,299.604,342.005,299.599,341.365,299.593z"/>
		<path fill="#FEFEFE" d="M377.846,299.593c-0.156-2.458,2.074-3.296,3.291-4.815c0.794-0.992,1.694-1.898,2.547-2.844
			c1.066-0.004,2.136-0.008,3.202-0.014c0.057,2.641-2.453,3.426-3.726,5.101c-0.76,0.998-1.729,1.843-2.77,2.576
			C379.544,299.596,378.695,299.595,377.846,299.593z"/>
		<path fill="#F2F2F2" d="M380.392,299.597c1.31-3.284,4.771-4.747,6.495-7.677c0.571,0.164,1.698-0.604,1.52,0.824
			C388.191,294.428,382.2,299.498,380.392,299.597z"/>
		<path fill="#F2F2F2" d="M321.229,291.937c-1.311,3.285-4.77,4.748-6.495,7.675c-0.242,0.006-0.485,0.01-0.729,0.014
			c-0.839-1.375,0.477-1.902,1.104-2.637c1.114-1.305,2.531-2.341,3.453-3.828C319.087,291.959,320.069,291.756,321.229,291.937z"/>
		<path fill="#F2F2F2" d="M343.282,299.61c2.375-2.563,4.748-5.125,7.12-7.687c0.614,0.193,0.71,0.693,0.733,1.236
			c-1.663,2.412-4.167,4.061-5.862,6.442C344.609,299.605,343.946,299.607,343.282,299.61z"/>
		<path fill="#F2F2F2" d="M358.338,291.924c-2.23,2.537-4.529,5.011-7.201,7.101c-0.866-1.356,0.414-1.907,1.053-2.633
			c1.341-1.527,2.975-2.785,4.157-4.461C357.012,291.929,357.675,291.926,358.338,291.924z"/>
		<path fill="#F2F2F2" d="M356.347,291.931c-0.258,1.926-2.045,2.673-3.092,3.989c-0.783,0.984-2.095,1.604-2.118,3.105
			c-0.189,0.192-0.378,0.385-0.566,0.576c-1.339-1.125-0.083-2.029,0.473-2.627C352.698,295.189,354.212,293.222,356.347,291.931z"
			/>
		<path fill="#F2F2F2" d="M318.563,293.16c-0.122,1.801-1.748,2.5-2.715,3.678c-0.709,0.871-1.83,1.459-1.844,2.787
			c-1.995-0.552-0.448-1.617-0.091-2.008C315.363,296.041,316.997,294.631,318.563,293.16z"/>
		<path fill="#F2F2F2" d="M345.273,299.604c1.139-2.889,3.693-4.491,5.862-6.441C350.063,296.11,347.5,297.703,345.273,299.604z"/>
	</g>
</g>
</svg>
